<?xml version="1.0" encoding="UTF-8"?>
<svg version="1.1" xmlns="http://www.w3.org/2000/svg" width="512" height="384">
<path d="M0 0 C0.40089844 1.12019531 0.80179688 2.24039063 1.21484375 3.39453125 C1.7872903 4.86787729 2.36160886 6.34049694 2.9375 7.8125 C3.19595703 8.55048828 3.45441406 9.28847656 3.72070312 10.04882812 C4.62431077 12.29261791 5.55752858 14.05668868 7 16 C15.30450333 19.37282261 24.25702011 21.23010457 32.93359375 23.44921875 C34.14365428 23.75951995 34.14365428 23.75951995 35.37816048 24.07608986 C39.64216966 25.16921772 43.90719585 26.25826907 48.1730957 27.34399414 C52.55437193 28.4599604 56.93185258 29.59013107 61.30863857 30.72355938 C64.69972263 31.59891271 68.09347757 32.4635381 71.48802376 33.32535744 C73.1024167 33.73718671 74.71580414 34.15298049 76.32809258 34.57297325 C78.59026336 35.16119934 80.8558504 35.73398824 83.12280273 36.3034668 C83.77401596 36.47641769 84.42522919 36.64936859 85.09617615 36.82756042 C88.77505052 37.73320528 92.07068556 38.05411839 95.86407471 37.96359253 C101.2116673 37.8740562 105.90596921 38.90964604 111.05200195 40.27905273 C112.47592003 40.64240219 112.47592003 40.64240219 113.92860413 41.01309204 C117.03485414 41.80865907 120.1364423 42.62101517 123.23828125 43.43359375 C125.40891504 43.99279194 127.57983376 44.55088519 129.75102234 45.10792542 C135.44486483 46.57169369 141.1349445 48.04958563 146.82427979 49.53076172 C153.74553911 51.32989434 160.67108165 53.11245192 167.59600353 54.89742374 C172.98120526 56.28584206 178.36573368 57.67671321 183.74836731 59.07505798 C184.73722931 59.33151596 185.72609131 59.58797394 186.74491882 59.85220337 C188.58683027 60.33002487 190.42846895 60.80889961 192.26977539 61.28904724 C200.62711296 63.63998548 200.62711296 63.63998548 209.125 62.9375 C213.3006993 62.0777972 216.23899286 62.05873219 220.375 63.0625 C226.19351084 64.40782043 230.7710777 63.22436756 236.4453125 61.62890625 C237.28835938 61.42136719 238.13140625 61.21382812 239 61 C239.33 61.33 239.66 61.66 240 62 C239.9416074 63.79265284 239.85339543 65.58437908 239.75 67.375 C239.66529356 70.33338287 239.66529356 70.33338287 240 73 C242.08921756 75.17020292 242.08921756 75.17020292 245 76 C248.55699806 77.99538915 251.54861776 79.70331354 254 83 C256.05360936 90.33031978 256.76810519 98.08867999 257.6875 105.625 C257.90116211 107.24535156 257.90116211 107.24535156 258.11914062 108.8984375 C258.97739394 115.90110136 259.66278678 122.12016418 256.81640625 128.76171875 C254.51515632 131.59745254 252.12050083 133.03729055 248.9375 134.8125 C247.87402344 135.41707031 246.81054688 136.02164063 245.71484375 136.64453125 C243 138 243 138 241 138 C238.201938 151.40304832 239.93003006 162.73560192 242.83895874 175.99795532 C244.08223238 181.69339559 245.22932706 187.40769493 246.3671875 193.125 C246.71256813 194.85832329 246.71256813 194.85832329 247.06492615 196.62666321 C249.33815832 208.29216844 250.88815741 220.00327714 252.1875 231.8125 C252.34643234 233.21032211 252.34643234 233.21032211 252.50857544 234.63638306 C252.80370092 237.26292677 253.08366935 239.89048045 253.35546875 242.51953125 C253.47965683 243.66137878 253.47965683 243.66137878 253.60635376 244.82629395 C254.30402201 252.12798554 253.18539172 258.10300008 250.4375 264.9375 C249.98246094 266.08089844 249.52742188 267.22429687 249.05859375 268.40234375 C248.70925781 269.25957031 248.35992187 270.11679687 248 271 C225.37016203 272.91789345 203.38139734 273.903345 181 269 C181.16757812 268.25234375 181.33515625 267.5046875 181.5078125 266.734375 C181.71148437 265.74953125 181.91515625 264.7646875 182.125 263.75 C182.43824219 262.28820312 182.43824219 262.28820312 182.7578125 260.796875 C183.25357189 258.09372389 183.25357189 258.09372389 182.08032227 256.33496094 C180.52017957 252.96293726 180.32377922 249.49812899 179.95703125 245.84375 C179.77283199 244.17688869 179.58756699 242.51014488 179.40136719 240.84350586 C179.30577515 239.97080048 179.21018311 239.09809509 179.11169434 238.19894409 C177.22393305 221.1700048 174.27388685 205.0730672 169.65820312 188.55810547 C168.83894189 185.3740479 168.35207061 182.26591816 168 179 C167.41436279 178.93006836 166.82872559 178.86013672 166.2253418 178.78808594 C153.87707693 177.30347769 141.55384348 175.69358965 129.25 173.875 C127.51109497 173.61928223 127.51109497 173.61928223 125.73706055 173.35839844 C119.55650523 172.43391124 119.55650523 172.43391124 117 172 C116.29939453 171.88954346 115.59878906 171.77908691 114.87695312 171.6652832 C110.49352015 170.111582 108.16947812 165.88960026 106 162 C104.14945427 156.4819701 102.93371089 150.87979304 101.75 145.1875 C101.26552645 142.93329864 100.77420605 140.68101176 100.27178955 138.43074036 C99.96303196 137.04090463 99.66516862 135.64858818 99.38006592 134.25370789 C98.55436253 130.45821496 97.47430703 127.97622048 95 125 C95 124.34 95 123.68 95 123 C93.741875 122.71125 92.48375 122.4225 91.1875 122.125 C88.1460601 121.42696461 86.69330122 120.79553415 84 119 C81.72461677 118.33386665 81.72461677 118.33386665 79.3125 117.875 C78.50425781 117.70742187 77.69601563 117.53984375 76.86328125 117.3671875 C75.94095703 117.18542969 75.94095703 117.18542969 75 117 C75 116.34 75 115.68 75 115 C73.515 115.495 73.515 115.495 72 116 C70.1485555 116.11829437 68.29267862 116.17514861 66.4375 116.1875 C64.98150391 116.20876953 64.98150391 116.20876953 63.49609375 116.23046875 C61 116 61 116 59 114 C56.66845878 113.90856701 54.3320802 113.92353835 52 114 C49.6679198 114.07646165 47.33154122 114.09143299 45 114 C44.34 113.34 43.68 112.68 43 112 C40.41935871 111.85502015 37.95056116 111.81322455 35.375 111.875 C34.66859375 111.88402344 33.9621875 111.89304687 33.234375 111.90234375 C31.48943902 111.92592397 29.74467705 111.96179539 28 112 C27.34 110.68 26.68 109.36 26 108 C24.7625 108.495 24.7625 108.495 23.5 109 C19.28618824 110.20394622 16.37384709 110.3527296 12 110 C11.38382813 109.48824219 10.76765625 108.97648437 10.1328125 108.44921875 C7.187132 106.44766661 5.46636819 106.98004477 2 107.5 C-3.3663264 108.30494896 -3.3663264 108.30494896 -6.39453125 106.84765625 C-8 105 -8 105 -8.13671875 102.65234375 C-7.98847656 101.75644531 -7.84023437 100.86054688 -7.6875 99.9375 C-6.95374792 94.43435937 -7.22737808 89.47967238 -8 84 C-9.7015625 83.81824219 -9.7015625 83.81824219 -11.4375 83.6328125 C-12.95836512 83.46382749 -14.4791967 83.29454047 -16 83.125 C-16.74378906 83.04636719 -17.48757812 82.96773438 -18.25390625 82.88671875 C-31.8778125 81.346625 -31.8778125 81.346625 -34.875 77.75 C-36.05555788 74.86419186 -37.04973584 71.96957549 -38 69 C-38.7578479 67.4068396 -38.7578479 67.4068396 -39.53100586 65.78149414 C-42.01081419 60.03385432 -41.55789506 53.86656998 -41.5559082 47.71459961 C-41.56241705 45.46615455 -41.61681612 43.22226461 -41.67382812 40.97460938 C-41.79901973 30.16741818 -40.14266161 18.74934136 -32.25 10.5625 C-26.79398993 7.93941824 -21.59411808 9.13529397 -16 11 C-15.87625 9.88625 -15.7525 8.7725 -15.625 7.625 C-15 4 -15 4 -13 2 C-10.72265625 1.3671875 -10.72265625 1.3671875 -8.0625 0.875 C-7.18722656 0.70742188 -6.31195313 0.53984375 -5.41015625 0.3671875 C-3 0 -3 0 0 0 Z M119.6875 126.9375 C116.15776743 131.25161759 115.71375959 136.89409409 116.1875 142.3125 C116.42677189 143.88014342 116.70089283 145.44266515 117 147 C117.18691406 147.99773437 117.37382812 148.99546875 117.56640625 150.0234375 C118.90957437 156.2403871 119.96283357 160.92739736 125 165 C128.2761194 166.19952403 131.5464984 166.58698581 135 167 C136.26070312 167.18304688 137.52140625 167.36609375 138.8203125 167.5546875 C146.56075143 168.64974421 154.17114429 169.29855806 162 169 C162 167.68 162 166.36 162 165 C162.99 164.67 163.98 164.34 165 164 C164.01 159.05 163.02 154.1 162 149 C159.71486476 153.57027047 157.6169005 158.14929849 156 163 C155.31292969 163.06058594 154.62585938 163.12117188 153.91796875 163.18359375 C153.01691406 163.26738281 152.11585938 163.35117188 151.1875 163.4375 C150.29417969 163.51871094 149.40085937 163.59992188 148.48046875 163.68359375 C145.87256441 163.93489767 145.87256441 163.93489767 143 165 C143.9590625 164.13375 143.9590625 164.13375 144.9375 163.25 C148.32127352 159.5586107 148.11897293 156.15360931 148.0625 151.28125 C148.05089844 149.63576172 148.05089844 149.63576172 148.0390625 147.95703125 C148.02617187 146.81621094 148.01328125 145.67539063 148 144.5 C147.97445911 142.23963162 147.95343741 139.97920649 147.9375 137.71875 C147.92589844 136.71779297 147.91429687 135.71683594 147.90234375 134.68554688 C147.98980294 132.28041926 148.30718802 130.29391684 149 128 C145.81309767 127.66078548 142.62539896 127.32970583 139.4375 127 C138.54224609 126.90460938 137.64699219 126.80921875 136.72460938 126.7109375 C128.07527419 125.48792713 128.07527419 125.48792713 119.6875 126.9375 Z " fill="#242627" transform="translate(136,44)"/>
<path d="M0 0 C0.40089844 1.12019531 0.80179688 2.24039063 1.21484375 3.39453125 C1.7872903 4.86787729 2.36160886 6.34049694 2.9375 7.8125 C3.19595703 8.55048828 3.45441406 9.28847656 3.72070312 10.04882812 C4.62423789 12.29243692 5.55793574 14.05665504 7 16 C15.33359596 19.39086059 24.32741791 21.23385891 33.0390625 23.44921875 C34.69096134 23.87086538 36.3428471 24.29256324 37.99472046 24.71430969 C41.44181539 25.5933618 44.88963699 26.46949908 48.33789062 27.34399414 C52.74569812 28.46243413 57.15065864 29.59168598 61.55503273 30.72355938 C64.95946375 31.59653837 68.36577911 32.46197617 71.77265549 33.32535744 C73.39757049 33.73846258 75.02179402 34.15429796 76.64528275 34.57297325 C78.91604929 35.15774931 81.18927143 35.73184229 83.46337891 36.3034668 C84.12537796 36.47641769 84.78737701 36.64936859 85.46943665 36.82756042 C89.72344641 37.88166946 93.62644549 38.15310283 98 38 C98.33 38.99 98.66 39.98 99 41 C101.64 41.33 104.28 41.66 107 42 C107 42.66 107 43.32 107 44 C107.99 44 108.98 44 110 44 C110 44.66 110 45.32 110 46 C110.74121094 46.09796875 111.48242188 46.1959375 112.24609375 46.296875 C118.93265961 47.24625277 125.48626144 48.47067519 132.0625 50 C132.78816162 50.1659668 133.51382324 50.33193359 134.26147461 50.50292969 C137.76665595 51.33810221 140.80398712 52.36550939 144 54 C145.093125 54 146.18625 54 147.3125 54 C151.30556462 54 154.18305076 54.85491523 158 56 C159.66363517 56.30848864 161.33076019 56.59843956 163 56.875 C173.95956931 58.80113684 184.63664699 62.12597728 195.27783203 65.3371582 C198.83100367 66.40192049 202.34608271 67.35310025 206 68 C206 68.66 206 69.32 206 70 C206.65846924 70.0424585 207.31693848 70.08491699 207.99536133 70.12866211 C215.07980657 70.66796028 221.78668974 71.90351733 228.6875 73.5625 C230.18700195 73.91344727 230.18700195 73.91344727 231.71679688 74.27148438 C234.14617428 74.84105133 236.57375133 75.41727652 239 76 C239 76.66 239 77.32 239 78 C241.31 78.33 243.62 78.66 246 79 C246.33 80.32 246.66 81.64 247 83 C244.39417629 83.93065133 243.35801776 84.14917407 240.75 83.0625 C239.88375 82.5365625 239.88375 82.5365625 239 82 C238.34 82.66 237.68 83.32 237 84 C236.401875 83.649375 235.80375 83.29875 235.1875 82.9375 C232.89186786 81.66695302 232.89186786 81.66695302 230 83 C229.67 82.34 229.34 81.68 229 81 C226.54426169 79.33360615 225.46339886 78.9189052 222.5 79.4375 C221.675 79.623125 220.85 79.80875 220 80 C217.54275493 79.56636852 215.37583945 78.79194648 213 78 C212.34 79.65 211.68 81.3 211 83 C211.33 83.33 211.66 83.66 212 84 C212.23192865 85.51469448 212.41215238 87.03754562 212.5625 88.5625 C212.64628906 89.38878906 212.73007812 90.21507812 212.81640625 91.06640625 C212.87699219 91.70449219 212.93757812 92.34257812 213 93 C208.46001888 94.45279396 204.82017573 95.22953218 200 95 C199.67 95 199.34 95 199 95 C198.01 94.67 197.02 94.34 196 94 C196 93.34 196 92.68 196 92 C194.68 92.33 193.36 92.66 192 93 C192 92.34 192 91.68 192 91 C191.08476562 91.02320313 190.16953125 91.04640625 189.2265625 91.0703125 C188.03804687 91.08835937 186.84953125 91.10640625 185.625 91.125 C184.44164062 91.14820313 183.25828125 91.17140625 182.0390625 91.1953125 C179 91 179 91 177 89 C174.89179203 89.3185177 174.89179203 89.3185177 173 90 C173.639375 90.474375 174.27875 90.94875 174.9375 91.4375 C177.78824 94.97932849 178.2378443 98.49681456 178 103 C177.1953125 105.21875 177.1953125 105.21875 176 107 C175.01 107.33 174.02 107.66 173 108 C172.67 107.67 172.34 107.34 172 107 C170.25477017 106.78916687 168.50301267 106.63124159 166.75 106.5 C163.08871046 106.22292944 159.58837417 105.78577537 156 105 C155.17361624 102.10765685 155 100.11257569 155 97 C154.401875 97.20625 153.80375 97.4125 153.1875 97.625 C151 98 151 98 148 96 C148.99 96 149.98 96 151 96 C151.99 94.02 151.99 94.02 153 92 C153.66 92 154.32 92 155 92 C155.309375 91.38125 155.61875 90.7625 155.9375 90.125 C156.625 88.75 157.3125 87.375 158 86 C157.67 85.34 157.34 84.68 157 84 C156.34 84 155.68 84 155 84 C155.33 85.32 155.66 86.64 156 88 C154.68 88.33 153.36 88.66 152 89 C152 88.01 152 87.02 152 86 C150.68 86 149.36 86 148 86 C147.67 85.01 147.34 84.02 147 83 C145.12612784 82.19787372 145.12612784 82.19787372 142.9375 81.8125 C142.20402344 81.65394531 141.47054687 81.49539062 140.71484375 81.33203125 C140.14894531 81.22246094 139.58304688 81.11289063 139 81 C138.67 81.66 138.34 82.32 138 83 C137.34 83 136.68 83 136 83 C136 82.34 136 81.68 136 81 C133.07317418 80.45547427 130.35768339 79.99148373 127.375 80.0625 C124.64458054 79.99064686 123.39597021 79.26845481 121 78 C118.6756398 77.30269194 116.34326294 76.63087848 114 76 C114.639375 76.433125 115.27875 76.86625 115.9375 77.3125 C118 79 118 79 119 82 C119.06970052 84.39490986 119.08448003 86.79167691 119.0625 89.1875 C119.05347656 90.45980469 119.04445312 91.73210937 119.03515625 93.04296875 C119.01775391 94.50669922 119.01775391 94.50669922 119 96 C117.11328125 97.05078125 117.11328125 97.05078125 115 98 C113.1875 97.1875 113.1875 97.1875 111 96 C108.67182036 95.63239269 106.33835889 95.29602917 104 95 C101.2312763 84.65800265 98.93343173 74.2288833 96.75 63.75 C96.47978027 62.46456299 96.20956055 61.17912598 95.93115234 59.85473633 C95.55531006 58.03171997 95.55531006 58.03171997 95.171875 56.171875 C94.8330127 54.5336377 94.8330127 54.5336377 94.48730469 52.86230469 C94 50 94 50 94 46 C91.40702401 51.18595198 93.37288353 57.029668 95 62.25 C97 68.72222222 97 68.72222222 97 72 C88.24037159 71.39099976 79.71959144 69.70610249 71.125 68 C69.71101486 67.72356234 68.29695276 67.44751804 66.8828125 67.171875 C53.69838642 64.5892361 53.69838642 64.5892361 48.9375 62.9375 C46.03758274 61.84797991 46.03758274 61.84797991 43 62 C40.93383218 61.69021312 38.87151246 61.3542387 36.8125 61 C35.18248047 60.7215625 35.18248047 60.7215625 33.51953125 60.4375 C32.68808594 60.293125 31.85664063 60.14875 31 60 C30.67 59.01 30.34 58.02 30 57 C29.01 57.495 29.01 57.495 28 58 C26.28766312 57.9129796 24.57824594 57.75902838 22.875 57.5625 C21.96492188 57.46066406 21.05484375 57.35882813 20.1171875 57.25390625 C19.41851562 57.17011719 18.71984375 57.08632812 18 57 C18.495 56.01 18.495 56.01 19 55 C18.01 54.67 17.02 54.34 16 54 C16 54.66 16 55.32 16 56 C13.03 55.505 13.03 55.505 10 55 C10 54.34 10 53.68 10 53 C9.04867187 53.20238281 8.09734375 53.40476563 7.1171875 53.61328125 C2.2515813 54.30574158 -2.13161335 53.25730051 -6.875 52.1875 C-7.74125 52.00896484 -8.6075 51.83042969 -9.5 51.64648438 C-14.21951558 50.62195004 -14.21951558 50.62195004 -16 50 C-17.44962183 47.10075634 -17.22126481 44.47699645 -17.31640625 41.2421875 C-17.33718735 40.57913605 -17.35796844 39.91608459 -17.37937927 39.23294067 C-17.44479231 37.11373306 -17.50372105 34.994401 -17.5625 32.875 C-17.60569309 31.43878919 -17.64930764 30.00259098 -17.69335938 28.56640625 C-17.80046499 25.04440406 -17.90175575 21.52226175 -18 18 C-17.34 18 -16.68 18 -16 18 C-16 17.34 -16 16.68 -16 16 C-16.66 15.67 -17.32 15.34 -18 15 C-17.52433594 14.59910156 -17.04867187 14.19820312 -16.55859375 13.78515625 C-14.24735043 11.13794273 -14.20795186 8.45566304 -13.72265625 5.05859375 C-13 3 -13 3 -11.125 1.76171875 C-7.45263967 0.44533959 -3.8871238 0 0 0 Z " fill="#424548" transform="translate(136,44)"/>
<path d="M0 0 C0.40089844 1.12019531 0.80179688 2.24039063 1.21484375 3.39453125 C1.7872903 4.86787729 2.36160886 6.34049694 2.9375 7.8125 C3.19595703 8.55048828 3.45441406 9.28847656 3.72070312 10.04882812 C4.62421362 12.29237665 5.55807142 14.05664378 7 16 C15.34328228 19.39688342 24.35089649 21.23510406 33.07421875 23.44921875 C34.72852225 23.87082986 36.38280349 24.29252833 38.0370636 24.71430969 C41.48837318 25.5932912 44.94037923 26.46947586 48.39282227 27.34399414 C52.80947732 28.46325549 57.22359512 29.59219931 61.63716412 30.72355938 C65.0460423 31.59575343 68.45654445 32.46145631 71.86753273 33.32535744 C73.49595624 33.73888624 75.12379327 34.15473195 76.7510128 34.57297325 C79.02464595 35.15661436 81.3004046 35.73112458 83.5769043 36.3034668 C84.24249863 36.47641769 84.90809296 36.64936859 85.59385681 36.82756042 C89.47736739 37.79197492 93.00296358 38.16711736 97 38 C96.37344398 44.64149378 96.37344398 44.64149378 94.4375 46.5 C92.66061649 48.03334025 92.66061649 48.03334025 92.78515625 51.140625 C93.00848084 55.15234671 93.80673004 58.4215922 95 62.25 C97 68.72222222 97 68.72222222 97 72 C88.24037159 71.39099976 79.71959144 69.70610249 71.125 68 C69.71101486 67.72356234 68.29695276 67.44751804 66.8828125 67.171875 C53.69838642 64.5892361 53.69838642 64.5892361 48.9375 62.9375 C46.03758274 61.84797991 46.03758274 61.84797991 43 62 C40.93383218 61.69021312 38.87151246 61.3542387 36.8125 61 C35.18248047 60.7215625 35.18248047 60.7215625 33.51953125 60.4375 C32.68808594 60.293125 31.85664063 60.14875 31 60 C30.67 59.01 30.34 58.02 30 57 C29.01 57.495 29.01 57.495 28 58 C26.28766312 57.9129796 24.57824594 57.75902838 22.875 57.5625 C21.96492188 57.46066406 21.05484375 57.35882813 20.1171875 57.25390625 C19.41851562 57.17011719 18.71984375 57.08632812 18 57 C18.495 56.01 18.495 56.01 19 55 C18.01 54.67 17.02 54.34 16 54 C16 54.66 16 55.32 16 56 C13.03 55.505 13.03 55.505 10 55 C10 54.34 10 53.68 10 53 C9.04867187 53.20238281 8.09734375 53.40476563 7.1171875 53.61328125 C2.2515813 54.30574158 -2.13161335 53.25730051 -6.875 52.1875 C-7.74125 52.00896484 -8.6075 51.83042969 -9.5 51.64648438 C-14.21951558 50.62195004 -14.21951558 50.62195004 -16 50 C-17.44962183 47.10075634 -17.22126481 44.47699645 -17.31640625 41.2421875 C-17.33718735 40.57913605 -17.35796844 39.91608459 -17.37937927 39.23294067 C-17.44479231 37.11373306 -17.50372105 34.994401 -17.5625 32.875 C-17.60569309 31.43878919 -17.64930764 30.00259098 -17.69335938 28.56640625 C-17.80046499 25.04440406 -17.90175575 21.52226175 -18 18 C-17.34 18 -16.68 18 -16 18 C-16 17.34 -16 16.68 -16 16 C-16.66 15.67 -17.32 15.34 -18 15 C-17.52433594 14.59910156 -17.04867187 14.19820312 -16.55859375 13.78515625 C-14.24735043 11.13794273 -14.20795186 8.45566304 -13.72265625 5.05859375 C-13 3 -13 3 -11.125 1.76171875 C-7.45263967 0.44533959 -3.8871238 0 0 0 Z " fill="#3C3E3F" transform="translate(136,44)"/>
<path d="M0 0 C10.70400848 1.62221071 21.11791588 4.48808173 31.5859375 7.19140625 C33.57596426 7.70219088 35.56608844 8.21259612 37.55630493 8.72264099 C42.76653654 10.0587896 47.97563821 11.39928844 53.18444824 12.7409668 C61.54100929 14.89269254 69.89923617 17.03793562 78.25755692 19.18281364 C81.16998612 19.93088765 84.08190041 20.68093948 86.9937439 21.43128967 C88.77755607 21.889866 90.56137913 22.34839999 92.34521484 22.80688477 C93.15152344 23.01521439 93.95783203 23.22354401 94.78857422 23.43818665 C102.88840049 25.66424245 102.88840049 25.66424245 111.125 24.9375 C115.3006993 24.0777972 118.23899286 24.05873219 122.375 25.0625 C128.19351084 26.40782043 132.7710777 25.22436756 138.4453125 23.62890625 C139.28835938 23.42136719 140.13140625 23.21382812 141 23 C141.33 23.33 141.66 23.66 142 24 C141.9416074 25.79265284 141.85339543 27.58437908 141.75 29.375 C141.66529356 32.33338287 141.66529356 32.33338287 142 35 C144.08921756 37.17020292 144.08921756 37.17020292 147 38 C150.51840382 39.97373873 153.42623274 41.85428447 156 45 C156 46.32 156 47.64 156 49 C155.34 49 154.68 49 154 49 C154 49.99 154 50.98 154 52 C153.34 52 152.68 52 152 52 C150.66499545 57.34001821 151.487455 60.83955235 153 66 C151.35 65.67 149.7 65.34 148 65 C148 64.01 148 63.02 148 62 C147.67 62.66 147.34 63.32 147 64 C144.22614777 65.23282321 142.91283549 64.97687472 139.9375 64.1875 C137 63 137 63 134 61 C131.37468476 60.83286431 131.37468476 60.83286431 129 61 C129.33 60.34 129.66 59.68 130 59 C129.91348369 57.45386986 129.75997364 55.91090613 129.5625 54.375 C129.40974609 53.14910156 129.40974609 53.14910156 129.25390625 51.8984375 C129.17011719 51.27195313 129.08632813 50.64546875 129 50 C128.34 51.32 127.68 52.64 127 54 C126.67 53.34 126.34 52.68 126 52 C125.67 53.65 125.34 55.3 125 57 C123.515 56.505 123.515 56.505 122 56 C121.67 56 121.34 56 121 56 C119.66431979 55.67619874 118.33076989 55.34342449 117 55 C117.66 54.67 118.32 54.34 119 54 C118.67 53.34 118.34 52.68 118 52 C117.34 52 116.68 52 116 52 C115.71125 51.030625 115.4225 50.06125 115.125 49.0625 C114.35785318 45.89335797 114.35785318 45.89335797 112 45 C112.33 43.35 112.66 41.7 113 40 C116 39 116 39 118.0625 40 C118.701875 40.33 119.34125 40.66 120 41 C120.66 40.67 121.32 40.34 122 40 C122 40.66 122 41.32 122 42 C123.98 41.34 125.96 40.68 128 40 C128.33 40.66 128.66 41.32 129 42 C129.99 42 130.98 42 132 42 C132 42.99 132 43.98 132 45 C132.66 45 133.32 45 134 45 C134.33 44.34 134.66 43.68 135 43 C135.99 43 136.98 43 138 43 C138.33 43.66 138.66 44.32 139 45 C139.99 44.01 139.99 44.01 141 43 C141.61875 43.350625 142.2375 43.70125 142.875 44.0625 C143.57625 44.371875 144.2775 44.68125 145 45 C145.66 44.67 146.32 44.34 147 44 C147.66 44.33 148.32 44.66 149 45 C148.67 44.01 148.34 43.02 148 42 C144.48809191 40.77030122 144.48809191 40.77030122 141 40 C141 39.34 141 38.68 141 38 C139.77410156 37.88785156 138.54820312 37.77570313 137.28515625 37.66015625 C131.25162876 36.98976431 125.36725971 35.71352424 119.4375 34.4375 C117.78137695 34.08655273 117.78137695 34.08655273 116.09179688 33.72851562 C113.39368745 33.15618938 110.69648125 32.57993998 108 32 C108 31.34 108 30.68 108 30 C107.16082031 29.97873047 107.16082031 29.97873047 106.3046875 29.95703125 C99.52952306 29.554007 93.89010392 27.63847647 87.5625 25.265625 C78.49003314 22.04251177 68.94633584 20.55472719 59.47143555 19.00146484 C54.10436871 18.10436871 54.10436871 18.10436871 53 17 C50.67182036 16.63239269 48.3381615 16.29758419 46 16 C45.67 16.66 45.34 17.32 45 18 C44.46959106 17.31393677 44.46959106 17.31393677 43.9284668 16.61401367 C41.20065855 14.33099806 38.60415564 13.94945253 35.14453125 13.17578125 C34.48289474 13.02465378 33.82125824 12.87352631 33.13957214 12.71781921 C31.03272152 12.23906092 28.92283821 11.77561602 26.8125 11.3125 C25.38063259 10.98993735 23.94898868 10.66638088 22.51757812 10.34179688 C19.01423545 9.54966361 15.50801216 8.77122469 12 8 C12 7.34 12 6.68 12 6 C11.01 6 10.02 6 9 6 C9 5.34 9 4.68 9 4 C6.36 4 3.72 4 1 4 C0.67 2.68 0.34 1.36 0 0 Z M150 62 C151 64 151 64 151 64 Z " fill="#373A3C" transform="translate(234,82)"/>
<path d="M0 0 C6 0.66666667 12 1.33333333 18 2 C18.33 1.34 18.66 0.68 19 0 C21.97 0.495 21.97 0.495 25 1 C24.67 1.66 24.34 2.32 24 3 C25.32 3.33 26.64 3.66 28 4 C28 3.34 28 2.68 28 2 C29.32 2.33 30.64 2.66 32 3 C31.67 3.33 31.34 3.66 31 4 C33.475 4.495 33.475 4.495 36 5 C36 4.67 36 4.34 36 4 C38.875 3.875 38.875 3.875 42 4 C42.66 4.66 43.32 5.32 44 6 C43.67 6.33 43.34 6.66 43 7 C44.43725871 7.16873478 45.87481838 7.33490737 47.3125 7.5 C48.51326172 7.63921875 48.51326172 7.63921875 49.73828125 7.78125 C52.11896555 8.04813463 52.11896555 8.04813463 55 8 C56.51315303 8.43585386 58.01295891 8.91951402 59.5 9.4375 C60.2734375 9.70433594 61.046875 9.97117187 61.84375 10.24609375 C62.91109375 10.61927734 62.91109375 10.61927734 64 11 C64.99 11.33 65.98 11.66 67 12 C67.33 11.34 67.66 10.68 68 10 C68 10.99 68 11.98 68 13 C69.00675781 12.97164062 70.01351562 12.94328125 71.05078125 12.9140625 C74.95861366 12.99909941 78.37649152 13.53549759 82.1875 14.375 C83.97220703 14.75785156 83.97220703 14.75785156 85.79296875 15.1484375 C89 16 89 16 90.94140625 17 C94.05390468 18.5119537 97.37289637 18.999374 100.75 19.625 C101.79607422 19.82609375 101.79607422 19.82609375 102.86328125 20.03125 C104.57451932 20.35943264 106.28713171 20.68043502 108 21 C109.35605968 24.85462635 110.24143238 27.8956496 110 32 C109.071875 31.690625 108.14375 31.38125 107.1875 31.0625 C104.13647078 30.18584595 101.26979073 29.80621536 98.10546875 29.58984375 C91.35443157 29.01840764 84.77280687 27.7784244 78.125 26.5 C76.92875 26.27441406 75.7325 26.04882812 74.5 25.81640625 C71.33200279 25.21753429 68.16518443 24.61355386 65 24 C64.12843262 23.83177734 63.25686523 23.66355469 62.35888672 23.49023438 C60.30672638 23.06374525 58.27523743 22.54006332 56.25 22 C51.87390586 20.88092249 47.49236763 20.39516197 43 20 C43 19.34 43 18.68 43 18 C42.01 18.33 41.02 18.66 40 19 C37.53564453 18.77807617 37.53564453 18.77807617 34.6328125 18.29296875 C33.58222656 18.11830078 32.53164062 17.94363281 31.44921875 17.76367188 C30.35222656 17.57353516 29.25523437 17.38339844 28.125 17.1875 C27.03574219 17.00896484 25.94648438 16.83042969 24.82421875 16.64648438 C19.93217203 15.81717168 15.59599811 14.89244128 11 13 C8.36609526 12.65712483 5.76001835 12.5005928 3.109375 12.34375 C2.41328125 12.2303125 1.7171875 12.116875 1 12 C-0.26237731 9.47524538 -0.09856404 7.68799534 -0.0625 4.875 C-0.05347656 3.96492188 -0.04445313 3.05484375 -0.03515625 2.1171875 C-0.02355469 1.41851562 -0.01195313 0.71984375 0 0 Z " fill="#2F3132" transform="translate(124,96)"/>
<path d="M0 0 C13.20568854 1.44470763 26.26698829 3.64115003 39.35668945 5.88623047 C42.95384986 6.50280245 46.5520332 7.11311313 50.15039062 7.72265625 C52.46360424 8.11682045 54.77675749 8.51133914 57.08984375 8.90625 C58.15250961 9.08651733 59.21517548 9.26678467 60.31004333 9.45251465 C66.25126781 10.47482151 72.1264613 11.64072042 78 13 C78 15.97 78 18.94 78 22 C78.84304687 22.18175781 79.68609375 22.36351562 80.5546875 22.55078125 C81.65039062 22.80214844 82.74609375 23.05351562 83.875 23.3125 C84.96554688 23.55613281 86.05609375 23.79976562 87.1796875 24.05078125 C90 25 90 25 92 28 C90.85402344 27.91621094 89.70804687 27.83242187 88.52734375 27.74609375 C86.99742154 27.64284747 85.4674721 27.54000433 83.9375 27.4375 C83.18533203 27.38142578 82.43316406 27.32535156 81.65820312 27.26757812 C76.92946946 26.9605175 72.70569147 27.30798655 68 28 C65.4776849 27.61297811 63.43002032 26.84306828 61 26 C61 25.34 61 24.68 61 24 C57.7 24.66 54.4 25.32 51 26 C50.505 24.515 50.505 24.515 50 23 C44.05127836 22.05575847 39.72196792 21.97309574 33.9453125 23.72265625 C32 24 32 24 29 22 C24.0882582 19.17202745 19.37165372 20.22815073 14 21 C13.67 20.01 13.34 19.02 13 18 C11.04426055 17.09229133 9.07490658 16.5478047 7.0078125 15.94140625 C4.38504966 14.71166725 3.45416672 13.49840514 2 11 C1.05337801 7.37550084 0.57252459 3.69938969 0 0 Z " fill="#393B3C" transform="translate(143,122)"/>
<path d="M0 0 C0.33 1.32 0.66 2.64 1 4 C1.61746094 3.82082031 2.23492187 3.64164063 2.87109375 3.45703125 C9.4137903 1.81388828 13.89014147 2.06337096 20 5 C20.495 5.495 20.495 5.495 21 6 C22.38572794 5.71452815 23.75949318 5.37030694 25.125 5 C29.49511471 3.95117247 32.62841292 4.06987509 37 5 C37.495 6.485 37.495 6.485 38 8 C41.3 7.67 44.6 7.34 48 7 C48 7.66 48 8.32 48 9 C53.52967941 9.71033431 58.49983036 10.30267176 64 9 C64.495 9.99 64.495 9.99 65 11 C67.18547909 11.47057709 67.18547909 11.47057709 69.75 11.625 C71.04164063 11.73714844 71.04164063 11.73714844 72.359375 11.8515625 C74.91303211 11.99511127 77.44295776 12.02759398 80 12 C80 12.66 80 13.32 80 14 C83.465 13.505 83.465 13.505 87 13 C85.68 14.98 84.36 16.96 83 19 C82.01257813 18.79503906 81.02515625 18.59007812 80.0078125 18.37890625 C75.63081672 17.75440786 72.06607828 18.71345162 67.875 19.9375 C63.5428633 21.16426394 59.55045803 22.29215003 55 22 C55 21.34 55 20.68 55 20 C53.515 20.495 53.515 20.495 52 21 C50.1485555 21.11829437 48.29267862 21.17514861 46.4375 21.1875 C44.98150391 21.20876953 44.98150391 21.20876953 43.49609375 21.23046875 C41 21 41 21 39 19 C36.66845878 18.90856701 34.3320802 18.92353835 32 19 C29.6679198 19.07646165 27.33154122 19.09143299 25 19 C24.34 18.34 23.68 17.68 23 17 C20.41935871 16.85502015 17.95056116 16.81322455 15.375 16.875 C14.66859375 16.88402344 13.9621875 16.89304688 13.234375 16.90234375 C11.48943902 16.92592397 9.74467705 16.96179539 8 17 C7.34 15.68 6.68 14.36 6 13 C5.175 13.33 4.35 13.66 3.5 14 C-0.71381176 15.20394622 -3.62615291 15.3527296 -8 15 C-8.61617187 14.48824219 -9.23234375 13.97648438 -9.8671875 13.44921875 C-12.812868 11.44766661 -14.53363181 11.98004477 -18 12.5 C-23.47945205 13.32191781 -23.47945205 13.32191781 -26.375 11.53125 C-27.179375 10.77328125 -27.179375 10.77328125 -28 10 C-27.82421875 8.1640625 -27.82421875 8.1640625 -27 6 C-23.54885718 3.87169727 -19.75945127 2.50378051 -16 1 C-14.989375 0.54625 -13.97875 0.0925 -12.9375 -0.375 C-8.54311103 -1.30997638 -4.41213784 -0.64525336 0 0 Z " fill="#1A1D1C" transform="translate(156,139)"/>
<path d="M0 0 C0.86625 0.020625 1.7325 0.04125 2.625 0.0625 C3.615 0.0625 4.605 0.0625 5.625 0.0625 C6.285 0.0625 6.945 0.0625 7.625 0.0625 C8.82001271 3.64753813 8.69703321 4.90042528 7.125 8.4375 C5.41570244 12.56830244 5.66060383 14.76655343 6.625 19.0625 C7.24375 18.711875 7.8625 18.36125 8.5 18 C9.20125 17.690625 9.9025 17.38125 10.625 17.0625 C11.285 17.3925 11.945 17.7225 12.625 18.0625 C13.00390625 19.93359375 13.00390625 19.93359375 13.1875 22.5 C13.2596875 23.47453125 13.331875 24.4490625 13.40625 25.453125 C13.84271515 32.65480005 14.2524501 39.85722634 14.625 47.0625 C13.965 46.7325 13.305 46.4025 12.625 46.0625 C12.625 47.0525 12.625 48.0425 12.625 49.0625 C12.625 51.39583333 12.625 53.72916667 12.625 56.0625 C11.14 56.5575 11.14 56.5575 9.625 57.0625 C9.625 58.0525 9.625 59.0425 9.625 60.0625 C9.06296875 59.85753906 8.5009375 59.65257812 7.921875 59.44140625 C4.95698876 58.95230087 3.55390711 59.69994214 0.875 61 C0.07578125 61.38027344 -0.7234375 61.76054687 -1.546875 62.15234375 C-2.15015625 62.45269531 -2.7534375 62.75304687 -3.375 63.0625 C-6.15348223 60.28401777 -5.86156115 57.91329137 -6.375 54.0625 C-7.01752365 52.0546136 -7.68241771 50.05367408 -8.375 48.0625 C-9.39097972 44.27566651 -9.15490906 41.86455665 -8.375 38.0625 C-8.74356864 35.83082815 -8.74356864 35.83082815 -9.375 34.0625 C-8.715 34.0625 -8.055 34.0625 -7.375 34.0625 C-7.375 33.4025 -7.375 32.7425 -7.375 32.0625 C-8.035 32.0625 -8.695 32.0625 -9.375 32.0625 C-9.705 31.0725 -10.035 30.0825 -10.375 29.0625 C-9.055 28.4025 -7.735 27.7425 -6.375 27.0625 C-7.365 27.0625 -8.355 27.0625 -9.375 27.0625 C-9.478125 26.0725 -9.58125 25.0825 -9.6875 24.0625 C-10.18349236 20.41288457 -11.36221313 17.31148327 -12.8515625 13.95703125 C-13.49747339 11.61921946 -13.04612046 10.36668024 -12.375 8.0625 C-12.375 6.7425 -12.375 5.4225 -12.375 4.0625 C-9.405 4.5575 -9.405 4.5575 -6.375 5.0625 C-6.705 4.0725 -7.035 3.0825 -7.375 2.0625 C-6.735625 1.918125 -6.09625 1.77375 -5.4375 1.625 C-2.86431332 0.92322182 -2.7595419 0.07261952 0 0 Z M-7.375 29.0625 C-7.045 30.0525 -6.715 31.0425 -6.375 32.0625 C-6.045 31.0725 -5.715 30.0825 -5.375 29.0625 C-6.035 29.0625 -6.695 29.0625 -7.375 29.0625 Z M-4.375 63.0625 C-4.045 63.7225 -3.715 64.3825 -3.375 65.0625 C-4.035 64.7325 -4.695 64.4025 -5.375 64.0625 C-5.045 63.7325 -4.715 63.4025 -4.375 63.0625 Z " fill="#353739" transform="translate(355.375,239.9375)"/>
<path d="M0 0 C0.66 0 1.32 0 2 0 C2.00257813 0.61488281 2.00515625 1.22976562 2.0078125 1.86328125 C2.12782055 4.37144958 2.31774275 6.57991767 3 9 C5.90251302 11.16247221 5.90251302 11.16247221 9 12 C8.67 11.01 8.34 10.02 8 9 C9.875 9.75 9.875 9.75 12 11 C12.20286621 11.65967773 12.40573242 12.31935547 12.61474609 12.99902344 C13.95689054 15.41947925 13.95689054 15.41947925 17.62353516 15.82128906 C19.17676208 15.98860612 20.73228893 16.13537553 22.2890625 16.265625 C23.10748627 16.34874939 23.92591003 16.43187378 24.76913452 16.51751709 C27.38637952 16.77926344 30.00524071 17.0148934 32.625 17.25 C34.39860518 17.42276636 36.17204644 17.59722451 37.9453125 17.7734375 C42.29521528 18.20195383 46.64674488 18.60706361 51 19 C51 17.68 51 16.36 51 15 C51.66 15 52.32 15 53 15 C53 16.32 53 17.64 53 19 C56.42492563 19.41897148 59.59307967 19.62086297 63 19 C64.84899952 17.31178305 65.87762148 15.7267602 67.0625 13.53125 C67.5265625 12.77328125 67.5265625 12.77328125 68 12 C68.66 12 69.32 12 70 12 C69.7215625 13.2065625 69.7215625 13.2065625 69.4375 14.4375 C69.293125 15.283125 69.14875 16.12875 69 17 C69.33 17.33 69.66 17.66 70 18 C70.45890625 17.38640625 70.9178125 16.7728125 71.390625 16.140625 C75.1611491 13.04744056 79.02768305 12.6009936 83.75 11.75 C84.63816406 11.57726562 85.52632813 11.40453125 86.44140625 11.2265625 C88.62498331 10.80393468 90.81218421 10.40010639 93 10 C93.495 15.94 93.495 15.94 94 22 C86.40961767 24.67895847 80.02666039 25.37237084 72 25 C72 25.66 72 26.32 72 27 C72.66 27 73.32 27 74 27 C73.1875 29.9375 73.1875 29.9375 72 33 C70.515 33.495 70.515 33.495 69 34 C68.67 33.34 68.34 32.68 68 32 C67.071875 32.2784375 67.071875 32.2784375 66.125 32.5625 C64 33 64 33 62 32 C61.67 35.63 61.34 39.26 61 43 C58.90284215 39.85426323 58.47995441 37.98543749 57.875 34.3125 C57.70742188 33.31863281 57.53984375 32.32476562 57.3671875 31.30078125 C57.24601562 30.54152344 57.12484375 29.78226563 57 29 C56.41436279 28.93006836 55.82872559 28.86013672 55.2253418 28.78808594 C42.87707693 27.30347769 30.55384348 25.69358965 18.25 23.875 C17.09072998 23.70452148 15.93145996 23.53404297 14.73706055 23.35839844 C1.62999287 21.39784382 1.62999287 21.39784382 -3.44921875 14.6328125 C-5.81521629 10.61598041 -6.53010838 6.59343033 -7 2 C-5.02 2 -3.04 2 -1 2 C-0.67 1.34 -0.34 0.68 0 0 Z " fill="#303838" transform="translate(247,194)"/>
<path d="M0 0 C2.35953094 2.35953094 2.49141413 3.77895617 3 7 C3.66 7 4.32 7 5 7 C6.14806378 18.52164009 6.14806378 18.52164009 6 24 C6.66 24.33 7.32 24.66 8 25 C10.08034144 32.19130374 11.40604081 40.78187758 9 48 C9.66 48.33 10.32 48.66 11 49 C10.67 51.31 10.34 53.62 10 56 C10.66 56 11.32 56 12 56 C12.66 56.99 13.32 57.98 14 59 C14.99 58.34 15.98 57.68 17 57 C17 57.99 17 58.98 17 60 C20.96 60 24.92 60 29 60 C28.01 60.33 27.02 60.66 26 61 C26 61.66 26 62.32 26 63 C26.99 63.33 27.98 63.66 29 64 C28.01 64.66 27.02 65.32 26 66 C26.99 66.33 27.98 66.66 29 67 C29 67.66 29 68.32 29 69 C27.68 69 26.36 69 25 69 C25 69.66 25 70.32 25 71 C27.97 71 30.94 71 34 71 C33.67 71.66 33.34 72.32 33 73 C29.04087126 72.71856251 25.08291716 72.42295556 21.125 72.125 C20.01640625 72.04636719 18.9078125 71.96773438 17.765625 71.88671875 C11.0463545 71.37289218 4.56878415 70.51444387 -2 69 C-1.83242188 68.25234375 -1.66484375 67.5046875 -1.4921875 66.734375 C-1.28851563 65.74953125 -1.08484375 64.7646875 -0.875 63.75 C-0.56175781 62.28820312 -0.56175781 62.28820312 -0.2421875 60.796875 C0.0331771 57.61685795 -0.59379922 56.763277 -2 54 C-2.42359924 52.040802 -2.42359924 52.040802 -2.67016602 49.96923828 C-2.76689102 49.18807648 -2.86361603 48.40691467 -2.96327209 47.6020813 C-3.05918137 46.7665976 -3.15509064 45.93111389 -3.25390625 45.0703125 C-3.35968491 44.20236053 -3.46546356 43.33440857 -3.57444763 42.44015503 C-3.91078225 39.66922579 -4.23696542 36.89721686 -4.5625 34.125 C-4.89370598 31.36021292 -5.22699198 28.59568626 -5.56126404 25.83126831 C-5.7683153 24.11305217 -5.97322379 22.39457605 -6.17567444 20.67581177 C-6.6804044 16.42823604 -7.25304623 12.21365064 -8 8 C-6.02 7.34 -4.04 6.68 -2 6 C-2 5.34 -2 4.68 -2 4 C-1.34 4 -0.68 4 0 4 C0 2.68 0 1.36 0 0 Z " fill="#2F3132" transform="translate(319,244)"/>
<path d="M0 0 C9.02423343 1.96360635 18.03687504 3.95916754 27 6.1875 C27.67546875 6.35411133 28.3509375 6.52072266 29.046875 6.69238281 C33.75181913 7.87590956 33.75181913 7.87590956 36 9 C37.5778125 8.9690625 37.5778125 8.9690625 39.1875 8.9375 C43.21124002 9.00346295 46.15487425 9.84646227 50 11 C51.66363517 11.30848864 53.33076019 11.59843956 55 11.875 C65.95956931 13.80113684 76.63664699 17.12597728 87.27783203 20.3371582 C90.83100367 21.40192049 94.34608271 22.35310025 98 23 C98 23.66 98 24.32 98 25 C98.65846924 25.0424585 99.31693848 25.08491699 99.99536133 25.12866211 C107.07980657 25.66796028 113.78668974 26.90351733 120.6875 28.5625 C121.68716797 28.79646484 122.68683594 29.03042969 123.71679688 29.27148438 C126.14617428 29.84105133 128.57375133 30.41727652 131 31 C131 31.66 131 32.32 131 33 C133.31 33.33 135.62 33.66 138 34 C138.33 35.32 138.66 36.64 139 38 C136.39417629 38.93065133 135.35801776 39.14917407 132.75 38.0625 C132.1725 37.711875 131.595 37.36125 131 37 C130.01 37.99 130.01 37.99 129 39 C128.401875 38.649375 127.80375 38.29875 127.1875 37.9375 C124.89186786 36.66695302 124.89186786 36.66695302 122 38 C121.67 37.34 121.34 36.68 121 36 C118.54426169 34.33360615 117.46339886 33.9189052 114.5 34.4375 C113.675 34.623125 112.85 34.80875 112 35 C108.64471501 34.59329879 106.47052418 33.29405817 104 31 C104 30.01 104 29.02 104 28 C103.34 28 102.68 28 102 28 C102 28.99 102 29.98 102 31 C99.36 30.67 96.72 30.34 94 30 C94 29.34 94 28.68 94 28 C92.86046875 28.21140625 91.7209375 28.4228125 90.546875 28.640625 C85.69301038 29.24255544 81.85867147 28.20550134 77.25 26.75 C75.67485044 26.28130253 74.09932742 25.81385837 72.5234375 25.34765625 C71.75870117 25.1170752 70.99396484 24.88649414 70.20605469 24.64892578 C65.5141762 23.26877826 60.75330931 22.14638636 56 21 C56 20.34 56 19.68 56 19 C54.329375 19.061875 54.329375 19.061875 52.625 19.125 C47.60098664 19.14300722 42.8781803 18.11958236 38 17 C38 16.34 38 15.68 38 15 C33.71 15 29.42 15 25 15 C25 14.34 25 13.68 25 13 C24.278125 12.855625 23.55625 12.71125 22.8125 12.5625 C15 11 15 11 12.3125 10.375 C9.98135781 9.76572985 9.98135781 9.76572985 8 11 C8 10.01 8 9.02 8 8 C6.865625 7.690625 5.73125 7.38125 4.5625 7.0625 C1 6 1 6 0 5 C-0.04063832 3.33382885 -0.042721 1.66611905 0 0 Z " fill="#5C6063" transform="translate(244,89)"/>
<path d="M0 0 C0.59167969 0.64324219 1.18335938 1.28648437 1.79296875 1.94921875 C4.69736655 4.64799547 6.8541109 4.78249331 10.75 5.25 C11.92046875 5.39953125 13.0909375 5.5490625 14.296875 5.703125 C15.18890625 5.80109375 16.0809375 5.8990625 17 6 C17 6.99 17 7.98 17 9 C17.99 9 18.98 9 20 9 C20 9.66 20 10.32 20 11 C18.72125 11.226875 17.4425 11.45375 16.125 11.6875 C12.76942281 12.49374124 12.76942281 12.49374124 10.5625 15.0625 C10.2840625 16.5165625 10.2840625 16.5165625 10 18 C9.78730469 18.90878906 9.78730469 18.90878906 9.5703125 19.8359375 C8.42980375 26.09709778 9.78044943 31.56224412 11.30859375 37.66796875 C11.97654525 40.88696664 12.12425636 43.7246023 12 47 C9.0625 46.25 9.0625 46.25 6 45 C4.45781752 41.91563503 4.92278089 38.39764096 5 35 C4.62875 35.515625 4.2575 36.03125 3.875 36.5625 C2 38 2 38 -1.1171875 37.58984375 C-2.06851563 37.39519531 -3.01984375 37.20054687 -4 37 C-4.25394531 36.02160156 -4.50789063 35.04320312 -4.76953125 34.03515625 C-7.28412673 24.33243204 -7.28412673 24.33243204 -10.37109375 14.80078125 C-11 13 -11 13 -11.6875 10.0625 C-13.32318565 7.49213684 -14.23837315 7.42818105 -17.125 6.6875 C-18.40375 6.460625 -19.6825 6.23375 -21 6 C-21 5.01 -21 4.02 -21 3 C-6.20300752 -0.78947368 -6.20300752 -0.78947368 0 0 Z " fill="#242A2B" transform="translate(244,159)"/>
<path d="M0 0 C5.42322742 -0.36154849 9.85682214 0.6134885 15.05859375 2.1484375 C17.97893549 2.99390164 20.91863602 3.72269535 23.86987305 4.45117188 C28.25308894 5.58050933 32.57542426 6.92534786 36.90820312 8.23242188 C40.58718015 9.33047543 44.21182558 10.33501475 48 11 C48 11.66 48 12.32 48 13 C48.65846924 13.0424585 49.31693848 13.08491699 49.99536133 13.12866211 C57.07980657 13.66796028 63.78668974 14.90351733 70.6875 16.5625 C71.68716797 16.79646484 72.68683594 17.03042969 73.71679688 17.27148438 C76.14617428 17.84105133 78.57375133 18.41727652 81 19 C81 19.66 81 20.32 81 21 C83.31 21.33 85.62 21.66 88 22 C88.495 23.98 88.495 23.98 89 26 C86.39417629 26.93065133 85.35801776 27.14917407 82.75 26.0625 C81.88375 25.5365625 81.88375 25.5365625 81 25 C80.34 25.66 79.68 26.32 79 27 C78.401875 26.649375 77.80375 26.29875 77.1875 25.9375 C74.89186786 24.66695302 74.89186786 24.66695302 72 26 C71.505 25.01 71.505 25.01 71 24 C68.54426169 22.33360615 67.46339886 21.9189052 64.5 22.4375 C63.675 22.623125 62.85 22.80875 62 23 C58.64471501 22.59329879 56.47052418 21.29405817 54 19 C54 18.01 54 17.02 54 16 C53.34 16 52.68 16 52 16 C52 16.99 52 17.98 52 19 C49.36 18.67 46.72 18.34 44 18 C44 17.34 44 16.68 44 16 C42.8759375 16.21527344 41.751875 16.43054688 40.59375 16.65234375 C35.50222912 17.28878386 31.33619064 16.07085587 26.5 14.5625 C25.67757813 14.31951172 24.85515625 14.07652344 24.0078125 13.82617188 C22.00109265 13.23115611 19.99991684 12.61749569 18 12 C22.11695935 9.63046118 25.47568038 9.89502194 30 11 C32.01470098 11.97004121 34.01922047 12.96244882 36 14 C36.66 13.67 37.32 13.34 38 13 C38 12.34 38 11.68 38 11 C36.9275 11.04125 35.855 11.0825 34.75 11.125 C31.12234921 11.00407831 30.00916692 10.69265639 27 9 C24.6756398 8.30269194 22.34326294 7.63087848 20 7 C20 6.34 20 5.68 20 5 C19.2265625 5.04640625 18.453125 5.0928125 17.65625 5.140625 C10.50850733 5.38831905 6.10663759 4.75793083 0 1 C0 0.67 0 0.34 0 0 Z " fill="#585B5E" transform="translate(294,101)"/>
<path d="M0 0 C0.66 0.33 1.32 0.66 2 1 C1.979375 1.86625 1.95875 2.7325 1.9375 3.625 C1.99782744 6.88268183 2.42368884 9.79827134 3 13 C3.4375 16.9375 3.4375 16.9375 3.62109375 18.77734375 C3.98456734 21.2088942 3.98456734 21.2088942 5.03125 24.296875 C6.0441314 28.16869584 6.16781176 31.32329061 6.0625 35.3125 C5.9733008 41.29479326 6.21875282 47.07089193 7 53 C5.02 53 3.04 53 1 53 C-0.4881985 50.28478609 -1.30470884 48.03967565 -1.67016602 44.96923828 C-1.76689102 44.18807648 -1.86361603 43.40691467 -1.96327209 42.6020813 C-2.05918137 41.7665976 -2.15509064 40.93111389 -2.25390625 40.0703125 C-2.35968491 39.20236053 -2.46546356 38.33440857 -2.57444763 37.44015503 C-2.91078225 34.66922579 -3.23696542 31.89721686 -3.5625 29.125 C-3.89370598 26.36021292 -4.22699198 23.59568626 -4.56126404 20.83126831 C-4.7683153 19.11305217 -4.97322379 17.39457605 -5.17567444 15.67581177 C-5.6804044 11.42823604 -6.25304623 7.21365064 -7 3 C-5.5459375 2.5359375 -5.5459375 2.5359375 -4.0625 2.0625 C-1.15934208 1.30476658 -1.15934208 1.30476658 0 0 Z " fill="#465959" transform="translate(318,249)"/>
<path d="M0 0 C1.32 0 2.64 0 4 0 C3.67 3.96 3.34 7.92 3 12 C3.66 12 4.32 12 5 12 C4.95875 11.0925 4.9175 10.185 4.875 9.25 C5.06654991 4.26970228 5.06654991 4.26970228 7 2 C10.625 1.25 10.625 1.25 14 1 C14.33 1.66 14.66 2.32 15 3 C14.35576697 4.34431619 13.68543843 5.67621891 13 7 C12.46498058 9.17931373 12.46498058 9.17931373 12.1484375 11.4765625 C12.01953125 12.311875 11.890625 13.1471875 11.7578125 14.0078125 C11.56832031 15.30332031 11.56832031 15.30332031 11.375 16.625 C11.2409375 17.49640625 11.106875 18.3678125 10.96875 19.265625 C10.26290735 23.61436718 10.26290735 23.61436718 10 28 C9.34 28 8.68 28 8 28 C7.67 29.65 7.34 31.3 7 33 C5.26337666 29.77484237 4.1094072 26.48670834 3 23 C2.54625 24.093125 2.0925 25.18625 1.625 26.3125 C0.58357909 28.82137765 -0.46478044 30.69717067 -2 33 C-5.0390625 33.73046875 -5.0390625 33.73046875 -8.625 34.1875 C-9.81351562 34.34605469 -11.00203125 34.50460938 -12.2265625 34.66796875 C-13.14179688 34.77753906 -14.05703125 34.88710937 -15 35 C-14.67 34.01 -14.34 33.02 -14 32 C-13.2575 31.855625 -12.515 31.71125 -11.75 31.5625 C-9.47972261 31.09812508 -7.24240521 30.58136431 -5 30 C-5.061875 28.39125 -5.061875 28.39125 -5.125 26.75 C-5.00326778 23.09803349 -4.60206196 22.06224389 -3 19 C-1.15452956 12.80018427 -0.50977333 6.42582702 0 0 Z " fill="#2C3736" transform="translate(294,174)"/>
<path d="M0 0 C0.97839844 0.12568359 0.97839844 0.12568359 1.9765625 0.25390625 C6.88249144 0.82554104 11.13127185 1.15311982 16 0 C16.33 0.66 16.66 1.32 17 2 C19.18547909 2.47057709 19.18547909 2.47057709 21.75 2.625 C22.61109375 2.69976562 23.4721875 2.77453125 24.359375 2.8515625 C26.91303211 2.99511127 29.44295776 3.02759398 32 3 C32 3.66 32 4.32 32 5 C35.465 4.505 35.465 4.505 39 4 C37.02 6.97 37.02 6.97 35 10 C34.01257813 9.79503906 33.02515625 9.59007812 32.0078125 9.37890625 C27.63081672 8.75440786 24.06607828 9.71345162 19.875 10.9375 C15.5428633 12.16426394 11.55045803 13.29215003 7 13 C7 12.34 7 11.68 7 11 C6.01 11.33 5.02 11.66 4 12 C2.10529184 12.0685495 0.2083166 12.08480372 -1.6875 12.0625 C-2.68136719 12.05347656 -3.67523438 12.04445312 -4.69921875 12.03515625 C-5.83810547 12.01775391 -5.83810547 12.01775391 -7 12 C-7.33 10.68 -7.66 9.36 -8 8 C-5.03 7.34 -2.06 6.68 1 6 C0.01 5.67 -0.98 5.34 -2 5 C-2 4.01 -2 3.02 -2 2 C-1.34 2 -0.68 2 0 2 C0 1.34 0 0.68 0 0 Z " fill="#161918" transform="translate(204,148)"/>
<path d="M0 0 C5.58555933 3.68409232 5.58555933 3.68409232 6.69140625 7.1953125 C7.23969085 11.40114121 7.42623261 14.35267006 5 18 C4.01 18.33 3.02 18.66 2 19 C1.67 18.67 1.34 18.34 1 18 C-0.74522983 17.78916687 -2.49698733 17.63124159 -4.25 17.5 C-7.91128954 17.22292944 -11.41162583 16.78577537 -15 16 C-15.83927091 13.65004146 -16.06091226 12.26649114 -15.5 9.8125 C-13.21120194 7.04686901 -10.44786073 7.49255153 -7 7 C-5.81669817 5.13355094 -5.81669817 5.13355094 -5 3 C-2.375 1.25 -2.375 1.25 0 0 Z " fill="#727475" transform="translate(307,133)"/>
<path d="M0 0 C0.33 3.96 0.66 7.92 1 12 C-6.48110166 14.64038882 -13.05482014 15.68064144 -21 15 C-22.89128342 13.10871658 -22.2366852 10.42932274 -22.328125 7.91015625 C-22.16570312 6.96462891 -22.16570312 6.96462891 -22 6 C-19.25806426 4.17204284 -17.90239336 3.59450441 -14.8046875 2.9296875 C-14.00675781 2.75566406 -13.20882813 2.58164063 -12.38671875 2.40234375 C-11.55785156 2.22832031 -10.72898437 2.05429688 -9.875 1.875 C-9.03839844 1.69324219 -8.20179688 1.51148438 -7.33984375 1.32421875 C-1.19666353 0 -1.19666353 0 0 0 Z " fill="#5C5E5D" transform="translate(340,204)"/>
<path d="M0 0 C2.35953094 2.35953094 2.49141413 3.77895617 3 7 C3.66 7 4.32 7 5 7 C6.14806378 18.52164009 6.14806378 18.52164009 6 24 C6.66 24.33 7.32 24.66 8 25 C10.08034144 32.19130374 11.40604081 40.78187758 9 48 C9.66 48.33 10.32 48.66 11 49 C10.67 51.97 10.34 54.94 10 58 C8.68 58 7.36 58 6 58 C4.45103124 52.12221675 3.91840251 46.70842003 4.0625 40.625 C4.16737556 34.51754064 3.33927988 29.42963584 1.6640625 23.58203125 C0.82749259 20.3292506 0.86888438 17.34344825 1 14 C0.46735809 8.66627179 0.46735809 8.66627179 -2 4 C-1.34 4 -0.68 4 0 4 C0 2.68 0 1.36 0 0 Z " fill="#3C4A4A" transform="translate(319,244)"/>
<path d="M0 0 C0 1.32 0 2.64 0 4 C-0.66 4 -1.32 4 -2 4 C-2 4.99 -2 5.98 -2 7 C0.31 7 2.62 7 5 7 C1.27844229 9.11200529 -1.87047298 9.38104569 -6.07421875 9.65625 C-6.70972656 9.7696875 -7.34523437 9.883125 -8 10 C-8.33 10.66 -8.66 11.32 -9 12 C-11.29141286 12.05384521 -13.58318188 12.09272087 -15.875 12.125 C-17.78925781 12.15980469 -17.78925781 12.15980469 -19.7421875 12.1953125 C-23 12 -23 12 -25 10 C-27.58064129 9.85502015 -30.04943884 9.81322455 -32.625 9.875 C-33.33140625 9.88402344 -34.0378125 9.89304688 -34.765625 9.90234375 C-36.51056098 9.92592397 -38.25532295 9.96179539 -40 10 C-36.30173705 7.88398357 -32.34907646 6.90357867 -28.25 5.875 C-27.57195312 5.69324219 -26.89390625 5.51148438 -26.1953125 5.32421875 C-22.59511549 4.41390278 -19.34672585 3.90646788 -15.625 3.97265625 C-11.6523471 4.00262238 -10.8477892 3.54266893 -8 1 C-5.09746297 0.0022529 -3.17966366 0 0 0 Z " fill="#1A1D1D" transform="translate(204,146)"/>
<path d="M0 0 C0 3.63 0 7.26 0 11 C-3.80803726 12.26934575 -5.31850455 11.50037387 -9.125 10.3125 C-15.52869201 8.3806973 -21.94855785 6.79579945 -28.48876953 5.39575195 C-33.78584656 4.21415344 -33.78584656 4.21415344 -36 2 C-30.2308599 0.54934582 -25.41282897 -0.3446491 -19.5625 1.0625 C-13.98468947 2.34845055 -9.83439776 1.30743962 -4.43359375 -0.37109375 C-2 -1 -2 -1 0 0 Z " fill="#252628" transform="translate(376,106)"/>
<path d="M0 0 C2.5 1 2.5 1 5 2 C5.66 1.67 6.32 1.34 7 1 C7 1.66 7 2.32 7 3 C8.98 2.34 10.96 1.68 13 1 C15.56283148 2.89426674 16.00256962 4.01191368 16.6875 7.1875 C17.01339165 11.16337813 17.06993884 15.01348609 17 19 C19.64 19.33 22.28 19.66 25 20 C25 20.33 25 20.66 25 21 C21.37 21.33 17.74 21.66 14 22 C14.33 21.34 14.66 20.68 15 20 C14.91348369 18.45386986 14.75997364 16.91090613 14.5625 15.375 C14.46066406 14.55773437 14.35882813 13.74046875 14.25390625 12.8984375 C14.12822266 11.95871094 14.12822266 11.95871094 14 11 C13.34 12.32 12.68 13.64 12 15 C11.67 14.34 11.34 13.68 11 13 C10.67 14.65 10.34 16.3 10 18 C9.01 17.67 8.02 17.34 7 17 C6.67 17 6.34 17 6 17 C4.66431979 16.67619874 3.33076989 16.34342449 2 16 C2.66 15.67 3.32 15.34 4 15 C3.67 14.34 3.34 13.68 3 13 C2.34 13 1.68 13 1 13 C0.71125 12.030625 0.4225 11.06125 0.125 10.0625 C-0.64214682 6.89335797 -0.64214682 6.89335797 -3 6 C-2.625 3.5625 -2.625 3.5625 -2 1 C-1.34 0.67 -0.68 0.34 0 0 Z " fill="#36393B" transform="translate(349,121)"/>
<path d="M0 0 C8.89880258 0.97077846 17.43569705 3.02291222 26.0625 5.375 C27.18881836 5.66890625 27.18881836 5.66890625 28.33789062 5.96875 C35.91209397 8.03741747 42.96672343 10.70840429 48 17 C48 18.32 48 19.64 48 21 C47.34 21 46.68 21 46 21 C46 21.99 46 22.98 46 24 C45.34 24 44.68 24 44 24 C43.34 22.35 42.68 20.7 42 19 C41.236875 19.185625 40.47375 19.37125 39.6875 19.5625 C37 20 37 20 34 19 C33.67 21.97 33.34 24.94 33 28 C32.34 28 31.68 28 31 28 C30.94583812 26.39620659 30.90713362 24.79188594 30.875 23.1875 C30.85179687 22.29417969 30.82859375 21.40085938 30.8046875 20.48046875 C31 18 31 18 33 15 C33.61875 15.350625 34.2375 15.70125 34.875 16.0625 C35.57625 16.371875 36.2775 16.68125 37 17 C37.66 16.67 38.32 16.34 39 16 C39.66 16.33 40.32 16.66 41 17 C40.505 15.515 40.505 15.515 40 14 C36.48809191 12.77030122 36.48809191 12.77030122 33 12 C33 11.34 33 10.68 33 10 C31.783125 9.896875 30.56625 9.79375 29.3125 9.6875 C21.7328189 8.84531321 13.7891906 7.58029526 7 4 C5.34259285 3.62331656 3.67654729 3.27942455 2 3 C2 2.34 2 1.68 2 1 C1.34 0.67 0.68 0.34 0 0 Z " fill="#343639" transform="translate(342,110)"/>
<path d="M0 0 C2.97 0.495 2.97 0.495 6 1 C6 1.66 6 2.32 6 3 C6.92619141 2.73123047 6.92619141 2.73123047 7.87109375 2.45703125 C14.49287349 0.7940272 18.78511418 1.20780492 25 4 C24.30859375 5.96484375 24.30859375 5.96484375 23 8 C20.78515625 8.50390625 20.78515625 8.50390625 18.0625 8.5625 C13.88835906 8.78132783 10.25622556 9.36561934 6.25 10.5625 C1.95490255 11.83192622 -1.54138523 12.29724098 -6 12 C-6.33 11.01 -6.66 10.02 -7 9 C-4.69 8.34 -2.38 7.68 0 7 C-0.33 6.34 -0.66 5.68 -1 5 C-0.72057545 3.32345271 -0.39171753 1.65391846 0 0 Z " fill="#161A19" transform="translate(151,140)"/>
<path d="M0 0 C0.66 0 1.32 0 2 0 C2.00257813 0.60328125 2.00515625 1.2065625 2.0078125 1.828125 C2.12949082 4.3428102 2.33739299 6.56764516 3 9 C5.84730711 11.56680314 5.84730711 11.56680314 9 13 C10 14 10 14 10.1875 16.4375 C10 19 10 19 8 21 C5.3125 21.6875 5.3125 21.6875 2 21 C-3.96057566 15.73337909 -6.20690425 9.75291557 -7 2 C-5.02 2 -3.04 2 -1 2 C-0.67 1.34 -0.34 0.68 0 0 Z " fill="#3F4E4D" transform="translate(247,194)"/>
<path d="M0 0 C2.97 0.33 5.94 0.66 9 1 C9.86766617 8.37516246 10.11479326 15.57670253 10 23 C7.69 22.67 5.38 22.34 3 22 C2.49363393 20.25183142 1.99515381 18.50137737 1.5 16.75 C1.2215625 15.77546875 0.943125 14.8009375 0.65625 13.796875 C0 11 0 11 0 7 C0.66 7 1.32 7 2 7 C1.34 4.69 0.68 2.38 0 0 Z " fill="#3E3F40" transform="translate(237,117)"/>
<path d="M0 0 C0.66 0.33 1.32 0.66 2 1 C1.979375 1.86625 1.95875 2.7325 1.9375 3.625 C1.91034202 6.92210681 1.91034202 6.92210681 2.5 9.8125 C3.04956598 13.31598313 3.03226685 16.6085431 2.9375 20.14453125 C2.78914184 22.01677555 2.78914184 22.01677555 4 23 C4.04092937 25.33297433 4.04241723 27.66705225 4 30 C2.35 30.33 0.7 30.66 -1 31 C-3.15428306 19.45919787 -3.15428306 19.45919787 -2.9375 14.8125 C-3.01471335 10.10248576 -4.30700756 6.35340913 -6 2 C-4.7934375 1.7834375 -4.7934375 1.7834375 -3.5625 1.5625 C-1.07896294 1.25864751 -1.07896294 1.25864751 0 0 Z " fill="#4A5E5C" transform="translate(318,249)"/>
<path d="M0 0 C4.875 2.625 4.875 2.625 6 6 C6.06970052 8.39490986 6.08448003 10.79167691 6.0625 13.1875 C6.05347656 14.45980469 6.04445312 15.73210937 6.03515625 17.04296875 C6.02355469 18.01878906 6.01195312 18.99460938 6 20 C4.02 20.99 4.02 20.99 2 22 C0.05859375 21.03515625 0.05859375 21.03515625 -2 19 C-2.73954437 16.16648201 -2.83338439 13.35515837 -2.9375 10.4375 C-2.99228516 9.65697266 -3.04707031 8.87644531 -3.10351562 8.07226562 C-3.21484375 5.80859375 -3.21484375 5.80859375 -3 2 C-2.01 1.34 -1.02 0.68 0 0 Z " fill="#676A69" transform="translate(249,120)"/>
<path d="M0 0 C2.7885289 -0.22107787 5.34653181 -0.28107535 8.125 -0.1875 C8.87910156 -0.17396484 9.63320312 -0.16042969 10.41015625 -0.14648438 C12.27374127 -0.11109985 14.13695978 -0.05729167 16 0 C16 0.66 16 1.32 16 2 C19.465 1.505 19.465 1.505 23 1 C21.02 3.97 21.02 3.97 19 7 C18.01257813 6.79503906 17.02515625 6.59007812 16.0078125 6.37890625 C11.63081672 5.75440786 8.06607828 6.71345162 3.875 7.9375 C-0.4571367 9.16426394 -4.44954197 10.29215003 -9 10 C-8.67 9.01 -8.34 8.02 -8 7 C-5.93359375 6.26953125 -5.93359375 6.26953125 -3.4375 5.8125 C-2.61121094 5.65394531 -1.78492188 5.49539062 -0.93359375 5.33203125 C-0.29550781 5.22246094 0.34257812 5.11289063 1 5 C0.01 4.34 -0.98 3.68 -2 3 C-1.34 2.01 -0.68 1.02 0 0 Z " fill="#0F1110" transform="translate(220,151)"/>
<path d="M0 0 C0.66 0 1.32 0 2 0 C2 1.32 2 2.64 2 4 C7.445 4.495 7.445 4.495 13 5 C10.13883735 7.86116265 6.98331645 7.76240654 3.125 8.1875 C2.36356689 8.27427002 1.60213379 8.36104004 0.81762695 8.45043945 C-6.70244631 9.21834261 -14.73810952 9.4315094 -22 7 C-22.33 6.34 -22.66 5.68 -23 5 C-23.99 5.495 -23.99 5.495 -25 6 C-25 4.68 -25 3.36 -25 2 C-16.75 2.66 -8.5 3.32 0 4 C0 2.68 0 1.36 0 0 Z " fill="#474B4C" transform="translate(298,209)"/>
<path d="M0 0 C0.33 0.99 0.66 1.98 1 3 C1.66 3 2.32 3 3 3 C3.33 2.34 3.66 1.68 4 1 C4.99 1 5.98 1 7 1 C8.32229189 3.64458379 8.09677194 5.67761301 8.0625 8.625 C8.05347656 9.62789062 8.04445313 10.63078125 8.03515625 11.6640625 C8.02355469 12.43492187 8.01195312 13.20578125 8 14 C8.66 14 9.32 14 10 14 C10 10.7 10 7.4 10 4 C10.33 4 10.66 4 11 4 C11.95261487 8.76307437 12.08333357 13.1666528 12 18 C10.54119891 17.85892253 9.08296449 17.71197585 7.625 17.5625 C6.40683594 17.44068359 6.40683594 17.44068359 5.1640625 17.31640625 C3 17 3 17 1 16 C0.68758545 13.28553021 0.48663408 10.66090639 0.375 7.9375 C0.33632813 7.17888672 0.29765625 6.42027344 0.2578125 5.63867188 C0.16326438 3.75952805 0.08053244 1.87979664 0 0 Z " fill="#242628" transform="translate(365,124)"/>
<path d="M0 0 C0 0.66 0 1.32 0 2 C1.32 2.33 2.64 2.66 4 3 C2.68 3 1.36 3 0 3 C-0.06058594 3.80824219 -0.12117188 4.61648437 -0.18359375 5.44921875 C-0.26738281 6.51785156 -0.35117187 7.58648437 -0.4375 8.6875 C-0.51871094 9.74324219 -0.59992188 10.79898438 -0.68359375 11.88671875 C-0.96451681 14.65086297 -1.40156852 17.28945741 -2 20 C-3.32 19.67 -4.64 19.34 -6 19 C-6.33 17.02 -6.66 15.04 -7 13 C-7.66 13 -8.32 13 -9 13 C-9.30839695 3.7480916 -9.30839695 3.7480916 -7 1 C-4.56968481 0.27090544 -2.52838375 0 0 0 Z " fill="#1E2323" transform="translate(292,171)"/>
<path d="M0 0 C1.32 0 2.64 0 4 0 C3.85962479 1.81293089 3.71255111 3.6253443 3.5625 5.4375 C3.48128906 6.44683594 3.40007812 7.45617187 3.31640625 8.49609375 C3 11 3 11 2 12 C1.24124712 15.45095437 0.58090934 18.91691681 -0.0859375 22.38671875 C-1.2360299 26.9330242 -2.6571401 30.6571401 -6 34 C-8.1640625 34.4140625 -8.1640625 34.4140625 -10.625 34.625 C-11.44226563 34.69976562 -12.25953125 34.77453125 -13.1015625 34.8515625 C-13.72804688 34.90054688 -14.35453125 34.94953125 -15 35 C-14.67 34.01 -14.34 33.02 -14 32 C-13.2575 31.855625 -12.515 31.71125 -11.75 31.5625 C-9.47972261 31.09812508 -7.24240521 30.58136431 -5 30 C-5.061875 28.39125 -5.061875 28.39125 -5.125 26.75 C-5.00326778 23.09803349 -4.60206196 22.06224389 -3 19 C-1.15452956 12.80018427 -0.50977333 6.42582702 0 0 Z " fill="#3C3E40" transform="translate(294,174)"/>
<path d="M0 0 C0.78246094 -0.02578125 1.56492187 -0.0515625 2.37109375 -0.078125 C5.04181509 0.32176911 5.88227439 1.19699122 7.5625 3.25 C6.9025 3.25 6.2425 3.25 5.5625 3.25 C6.3388932 6.3245356 6.3388932 6.3245356 8.5625 8.25 C6.2525 8.25 3.9425 8.25 1.5625 8.25 C4.5325 8.745 4.5325 8.745 7.5625 9.25 C7.5625 9.58 7.5625 9.91 7.5625 10.25 C-2.99558656 10.43451025 -2.99558656 10.43451025 -7.4375 9.25 C-8.33424777 6.73910624 -8.56922674 5.60464891 -7.625 3.0625 C-5.59947255 -0.02909454 -3.47677489 0.06850788 0 0 Z " fill="#656767" transform="translate(299.4375,139.75)"/>
<path d="M0 0 C2.31 0.33 4.62 0.66 7 1 C7 1.66 7 2.32 7 3 C10.465 4.485 10.465 4.485 14 6 C13.67 7.65 13.34 9.3 13 11 C8.15507803 12.51403812 4.7408989 11.36602172 0 10 C0 6.7 0 3.4 0 0 Z " fill="#6E7070" transform="translate(345,147)"/>
<path d="M0 0 C0.66 0 1.32 0 2 0 C5.34328358 15.97014925 5.34328358 15.97014925 3 23 C3.66 23.33 4.32 23.66 5 24 C4.67 26.97 4.34 29.94 4 33 C2.68 33 1.36 33 0 33 C-0.1972935 29.58382503 -0.38112295 26.16705407 -0.5625 22.75 C-0.61857422 21.78191406 -0.67464844 20.81382812 -0.73242188 19.81640625 C-0.78076172 18.88183594 -0.82910156 17.94726562 -0.87890625 16.984375 C-0.9260376 16.12553711 -0.97316895 15.26669922 -1.02172852 14.38183594 C-1.00057052 12.06253887 -0.62596484 10.22062811 0 8 C0.06456879 6.58465222 0.08611039 5.16662311 0.0625 3.75 C0.041875 2.5125 0.02125 1.275 0 0 Z " fill="#374041" transform="translate(325,269)"/>
<path d="M0 0 C0 3.63 0 7.26 0 11 C-3.93670488 12.31223496 -6.12488144 11.24296256 -10 10 C-10 8.02 -10 6.04 -10 4 C-11.32 3.67 -12.64 3.34 -14 3 C-11.20387283 1.13591522 -9.62830652 0.51163882 -6.4375 -0.1875 C-5.65246094 -0.36667969 -4.86742187 -0.54585938 -4.05859375 -0.73046875 C-2 -1 -2 -1 0 0 Z " fill="#1C1C1C" transform="translate(376,106)"/>
<path d="M0 0 C1.29407552 2.58815105 1.4792984 4.94192785 1.875 7.8125 C2.57130061 12.5758292 3.47668045 17.20047279 4.625 21.875 C5.72078965 26.41784655 6.32481865 30.34426596 6 35 C5.01 35.495 5.01 35.495 4 36 C3.34 33.69 2.68 31.38 2 29 C-4.6 27.68 -11.2 26.36 -18 25 C-18 24.67 -18 24.34 -18 24 C-10.86606248 24.51537952 -3.98187183 25.44005901 3 27 C2.6390625 25.85402344 2.278125 24.70804688 1.90625 23.52734375 C1.43698889 21.99755252 0.96826749 20.46759567 0.5 18.9375 C0.14228516 17.80924805 0.14228516 17.80924805 -0.22265625 16.65820312 C-1.63640205 11.992842 -2.44310912 7.9295889 -2 3 C-1.34 2.01 -0.68 1.02 0 0 Z " fill="#121416" transform="translate(230,89)"/>
<path d="M0 0 C0.66 0 1.32 0 2 0 C4.60120659 5.74433123 5.16688319 9.99759927 4.9765625 16.26953125 C5.00542666 19.6322059 5.67660524 22.58142098 6.48828125 25.828125 C8.20773654 33.12596576 8.1254189 40.5445434 8 48 C9.98 48 11.96 48 14 48 C14 48.66 14 49.32 14 50 C12.02 50 10.04 50 8 50 C6.5118015 47.28478609 5.69529116 45.03967565 5.32983398 41.96923828 C5.23310898 41.18807648 5.13638397 40.40691467 5.03672791 39.6020813 C4.94081863 38.7665976 4.84490936 37.93111389 4.74609375 37.0703125 C4.64031509 36.20236053 4.53453644 35.33440857 4.42555237 34.44015503 C4.08921775 31.66922579 3.76303458 28.89721686 3.4375 26.125 C3.10629402 23.36021292 2.77300802 20.59568626 2.43873596 17.83126831 C2.2316847 16.11305217 2.02677621 14.39457605 1.82432556 12.67581177 C1.3195956 8.42823604 0.74695377 4.21365064 0 0 Z " fill="#3F504F" transform="translate(311,252)"/>
<path d="M0 0 C0.33 0 0.66 0 1 0 C1.33 2.31 1.66 4.62 2 7 C2.66 7 3.32 7 4 7 C4 5.35 4 3.7 4 2 C4.33 2 4.66 2 5 2 C5.33 4.64 5.66 7.28 6 10 C6.33 10 6.66 10 7 10 C7.33 8.35 7.66 6.7 8 5 C8.33 5 8.66 5 9 5 C9 6.98 9 8.96 9 11 C9.66 11.33 10.32 11.66 11 12 C11 8.37 11 4.74 11 1 C11.33 1 11.66 1 12 1 C12 4.96 12 8.92 12 13 C12.66 13 13.32 13 14 13 C14 13.66 14 14.32 14 15 C8.25 16.125 8.25 16.125 6 15 C3.88316159 15.89163577 3.88316159 15.89163577 2 17 C1.34 15.68 0.68 14.36 0 13 C-2.64 13 -5.28 13 -8 13 C-5.16604069 10.67210485 -3.70488428 9.92622107 0 9 C0 6.03 0 3.06 0 0 Z " fill="#282B2C" transform="translate(348,127)"/>
<path d="M0 0 C1.375 2.0625 1.375 2.0625 2 4 C-0.35016471 4.58980968 -2.70101574 5.14665111 -5.0625 5.6875 C-5.71927734 5.85572266 -6.37605469 6.02394531 -7.05273438 6.19726562 C-12.50235045 7.4053086 -15.24655332 6.50344071 -20 4 C-19.67 3.34 -19.34 2.68 -19 2 C-16.26953125 1.11328125 -16.26953125 1.11328125 -12.8125 0.3125 C-11.68457031 0.04050781 -10.55664062 -0.23148438 -9.39453125 -0.51171875 C-5.86034771 -1.02008807 -3.41222953 -1.05181605 0 0 Z " fill="#3A4949" transform="translate(242,160)"/>
<path d="M0 0 C2.31 0.33 4.62 0.66 7 1 C6.29875 1.515625 5.5975 2.03125 4.875 2.5625 C2.47901449 4.59387902 0.98107565 6.29020081 -0.875 8.75 C-3.37482607 11.80317298 -3.66080764 11.96170409 -7.875 12.4375 C-8.90625 12.293125 -9.9375 12.14875 -11 12 C-12.60355101 8.49223216 -13.22036864 5.85645121 -13 2 C-6.375 2.75 -6.375 2.75 -3 5 C-2.01 4.34 -1.02 3.68 0 3 C0 2.01 0 1.02 0 0 Z " fill="#2C2E2F" transform="translate(291,128)"/>
<path d="M0 0 C1.17825358 0.90172468 2.34231577 1.82201502 3.5 2.75 C4.1496875 3.26046875 4.799375 3.7709375 5.46875 4.296875 C7 6 7 6 7 10 C6.34 10 5.68 10 5 10 C5 10.99 5 11.98 5 13 C4.34 13 3.68 13 3 13 C2.34 11.35 1.68 9.7 1 8 C-0.1446875 8.2784375 -0.1446875 8.2784375 -1.3125 8.5625 C-4 9 -4 9 -7 8 C-7.33 10.97 -7.66 13.94 -8 17 C-8.66 17 -9.32 17 -10 17 C-10.05416188 15.39620659 -10.09286638 13.79188594 -10.125 12.1875 C-10.14820313 11.29417969 -10.17140625 10.40085938 -10.1953125 9.48046875 C-10 7 -10 7 -8 4 C-7.071875 4.5259375 -7.071875 4.5259375 -6.125 5.0625 C-5.073125 5.5265625 -5.073125 5.5265625 -4 6 C-3.34 5.67 -2.68 5.34 -2 5 C-1.34 5.33 -0.68 5.66 0 6 C0 4.02 0 2.04 0 0 Z " fill="#3B3C3E" transform="translate(383,121)"/>
<path d="M0 0 C8.35010941 0.35010941 8.35010941 0.35010941 11.0625 3.0625 C11.371875 3.701875 11.68125 4.34125 12 5 C11.3125 6.9375 11.3125 6.9375 10 9 C7.375 9.75 7.375 9.75 5 10 C3.02 7.36 1.04 4.72 -1 2 C-0.67 1.34 -0.34 0.68 0 0 Z " fill="#4F6261" transform="translate(244,205)"/>
<path d="M0 0 C0.763125 0.20625 1.52625 0.4125 2.3125 0.625 C2.3125 2.935 2.3125 5.245 2.3125 7.625 C1.6525 7.625 0.9925 7.625 0.3125 7.625 C0.3125 8.615 0.3125 9.605 0.3125 10.625 C-1.35361905 10.667721 -3.02132885 10.66563832 -4.6875 10.625 C-6.57878342 8.73371658 -5.9241852 6.05432274 -6.015625 3.53515625 C-5.85320312 2.58962891 -5.85320312 2.58962891 -5.6875 1.625 C-2.6875 -0.375 -2.6875 -0.375 0 0 Z " fill="#494C4B" transform="translate(323.6875,208.375)"/>
<path d="M0 0 C2.5625 0.9375 2.5625 0.9375 4.5 3.625 C5.7747999 7.59937616 5.37090209 9.23458142 3.5625 12.9375 C0.79999964 14.31875018 -1.38481099 14.12829306 -4.4375 13.9375 C-5.0975 13.2775 -5.7575 12.6175 -6.4375 11.9375 C-6.4375 10.9475 -6.4375 9.9575 -6.4375 8.9375 C-5.7775 8.9375 -5.1175 8.9375 -4.4375 8.9375 C-3.4475 10.4225 -3.4475 10.4225 -2.4375 11.9375 C-1.1175 11.2775 0.2025 10.6175 1.5625 9.9375 C1.5625 8.2875 1.5625 6.6375 1.5625 4.9375 C0.2425 4.9375 -1.0775 4.9375 -2.4375 4.9375 C-3.4275 4.9375 -4.4175 4.9375 -5.4375 4.9375 C-5.0625 3 -5.0625 3 -4.4375 0.9375 C-2.4375 -0.0625 -2.4375 -0.0625 0 0 Z " fill="#323435" transform="translate(259.4375,142.0625)"/>
<path d="M0 0 C0.67804688 0.13277344 1.35609375 0.26554687 2.0546875 0.40234375 C8.35792677 1.59838777 14.60635885 2.47297535 21 3 C20.67 5.31 20.34 7.62 20 10 C19.67 9.484375 19.34 8.96875 19 8.4375 C15.76128132 6.10967095 12.84945965 7.38897466 9 8 C8.34 7.67 7.68 7.34 7 7 C7 6.01 7 5.02 7 4 C6.030625 3.71125 5.06125 3.4225 4.0625 3.125 C1 2 1 2 0 0 Z " fill="#2F3133" transform="translate(212,79)"/>
<path d="M0 0 C11.59090909 1.59090909 11.59090909 1.59090909 13 3 C14.32594105 3.36162029 15.65938457 3.69728039 17 4 C16.01 4.495 16.01 4.495 15 5 C15.33 6.98 15.66 8.96 16 11 C12.75 10.9375 12.75 10.9375 9 10 C7.71019876 8.30019572 6.88483278 6.58336259 5.9765625 4.65625 C5.02131637 2.70295089 5.02131637 2.70295089 2.25 1.5625 C1.5075 1.376875 0.765 1.19125 0 1 C0 0.67 0 0.34 0 0 Z " fill="#37393C" transform="translate(247,119)"/>
<path d="M0 0 C0.99 0 1.98 0 3 0 C3 0.66 3 1.32 3 2 C3.68964844 2.04898438 4.37929688 2.09796875 5.08984375 2.1484375 C11.23409469 2.63728051 17.0149077 3.52825599 23 5 C20.35261084 6.4606285 19.10551666 7 16 7 C16 6.34 16 5.68 16 5 C15.01 5.33 14.02 5.66 13 6 C13 5.34 13 4.68 13 4 C11.02 4.33 9.04 4.66 7 5 C7 5.99 7 6.98 7 8 C4.36 7.67 1.72 7.34 -1 7 C-0.67 4.69 -0.34 2.38 0 0 Z " fill="#505356" transform="translate(339,112)"/>
<path d="M0 0 C5.28 0 10.56 0 16 0 C15.34 1.65 14.68 3.3 14 5 C13.34 5 12.68 5 12 5 C11.67 4.34 11.34 3.68 11 3 C10.38125 3.185625 9.7625 3.37125 9.125 3.5625 C7 4 7 4 5 3 C4.67 6.63 4.34 10.26 4 14 C1.05568104 9.58352156 0.86037292 5.22369271 0 0 Z " fill="#415151" transform="translate(304,223)"/>
<path d="M0 0 C-1 2 -1 2 -4.09765625 3.0703125 C-5.41609808 3.43359262 -6.73799043 3.78450667 -8.0625 4.125 C-8.7433667 4.30240723 -9.4242334 4.47981445 -10.12573242 4.66259766 C-14.93917497 5.86064576 -19.07849577 6.5790005 -24 6 C-24.66 5.34 -25.32 4.68 -26 4 C-8.14350797 -0.59225513 -8.14350797 -0.59225513 0 0 Z " fill="#232927" transform="translate(172,148)"/>
<path d="M0 0 C0.99 0.33 1.98 0.66 3 1 C3.36644578 2.55966592 3.71760862 4.12292651 4.0625 5.6875 C4.25972656 6.55761719 4.45695312 7.42773438 4.66015625 8.32421875 C5.02032279 11.16001276 4.70909969 13.24789982 4 16 C2.68 15.67 1.36 15.34 0 15 C-1.33257403 4.44191344 -1.33257403 4.44191344 0 0 Z " fill="#2D3031" transform="translate(379,235)"/>
<path d="M0 0 C0 0.33 0 0.66 0 1 C-9.39570135 3.46733541 -18.19320833 5.76251512 -28 5 C-24.29809419 2.89144025 -20.34475188 1.86663222 -16.25 0.8125 C-15.57195312 0.62236328 -14.89390625 0.43222656 -14.1953125 0.23632812 C-9.1134193 -1.07279075 -5.16786761 -0.90959105 0 0 Z " fill="#252929" transform="translate(192,151)"/>
<path d="M0 0 C0.9075 0.33 1.815 0.66 2.75 1 C8.06183796 2.55521854 13.52020695 2.16196433 19 2 C17.328125 5.84375 17.328125 5.84375 14.375 7.25 C13.199375 7.62125 13.199375 7.62125 12 8 C12 7.01 12 6.02 12 5 C7.71 4.67 3.42 4.34 -1 4 C-0.67 2.68 -0.34 1.36 0 0 Z " fill="#171B1B" transform="translate(249,160)"/>
<path d="M0 0 C4.34464536 0.60825035 8.67551867 1.26167392 13 2 C10.875 4.5625 10.875 4.5625 8 7 C4.6875 6.8125 4.6875 6.8125 2 6 C2 5.34 2 4.68 2 4 C1.01 4 0.02 4 -1 4 C-0.67 2.68 -0.34 1.36 0 0 Z " fill="#5C6063" transform="translate(255,92)"/>
<path d="M0 0 C6.875 1.875 6.875 1.875 8 3 C8.04063832 4.66617115 8.042721 6.33388095 8 8 C5.36 8 2.72 8 0 8 C0 5.36 0 2.72 0 0 Z " fill="#050606" transform="translate(255,128)"/>
<path d="M0 0 C-7.73233293 5.15488862 -17.96041949 5.48911558 -27 5 C-23.52247803 2.68165202 -20.33996864 2.09987039 -16.3125 1.375 C-15.62994141 1.2409375 -14.94738281 1.106875 -14.24414062 0.96875 C-9.42866038 0.07749964 -4.89565562 -0.12088039 0 0 Z " fill="#242827" transform="translate(224,155)"/>
<path d="M0 0 C0.33 0 0.66 0 1 0 C1.36 5.4 1.36 5.4 -0.125 7.875 C-2.84218824 9.50531294 -4.89652746 9.33015665 -8 9 C-8.66 8.34 -9.32 7.68 -10 7 C-10 5.68 -10 4.36 -10 3 C-9.34 3 -8.68 3 -8 3 C-8 2.34 -8 1.68 -8 1 C-7.34 1 -6.68 1 -6 1 C-5.731875 1.639375 -5.46375 2.27875 -5.1875 2.9375 C-4.11332248 5.33131686 -4.11332248 5.33131686 -1 6 C-0.67 4.02 -0.34 2.04 0 0 Z " fill="#3C4142" transform="translate(318,158)"/>
<path d="M0 0 C0.33 0 0.66 0 1 0 C1 3.3 1 6.6 1 10 C5.29 10.33 9.58 10.66 14 11 C12 15 12 15 9 17 C6.8125 16.625 6.8125 16.625 5 16 C5.33 15.01 5.66 14.02 6 13 C4.02 12.34 2.04 11.68 0 11 C0 7.37 0 3.74 0 0 Z " fill="#111314" transform="translate(344,147)"/>
<path d="M0 0 C6.44374144 -0.42958276 11.85011111 1.19896111 18 3 C20.66136903 3.69044951 23.32961625 4.34500021 26 5 C18.93412243 7.29116327 9.68955288 6.25506973 3.125 2.9375 C2.09375 2.298125 1.0625 1.65875 0 1 C0 0.67 0 0.34 0 0 Z " fill="#505256" transform="translate(294,101)"/>
<path d="M0 0 C1.22589844 0.29197266 1.22589844 0.29197266 2.4765625 0.58984375 C3.41628906 0.82380859 3.41628906 0.82380859 4.375 1.0625 C4.705 2.3825 5.035 3.7025 5.375 5.0625 C2.76917629 5.99315133 1.73301776 6.21167407 -0.875 5.125 C-1.74125 4.5990625 -1.74125 4.5990625 -2.625 4.0625 C-3.285 4.7225 -3.945 5.3825 -4.625 6.0625 C-5.285 4.0825 -5.945 2.1025 -6.625 0.0625 C-3.99249612 -1.25375194 -2.82320944 -0.68563658 0 0 Z " fill="#5C5E60" transform="translate(377.625,121.9375)"/>
<path d="M0 0 C0.66 0.99 1.32 1.98 2 3 C1 4.625 1 4.625 -1 6 C-3.8158905 5.65009645 -6.2716858 4.84980278 -9 4 C-9 3.01 -9 2.02 -9 1 C-5.73842267 -0.08719244 -3.41589896 -0.29071481 0 0 Z " fill="#465756" transform="translate(232,161)"/>
<path d="M0 0 C4.92600023 1.92842086 10.14998807 2.67082111 15.3359375 3.6484375 C16.16738281 3.8134375 16.99882812 3.9784375 17.85546875 4.1484375 C18.6144043 4.2928125 19.37333984 4.4371875 20.15527344 4.5859375 C20.74211914 4.7715625 21.32896484 4.9571875 21.93359375 5.1484375 C22.26359375 5.8084375 22.59359375 6.4684375 22.93359375 7.1484375 C21.91265625 6.931875 21.91265625 6.931875 20.87109375 6.7109375 C17.57086293 6.07897841 14.26214949 5.60529809 10.93359375 5.1484375 C10.60359375 5.8084375 10.27359375 6.4684375 9.93359375 7.1484375 C9.58683594 6.68824219 9.24007813 6.22804688 8.8828125 5.75390625 C6.06529694 3.43326718 3.30295708 3.14620475 -0.25390625 2.4609375 C-2.16236328 2.08388672 -2.16236328 2.08388672 -4.109375 1.69921875 C-5.08519531 1.51746094 -6.06101562 1.33570312 -7.06640625 1.1484375 C-7.06640625 0.8184375 -7.06640625 0.4884375 -7.06640625 0.1484375 C-4.33013523 -0.63335422 -2.68001928 -1.10443139 0 0 Z " fill="#494C4E" transform="translate(269.06640625,92.8515625)"/>
<path d="M0 0 C1.58357459 0.31127516 3.16684993 0.62407289 4.75 0.9375 C5.63171875 1.11152344 6.5134375 1.28554687 7.421875 1.46484375 C14.29742765 2.8920418 14.29742765 2.8920418 17 6 C16.67 6.66 16.34 7.32 16 8 C10.36691325 6.56176509 5.26322777 4.45855991 0 2 C0 1.34 0 0.68 0 0 Z " fill="#64676B" transform="translate(316,108)"/>
<path d="M0 0 C-0.2757735 6.2049038 -1.10640794 10.10160999 -5 15 C-5.99 14.67 -6.98 14.34 -8 14 C-7.72285156 13.31292969 -7.44570313 12.62585938 -7.16015625 11.91796875 C-6.79792969 11.01691406 -6.43570312 10.11585938 -6.0625 9.1875 C-5.70285156 8.29417969 -5.34320313 7.40085938 -4.97265625 6.48046875 C-4.26386514 4.6729091 -3.6139753 2.84192591 -3 1 C-1 0 -1 0 0 0 Z " fill="#252729" transform="translate(297,192)"/>
<path d="M0 0 C1.32 0.66 2.64 1.32 4 2 C3.01 2.495 3.01 2.495 2 3 C1.53476937 4.89533342 1.53476937 4.89533342 1.375 7.0625 C1.189375 9.0115625 1.189375 9.0115625 1 11 C0.67 11 0.34 11 0 11 C0 13.31 0 15.62 0 18 C-0.66 18 -1.32 18 -2 18 C-2.24809955 15.3755252 -2.4741699 12.75232855 -2.6875 10.125 C-2.76033203 9.37863281 -2.83316406 8.63226563 -2.90820312 7.86328125 C-3.07421875 5.6953125 -3.07421875 5.6953125 -3 2 C-2.01 1.34 -1.02 0.68 0 0 Z " fill="#767879" transform="translate(249,120)"/>
<path d="M0 0 C0.99 0.33 1.98 0.66 3 1 C3.33 1.99 3.66 2.98 4 4 C4.66 3.01 5.32 2.02 6 1 C6 1.66 6 2.32 6 3 C6.66 3 7.32 3 8 3 C8 4.65 8 6.3 8 8 C4.86650268 9.04449911 4.01031744 8.93423645 1 8 C0.67 5.36 0.34 2.72 0 0 Z " fill="#0F1011" transform="translate(368,109)"/>
<path d="M0 0 C0.33 1.32 0.66 2.64 1 4 C1.33 3.01 1.66 2.02 2 1 C2.66 1.33 3.32 1.66 4 2 C3.67 2.99 3.34 3.98 3 5 C2.77548542 7.22574335 2.59217122 9.45581519 2.4375 11.6875 C2.35371094 12.86699219 2.26992187 14.04648438 2.18359375 15.26171875 C2.12300781 16.16535156 2.06242188 17.06898438 2 18 C-1.25313956 14.53283811 -1.35447683 11.97739049 -1.25 7.3125 C-1.23453125 6.15363281 -1.2190625 4.99476562 -1.203125 3.80078125 C-1 1 -1 1 0 0 Z " fill="#616363" transform="translate(249,122)"/>
<path d="M0 0 C2.1204284 4.24085681 2.29780112 6.40295349 2.3125 11.0625 C2.32925781 12.29097656 2.34601563 13.51945313 2.36328125 14.78515625 C2 18 2 18 -1 21 C-0.67 14.07 -0.34 7.14 0 0 Z " fill="#2A3433" transform="translate(284,184)"/>
<path d="M0 0 C6.06892629 -0.25287193 11.16200408 0.30167391 17 2 C13.76680553 4.15546298 11.83103042 4.68074747 8 5 C7.01 4.34 6.02 3.68 5 3 C3.34416775 2.30686092 1.67889021 1.63525576 0 1 C0 0.67 0 0.34 0 0 Z " fill="#343637" transform="translate(167,141)"/>
<path d="M0 0 C1.27875 0.103125 2.5575 0.20625 3.875 0.3125 C4.95394531 0.39951172 4.95394531 0.39951172 6.0546875 0.48828125 C8 1 8 1 10 4 C7 6 7 6 5 5.8125 C2.7185083 4.885644 1.5331196 3.91639951 0 2 C0 1.34 0 0.68 0 0 Z " fill="#5A706D" transform="translate(244,207)"/>
<path d="M0 0 C2.31 0 4.62 0 7 0 C7 1.32 7 2.64 7 4 C6.67 4.33 6.34 4.66 6 5 C3.66055264 4.71269945 1.3260857 4.38063221 -1 4 C-0.67 2.68 -0.34 1.36 0 0 Z " fill="#090B0D" transform="translate(186,146)"/>
<path d="M0 0 C2.64 0.33 5.28 0.66 8 1 C7.34 2.32 6.68 3.64 6 5 C3.36 5 0.72 5 -2 5 C-1.34 3.35 -0.68 1.7 0 0 Z " fill="#0B0E0D" transform="translate(168,143)"/>
<path d="M0 0 C2.31 0 4.62 0 7 0 C7.33 0.66 7.66 1.32 8 2 C7.67 2.99 7.34 3.98 7 5 C4.36 4.67 1.72 4.34 -1 4 C-0.67 2.68 -0.34 1.36 0 0 Z " fill="#5A5F61" transform="translate(233,87)"/>
<path d="M0 0 C1.32 0 2.64 0 4 0 C4.33 2.64 4.66 5.28 5 8 C3.35 8 1.7 8 0 8 C0 5.36 0 2.72 0 0 Z " fill="#4C615F" transform="translate(320,292)"/>
<path d="M0 0 C3.96 0.33 7.92 0.66 12 1 C11.01 2.485 11.01 2.485 10 4 C7.6171875 4.29296875 7.6171875 4.29296875 4.875 4.1875 C3.96492188 4.16042969 3.05484375 4.13335937 2.1171875 4.10546875 C1.41851562 4.07066406 0.71984375 4.03585938 0 4 C0 2.68 0 1.36 0 0 Z " fill="#2D2F30" transform="translate(341,211)"/>
<path d="M0 0 C0 0.33 0 0.66 0 1 C5.94 1.99 5.94 1.99 12 3 C11.01 3.66 10.02 4.32 9 5 C8.01 4.67 7.02 4.34 6 4 C4.10787263 3.77820215 2.21115528 3.59385985 0.3125 3.4375 C-0.68136719 3.35371094 -1.67523438 3.26992187 -2.69921875 3.18359375 C-3.83810547 3.09271484 -3.83810547 3.09271484 -5 3 C-5 2.34 -5 1.68 -5 1 C-5.66 0.67 -6.32 0.34 -7 0 C-3.98968256 -0.93423645 -3.13349732 -1.04449911 0 0 Z " fill="#161A1B" transform="translate(284,165)"/>
<path d="M0 0 C2.31 0.33 4.62 0.66 7 1 C6.67 2.32 6.34 3.64 6 5 C3.36 5 0.72 5 -2 5 C-2 4.01 -2 3.02 -2 2 C-1.34 2 -0.68 2 0 2 C0 1.34 0 0.68 0 0 Z " fill="#0A0D0C" transform="translate(204,148)"/>
<path d="M0 0 C0.99 0 1.98 0 3 0 C3 1.98 3 3.96 3 6 C2.34 6 1.68 6 1 6 C0.67 8.64 0.34 11.28 0 14 C-0.33 14 -0.66 14 -1 14 C-1.33 10.37 -1.66 6.74 -2 3 C-1.34 3 -0.68 3 0 3 C0 2.01 0 1.02 0 0 Z " fill="#2C2E2F" transform="translate(388,131)"/>
<path d="M0 0 C0.66 0.99 1.32 1.98 2 3 C0.06374902 3.98163422 -1.87404539 4.96022454 -3.8125 5.9375 C-5.43091797 6.75541016 -5.43091797 6.75541016 -7.08203125 7.58984375 C-10 9 -10 9 -13 10 C-13 9.01 -13 8.02 -13 7 C-10.02588876 5.76078698 -7.14737182 4.69941596 -4 4 C-4 3.01 -4 2.02 -4 1 C-2.68 0.67 -1.36 0.34 0 0 Z " fill="#0B0F0E" transform="translate(118,104)"/>
<path d="M0 0 C0.66 0 1.32 0 2 0 C2.2361959 6.40353322 1.823321 11.84629161 0 18 C-0.33 18 -0.66 18 -1 18 C-1.18451025 5.33029613 -1.18451025 5.33029613 0 0 Z " fill="#2F3334" transform="translate(292,174)"/>
<path d="M0 0 C1.79398884 0.25499841 3.58520875 0.52953814 5.375 0.8125 C6.87160156 1.03873047 6.87160156 1.03873047 8.3984375 1.26953125 C11 2 11 2 13 5 C9.04 4.67 5.08 4.34 1 4 C0.67 2.68 0.34 1.36 0 0 Z " fill="#3B3E3F" transform="translate(234,82)"/>
<path d="M0 0 C1.32 0.66 2.64 1.32 4 2 C4 3.65 4 5.3 4 7 C2.68 7.33 1.36 7.66 0 8 C-0.38063221 5.6739143 -0.71269945 3.33944736 -1 1 C-0.67 0.67 -0.34 0.34 0 0 Z " fill="#090B0C" transform="translate(258,145)"/>
<path d="M0 0 C2.1464753 0.11344376 4.29220592 0.24106345 6.4375 0.375 C8.22994141 0.47941406 8.22994141 0.47941406 10.05859375 0.5859375 C11.02925781 0.72257813 11.99992188 0.85921875 13 1 C13.33 1.66 13.66 2.32 14 3 C8.51053913 4.12029814 5.16569441 3.79217969 0 2 C0 1.34 0 0.68 0 0 Z " fill="#2D2F2E" transform="translate(204,146)"/>
<path d="M0 0 C1.32 0.99 2.64 1.98 4 3 C3.67 4.32 3.34 5.64 3 7 C3 6.01 3 5.02 3 4 C2.34 4 1.68 4 1 4 C1 7.3 1 10.6 1 14 C-1.58926331 11.41073669 -1.37398043 9.97294721 -1.625 6.375 C-1.69976562 5.37210937 -1.77453125 4.36921875 -1.8515625 3.3359375 C-1.90054687 2.56507812 -1.94953125 1.79421875 -2 1 C-1.34 0.67 -0.68 0.34 0 0 Z " fill="#3D4041" transform="translate(361,122)"/>
<path d="M0 0 C1.32 0.33 2.64 0.66 4 1 C4 1.99 4 2.98 4 4 C5.32 4.33 6.64 4.66 8 5 C7.67 5.66 7.34 6.32 7 7 C4.625 7.125 4.625 7.125 2 7 C0 5 0 5 -0.125 2.375 C-0.08375 1.59125 -0.0425 0.8075 0 0 Z " fill="#606467" transform="translate(244,89)"/>
<path d="M0 0 C0.66 0 1.32 0 2 0 C2.66 1.32 3.32 2.64 4 4 C4.66 4 5.32 4 6 4 C6 5.98 6 7.96 6 10 C4.68 10 3.36 10 2 10 C0.39644899 6.49223216 -0.22036864 3.85645121 0 0 Z " fill="#3E4041" transform="translate(278,130)"/>
<path d="M0 0 C1.32 0 2.64 0 4 0 C4 2.31 4 4.62 4 7 C3.34 7 2.68 7 2 7 C1.67 7.66 1.34 8.32 1 9 C0.63877119 7.68942607 0.28619689 6.37646376 -0.0625 5.0625 C-0.35833984 3.96615234 -0.35833984 3.96615234 -0.66015625 2.84765625 C-0.77230469 2.23792969 -0.88445312 1.62820312 -1 1 C-0.67 0.67 -0.34 0.34 0 0 Z " fill="#3E413F" transform="translate(322,209)"/>
<path d="M0 0 C2.42945561 3.64418341 2.0828781 4.92923364 1.625 9.1875 C1.51414062 10.27417969 1.40328125 11.36085937 1.2890625 12.48046875 C1.19367188 13.31191406 1.09828125 14.14335937 1 15 C0.34 15 -0.32 15 -1 15 C-1.33 10.38 -1.66 5.76 -2 1 C-1.34 0.67 -0.68 0.34 0 0 Z " fill="#343637" transform="translate(371,125)"/>
<path d="M0 0 C0.99 0.33 1.98 0.66 3 1 C2.67 3.31 2.34 5.62 2 8 C1.01 8.33 0.02 8.66 -1 9 C-1.99 7.35 -2.98 5.7 -4 4 C-2.68 2.68 -1.36 1.36 0 0 Z " fill="#3A3D3F" transform="translate(361,259)"/>
<path d="M0 0 C2.2421875 0.171875 2.2421875 0.171875 4.875 0.75 C6.17050781 1.02070312 6.17050781 1.02070312 7.4921875 1.296875 C9.86497785 1.96214332 11.84556125 2.81756385 14 4 C10.19068824 5.26977059 8.18381007 4.52074507 4.3125 3.5625 C2.54326172 3.13130859 2.54326172 3.13130859 0.73828125 2.69140625 C-0.16535156 2.46324219 -1.06898438 2.23507813 -2 2 C-1.34 1.34 -0.68 0.68 0 0 Z " fill="#484D4F" transform="translate(248,88)"/>
<path d="M0 0 C2.31 0.33 4.62 0.66 7 1 C6 4 6 4 3 6 C0.3125 6.125 0.3125 6.125 -2 6 C-1.34 4.02 -0.68 2.04 0 0 Z " fill="#6F7172" transform="translate(293,141)"/>
<path d="M0 0 C2.97 0.495 2.97 0.495 6 1 C5.67 2.65 5.34 4.3 5 6 C3.02 6 1.04 6 -1 6 C-0.67 4.02 -0.34 2.04 0 0 Z " fill="#090E0C" transform="translate(151,140)"/>
<path d="M0 0 C5.28 0.66 10.56 1.32 16 2 C16 2.33 16 2.66 16 3 C10.62374766 3.84888195 6.34629602 4.0024305 1 3 C0.67 2.01 0.34 1.02 0 0 Z " fill="#2E2F32" transform="translate(220,148)"/>
<path d="M0 0 C2.49118953 3.7367843 2.2065226 5.74451819 2.125 10.1875 C2.10695312 11.45980469 2.08890625 12.73210937 2.0703125 14.04296875 C2.03550781 15.50669922 2.03550781 15.50669922 2 17 C1.67 17 1.34 17 1 17 C0.67 13.37 0.34 9.74 0 6 C-0.66 6.66 -1.32 7.32 -2 8 C-1.125 1.125 -1.125 1.125 0 0 Z " fill="#7A7C7D" transform="translate(253,123)"/>
<path d="M0 0 C1.41750563 0.11509661 2.83401169 0.24253658 4.25 0.375 C5.03890625 0.44460937 5.8278125 0.51421875 6.640625 0.5859375 C9.085877 1.01507113 10.84836903 1.78600638 13 3 C7.25 4.125 7.25 4.125 5 3 C2.88316159 3.89163577 2.88316159 3.89163577 1 5 C0.67 3.35 0.34 1.7 0 0 Z " fill="#343637" transform="translate(349,139)"/>
<path d="M0 0 C6.75 -0.125 6.75 -0.125 9 1 C8.67 1.99 8.34 2.98 8 4 C6.0625 4.75 6.0625 4.75 4 5 C3.34 4.67 2.68 4.34 2 4 C2 3.34 2 2.68 2 2 C1.34 2 0.68 2 0 2 C0 1.34 0 0.68 0 0 Z " fill="#62666A" transform="translate(278,100)"/>
<path d="M0 0 C0.66 0.33 1.32 0.66 2 1 C1.625 2.9375 1.625 2.9375 1 5 C0.01 5.495 0.01 5.495 -1 6 C-2.13350534 8.01669827 -2.13350534 8.01669827 -3 10 C-3.66 8.68 -4.32 7.36 -5 6 C-3.35 4.02 -1.7 2.04 0 0 Z " fill="#141515" transform="translate(320,204)"/>
<path d="M0 0 C1.32 0.33 2.64 0.66 4 1 C4 2.98 4 4.96 4 7 C2.68 6.67 1.36 6.34 0 6 C0 4.02 0 2.04 0 0 Z " fill="#090B0D" transform="translate(313,157)"/>
<path d="M0 0 C0.66 0.99 1.32 1.98 2 3 C3.96361864 3.57748803 3.96361864 3.57748803 6.125 3.6875 C7.40375 3.790625 8.6825 3.89375 10 4 C10 4.66 10 5.32 10 6 C10.99 6.33 11.98 6.66 13 7 C8.71 6.67 4.42 6.34 0 6 C-1 2 -1 2 0 0 Z " fill="#4B4E50" transform="translate(233,82)"/>
<path d="M0 0 C-3.7367843 2.49118953 -5.74451819 2.2065226 -10.1875 2.125 C-11.45980469 2.10695312 -12.73210937 2.08890625 -14.04296875 2.0703125 C-15.50669922 2.03550781 -15.50669922 2.03550781 -17 2 C-17 1.67 -17 1.34 -17 1 C-5.47835991 -1.48063781 -5.47835991 -1.48063781 0 0 Z " fill="#28302F" transform="translate(293,170)"/>
<path d="M0 0 C0.33 0 0.66 0 1 0 C1.33 3.96 1.66 7.92 2 12 C1.01 11.67 0.02 11.34 -1 11 C-1.14285714 3.57142857 -1.14285714 3.57142857 0 0 Z " fill="#666868" transform="translate(339,204)"/>
<path d="M0 0 C1.55078125 1.20703125 1.55078125 1.20703125 3 3 C2.85546875 5.26171875 2.85546875 5.26171875 2.1875 7.6875 C1.97480469 8.49574219 1.76210938 9.30398437 1.54296875 10.13671875 C1.27419922 11.05904297 1.27419922 11.05904297 1 12 C0.34 12 -0.32 12 -1 12 C-1.14285714 3.42857143 -1.14285714 3.42857143 0 0 Z " fill="#292F2F" transform="translate(298,174)"/>
<path d="M0 0 C2.97 0.495 2.97 0.495 6 1 C6.33 1.99 6.66 2.98 7 4 C4.69 4 2.38 4 0 4 C-0.33 3.34 -0.66 2.68 -1 2 C-0.67 1.34 -0.34 0.68 0 0 Z " fill="#434645" transform="translate(152,135)"/>
<path d="M0 0 C2.9375 0.3125 2.9375 0.3125 4.9375 2.3125 C4.6075 2.9725 4.2775 3.6325 3.9375 4.3125 C0.6375 3.9825 -2.6625 3.6525 -6.0625 3.3125 C-3.0625 0.3125 -3.0625 0.3125 0 0 Z " fill="#222426" transform="translate(163.0625,99.6875)"/>
<path d="M0 0 C1.2065625 0.0309375 1.2065625 0.0309375 2.4375 0.0625 C2.7675 0.7225 3.0975 1.3825 3.4375 2.0625 C4.0975 2.3925 4.7575 2.7225 5.4375 3.0625 C5.1075 3.7225 4.7775 4.3825 4.4375 5.0625 C1.4675 4.5675 1.4675 4.5675 -1.5625 4.0625 C-1.5625 3.4025 -1.5625 2.7425 -1.5625 2.0625 C-2.2225 1.7325 -2.8825 1.4025 -3.5625 1.0625 C-2.5625 0.0625 -2.5625 0.0625 0 0 Z " fill="#65696C" transform="translate(258.5625,93.9375)"/>
<path d="M0 0 C0.33 0 0.66 0 1 0 C1.33 2.97 1.66 5.94 2 9 C0.35 9 -1.3 9 -3 9 C-3 7.35 -3 5.7 -3 4 C-2.01 4.495 -2.01 4.495 -1 5 C-0.67 3.35 -0.34 1.7 0 0 Z " fill="#565857" transform="translate(337,208)"/>
<path d="M0 0 C2.31 0.66 4.62 1.32 7 2 C6.67 2.66 6.34 3.32 6 4 C5.34 4 4.68 4 4 4 C3.67 4.66 3.34 5.32 3 6 C1.5 4.6875 1.5 4.6875 0 3 C0 2.01 0 1.02 0 0 Z " fill="#434547" transform="translate(353,184)"/>
<path d="M0 0 C3.375 -0.1875 3.375 -0.1875 7 0 C7.66 0.99 8.32 1.98 9 3 C2.25 3.125 2.25 3.125 0 2 C0 1.34 0 0.68 0 0 Z " fill="#414346" transform="translate(226,147)"/>
<path d="M0 0 C0.33 1.32 0.66 2.64 1 4 C-2.28696233 4.79953138 -3.71023192 5.09658936 -7 4 C-7.33 3.01 -7.66 2.02 -8 1 C-7.071875 1.2784375 -7.071875 1.2784375 -6.125 1.5625 C-3.95839822 2.23686176 -3.95839822 2.23686176 -2 1 C-1.34 1.33 -0.68 1.66 0 2 C0 1.34 0 0.68 0 0 Z " fill="#484A4B" transform="translate(383,125)"/>
<path d="M0 0 C1.4540625 0.0309375 1.4540625 0.0309375 2.9375 0.0625 C1.9475 0.3925 0.9575 0.7225 -0.0625 1.0625 C-0.0625 1.7225 -0.0625 2.3825 -0.0625 3.0625 C0.9275 3.3925 1.9175 3.7225 2.9375 4.0625 C0.9575 5.0525 0.9575 5.0525 -1.0625 6.0625 C-2.0525 4.4125 -3.0425 2.7625 -4.0625 1.0625 C-3.0625 0.0625 -3.0625 0.0625 0 0 Z " fill="#3F4143" transform="translate(345.0625,303.9375)"/>
<path d="M0 0 C0.33 0 0.66 0 1 0 C1 3.96 1 7.92 1 12 C-1 9 -1 9 -1 7 C-1.66 6.67 -2.32 6.34 -3 6 C-2.67 5.34 -2.34 4.68 -2 4 C-1.34 4 -0.68 4 0 4 C0 2.68 0 1.36 0 0 Z " fill="#2F3738" transform="translate(321,237)"/>
<path d="M0 0 C0.66 0 1.32 0 2 0 C0.125 6.75 0.125 6.75 -1 9 C-1.99 8.67 -2.98 8.34 -4 8 C-2.68 5.36 -1.36 2.72 0 0 Z " fill="#1B1B1D" transform="translate(293,198)"/>
<path d="M0 0 C4.16138263 -0.08159574 7.9472484 0.01751476 12 1 C9.34271875 2.73745313 8.10399645 3.00831972 4.875 2.75 C2 2 2 2 0 0 Z " fill="#2E3233" transform="translate(276,126)"/>
<path d="M0 0 C4.02992782 0.55312735 8.02022924 1.1558062 12 2 C11.01 2.33 10.02 2.66 9 3 C9 3.66 9 4.32 9 5 C8.1646875 4.566875 8.1646875 4.566875 7.3125 4.125 C4.91505355 2.9586747 2.48403061 1.9660119 0 1 C0 0.67 0 0.34 0 0 Z " fill="#27292B" transform="translate(247,119)"/>
<path d="M0 0 C0.66 0.33 1.32 0.66 2 1 C2.40729228 3.32156597 2.74438677 5.6568787 3 8 C1.68 7.67 0.36 7.34 -1 7 C-0.67 4.69 -0.34 2.38 0 0 Z " fill="#6E7473" transform="translate(319,211)"/>
<path d="M0 0 C0 1.65 0 3.3 0 5 C-2.97 4.01 -5.94 3.02 -9 2 C-9 1.67 -9 1.34 -9 1 C-5.846632 0.29925156 -3.27275026 0 0 0 Z " fill="#6B6E6B" transform="translate(331,207)"/>
<path d="M0 0 C0 0.66 0 1.32 0 2 C1.32 2.33 2.64 2.66 4 3 C0.7 3.33 -2.6 3.66 -6 4 C-6 3.34 -6 2.68 -6 2 C-2.25 0 -2.25 0 0 0 Z " fill="#090E0F" transform="translate(292,171)"/>
<path d="M0 0 C-0.33 0.66 -0.66 1.32 -1 2 C-4.63 2 -8.26 2 -12 2 C-12 1.67 -12 1.34 -12 1 C-10.56496445 0.63597631 -9.12683494 0.28413409 -7.6875 -0.0625 C-6.88699219 -0.25972656 -6.08648437 -0.45695313 -5.26171875 -0.66015625 C-3 -1 -3 -1 0 0 Z " fill="#262929" transform="translate(193,156)"/>
<path d="M0 0 C0.66 0 1.32 0 2 0 C2.66 0.99 3.32 1.98 4 3 C5.32 2.67 6.64 2.34 8 2 C7.67 2.99 7.34 3.98 7 5 C4.625 5.125 4.625 5.125 2 5 C1.34 4.34 0.68 3.68 0 3 C0 2.01 0 1.02 0 0 Z " fill="#4F5152" transform="translate(253,151)"/>
<path d="M0 0 C0.66 0 1.32 0 2 0 C2 2.31 2 4.62 2 7 C1.01 7.495 1.01 7.495 0 8 C-0.38063221 5.6739143 -0.71269945 3.33944736 -1 1 C-0.67 0.67 -0.34 0.34 0 0 Z " fill="#191B1C" transform="translate(234,117)"/>
<path d="M0 0 C0 0.66 0 1.32 0 2 C0.66 2 1.32 2 2 2 C2 2.66 2 3.32 2 4 C-2.455 3.01 -2.455 3.01 -7 2 C-3 0 -3 0 0 0 Z " fill="#131617" transform="translate(347,107)"/>
<path d="M0 0 C-0.6875 1.9375 -0.6875 1.9375 -2 4 C-4.625 4.75 -4.625 4.75 -7 5 C-7 4.34 -7 3.68 -7 3 C-2.61538462 0 -2.61538462 0 0 0 Z " fill="#485B59" transform="translate(256,210)"/>
<path d="M0 0 C1.65 0 3.3 0 5 0 C5 0.99 5 1.98 5 3 C3.02 3.66 1.04 4.32 -1 5 C-0.67 3.35 -0.34 1.7 0 0 Z " fill="#404C4A" transform="translate(301,176)"/>
<path d="M0 0 C2.31 0.33 4.62 0.66 7 1 C7 1.66 7 2.32 7 3 C4.69 3 2.38 3 0 3 C0 2.01 0 1.02 0 0 Z " fill="#565859" transform="translate(345,147)"/>
<path d="M0 0 C0 0.33 0 0.66 0 1 C-2.31 1.33 -4.62 1.66 -7 2 C-7 1.34 -7 0.68 -7 0 C-8.32 -0.33 -9.64 -0.66 -11 -1 C-6.99799622 -2.60080151 -3.95443764 -1.29279692 0 0 Z " fill="#4F5356" transform="translate(276,102)"/>
<path d="M0 0 C0.66 0.33 1.32 0.66 2 1 C2.99 1 3.98 1 5 1 C5 1.66 5 2.32 5 3 C2.64561267 4.42944945 1.51967567 5.08661261 -1.25 4.625 C-1.8275 4.41875 -2.405 4.2125 -3 4 C-2.34 3.67 -1.68 3.34 -1 3 C-1.33 2.34 -1.66 1.68 -2 1 C-1.34 0.67 -0.68 0.34 0 0 Z " fill="#2D2F31" transform="translate(355,292)"/>
<path d="M0 0 C0 0.66 0 1.32 0 2 C-2.25 2.6875 -2.25 2.6875 -5 3 C-7.3125 1.5625 -7.3125 1.5625 -9 0 C-5.52176885 -1.15941038 -3.54104422 -0.70820884 0 0 Z " fill="#414344" transform="translate(352,183)"/>
<path d="M0 0 C3.24208567 0.35049575 4.61527704 0.56221181 6.8125 3.0625 C7.204375 3.701875 7.59625 4.34125 8 5 C4.75791433 4.64950425 3.38472296 4.43778819 1.1875 1.9375 C0.795625 1.298125 0.40375 0.65875 0 0 Z " fill="#2F393A" transform="translate(240,159)"/>
<path d="M0 0 C1.9375 0.6875 1.9375 0.6875 4 2 C4.75 4.625 4.75 4.625 5 7 C4.01 6.34 3.02 5.68 2 5 C2 4.34 2 3.68 2 3 C1.34 3 0.68 3 0 3 C0 2.01 0 1.02 0 0 Z " fill="#333535" transform="translate(253,148)"/>
<path d="M0 0 C2.64 0 5.28 0 8 0 C8 0.99 8 1.98 8 3 C5.36 2.67 2.72 2.34 0 2 C0 1.34 0 0.68 0 0 Z " fill="#0A0A0B" transform="translate(147,121)"/>
<path d="M0 0 C0.66 0.66 1.32 1.32 2 2 C1.34 2.66 0.68 3.32 0 4 C-1.32 4 -2.64 4 -4 4 C-4.33 4.66 -4.66 5.32 -5 6 C-5 4.68 -5 3.36 -5 2 C-4.34 1.67 -3.68 1.34 -3 1 C-3 1.66 -3 2.32 -3 3 C-2.34 3 -1.68 3 -1 3 C-0.67 2.01 -0.34 1.02 0 0 Z " fill="#171C1A" transform="translate(109,107)"/>
<path d="M0 0 C0.33 2.97 0.66 5.94 1 9 C0.34 9 -0.32 9 -1 9 C-1 7.02 -1 5.04 -1 3 C-2.32 2.67 -3.64 2.34 -5 2 C-2 0 -2 0 0 0 Z " fill="#121213" transform="translate(367,107)"/>
<path d="M0 0 C2.475 0.495 2.475 0.495 5 1 C4.67 1.99 4.34 2.98 4 4 C3.01 4 2.02 4 1 4 C0.67 4.99 0.34 5.98 0 7 C0 4.69 0 2.38 0 0 Z " fill="#444648" transform="translate(119,77)"/>
<path d="M0 0 C2.9375 0.375 2.9375 0.375 6 1 C6.33 1.66 6.66 2.32 7 3 C4.69 3.33 2.38 3.66 0 4 C0 2.68 0 1.36 0 0 Z " fill="#393B3D" transform="translate(344,255)"/>
<path d="M0 0 C1.32 0 2.64 0 4 0 C4.33 1.65 4.66 3.3 5 5 C3.0625 4.1875 3.0625 4.1875 1 3 C0.67 2.01 0.34 1.02 0 0 Z " fill="#627A75" transform="translate(244,207)"/>
<path d="M0 0 C5.53846154 -0.36923077 5.53846154 -0.36923077 7.875 1.5 C8.24625 1.995 8.6175 2.49 9 3 C2.84765625 2.4140625 2.84765625 2.4140625 1 2 C0.67 1.34 0.34 0.68 0 0 Z " fill="#25292A" transform="translate(167,141)"/>
<path d="M0 0 C2.64 0 5.28 0 8 0 C8 0.99 8 1.98 8 3 C5.6568787 2.74438677 3.32156597 2.40729228 1 2 C0.67 1.34 0.34 0.68 0 0 Z " fill="#313334" transform="translate(255,127)"/>
<path d="M0 0 C0.33 0.66 0.66 1.32 1 2 C1.66 2 2.32 2 3 2 C3.33 1.34 3.66 0.68 4 0 C4 1.32 4 2.64 4 4 C2.35 4.33 0.7 4.66 -1 5 C-0.67 3.35 -0.34 1.7 0 0 Z " fill="#484A4C" transform="translate(367,122)"/>
<path d="M0 0 C0.99 0.33 1.98 0.66 3 1 C3 1.99 3 2.98 3 4 C1.35 4.33 -0.3 4.66 -2 5 C-1.34 3.35 -0.68 1.7 0 0 Z " fill="#525356" transform="translate(358,119)"/>
<path d="M0 0 C1.98 0.495 1.98 0.495 4 1 C3.67 2.65 3.34 4.3 3 6 C2.34 5.67 1.68 5.34 1 5 C1 4.34 1 3.68 1 3 C0.34 3 -0.32 3 -1 3 C-0.67 2.01 -0.34 1.02 0 0 Z " fill="#1D2020" transform="translate(348,106)"/>
<path d="M0 0 C1.32 0.33 2.64 0.66 4 1 C4 1.99 4 2.98 4 4 C1.36 3.67 -1.28 3.34 -4 3 C-2.68 2.67 -1.36 2.34 0 2 C0 1.34 0 0.68 0 0 Z " fill="#1E2022" transform="translate(152,98)"/>
<path d="M0 0 C1.32 0 2.64 0 4 0 C4 0.66 4 1.32 4 2 C4.99 2.33 5.98 2.66 7 3 C2.25 4.125 2.25 4.125 0 3 C0 2.01 0 1.02 0 0 Z " fill="#515659" transform="translate(253,96)"/>
<path d="M0 0 C2.97 0.495 2.97 0.495 6 1 C5.67 1.99 5.34 2.98 5 4 C3.35 4 1.7 4 0 4 C0 2.66666667 0 1.33333333 0 0 Z " fill="#242628" transform="translate(143,96)"/>
</svg>
