<?xml version="1.0" encoding="UTF-8"?>
<svg version="1.1" xmlns="http://www.w3.org/2000/svg" width="512" height="384">
<path d="M0 0 C1.75793979 0.17992524 1.75793979 0.17992524 3.55139351 0.36348534 C4.982834 0.53444246 6.41387064 0.70879952 7.84458923 0.88569641 C9.08114262 1.03604005 9.08114262 1.03604005 10.34267688 1.18942094 C17.68807914 2.09324748 25.02281833 3.07422191 32.35801697 4.05683899 C34.83289103 4.38573403 37.3078015 4.71435522 39.78274536 5.04272461 C47.16846886 6.02398502 54.55334601 7.01148853 61.93804726 8.00040463 C64.72344494 8.37330789 67.50890136 8.74577127 70.29435949 9.11822269 C82.5872267 10.76197042 94.87980775 12.40784098 107.17158413 14.05972767 C110.16829635 14.46242825 113.16501016 14.86511702 116.16172791 15.26777649 C116.90643745 15.36784265 117.65114699 15.46790881 118.41842348 15.57100727 C130.51100842 17.19551186 142.60532031 18.80676771 154.70039689 20.41260461 C167.13933604 22.06431479 179.57665427 23.72780953 192.01246792 25.40289229 C198.98668648 26.34200894 205.96151283 27.2759494 212.93818474 28.19668007 C219.49094388 29.06150457 226.04142056 29.94226228 232.59059334 30.83390999 C234.99489617 31.15862652 237.39993154 31.47797071 239.80570984 31.79156876 C243.0871672 32.22014317 246.36544553 32.66791929 249.64364624 33.12063599 C250.59782061 33.24059474 251.55199497 33.3605535 252.53508371 33.48414737 C257.99866925 34.26354046 261.56644888 35.3380646 265.84458923 38.88569641 C267.21958923 41.13569641 267.21958923 41.13569641 267.84458923 42.88569641 C268.50458923 40.90569641 269.16458923 38.92569641 269.84458923 36.88569641 C271.92785055 36.85860197 274.01121365 36.83925768 276.09458923 36.82319641 C277.25474548 36.81159485 278.41490173 36.79999329 279.61021423 36.78804016 C282.84458923 36.88569641 282.84458923 36.88569641 286.84458923 37.88569641 C286.84458923 40.85569641 286.84458923 43.82569641 286.84458923 46.88569641 C287.53762146 46.91655334 288.23065369 46.94741028 288.94468689 46.97920227 C302.11667796 47.73854305 315.15302157 49.68335904 328.21958923 51.44819641 C330.70912045 51.78126846 333.19870341 52.11395405 335.68833923 52.44624329 C341.74102664 53.25493681 347.79305649 54.06840969 353.84458923 54.88569641 C353.84458923 55.54569641 353.84458923 56.20569641 353.84458923 56.88569641 C354.66958923 56.93468079 355.49458923 56.98366516 356.34458923 57.03413391 C364.24969566 57.54584839 372.02019861 58.36915957 379.86021423 59.48335266 C382.67490108 59.82974323 385.35548479 59.87250322 388.18833923 59.78804016 C395.39781832 59.71605506 402.47065754 60.98681638 409.58601379 62.02357483 C426.6623588 64.48860457 443.66562549 66.67642021 460.84458923 63.88569641 C461.00958923 64.79319641 461.17458923 65.70069641 461.34458923 66.63569641 C462.40772621 70.50799826 464.42826103 73.22194014 466.78208923 76.44819641 C471.70490458 83.52418507 473.84458923 91.25775902 473.84458923 99.88569641 C475.49458923 100.21569641 477.14458923 100.54569641 478.84458923 100.88569641 C479.50458923 102.86569641 480.16458923 104.84569641 480.84458923 106.88569641 C479.65708923 108.38569641 479.65708923 108.38569641 477.84458923 109.88569641 C476.19458923 109.88569641 474.54458923 109.88569641 472.84458923 109.88569641 C473.83458923 115.16569641 474.82458923 120.44569641 475.84458923 125.88569641 C470.91864742 129.99064792 468.38347112 131.73444238 462.79771423 133.79585266 C460.32185526 135.17738197 459.77970141 136.23303127 458.84458923 138.88569641 C457.60329309 145.60540531 459.15782475 151.42963956 461.53208923 157.69819641 C472.15739638 185.82085278 477.60485057 220.83651078 475.84458923 250.88569641 C472.25998712 254.47029853 460.526951 252.95420758 455.59532166 252.9992218 C453.46356054 252.999067 451.33179432 252.99363211 449.20005798 252.98335266 C447.49635796 252.98123024 447.49635796 252.98123024 445.75823975 252.97906494 C442.18282775 252.97353318 438.60748183 252.96099413 435.03208923 252.94819641 C432.58612661 252.94317257 430.14016298 252.93861122 427.69419861 252.93452454 C421.74430683 252.92358624 415.79445276 252.90691791 409.84458923 252.88569641 C410.84458923 250.88569641 411.84458923 248.88569641 412.84458923 246.88569641 C412.71791015 244.29439249 412.50873668 241.76662311 412.22740173 239.19038391 C412.13862762 238.36545441 412.04985352 237.5405249 411.95838928 236.69059753 C410.5048072 224.07492666 408.22274567 211.57035568 406.07164001 199.05879211 C405.24955931 194.27624358 404.43114448 189.49308162 403.62001038 184.70866394 C403.19008996 182.17600237 402.75624115 179.64400365 402.31794739 177.11277771 C402.12419525 175.97323639 401.93044312 174.83369507 401.7308197 173.65962219 C401.55920319 172.66213959 401.38758667 171.66465698 401.21076965 170.63694763 C400.86166736 168.01401081 400.77617741 165.52774988 400.84458923 162.88569641 C399.75146423 163.52507141 398.65833923 164.16444641 397.53208923 164.82319641 C383.0564661 171.15909999 363.02042062 168.04698897 347.96177673 165.37397766 C340.45970057 160.100378 338.2051305 144.10350463 335.47544861 135.64131165 C334.75715206 133.42032546 334.03166677 131.20178444 333.30552673 128.98335266 C332.97891556 127.95843468 332.97891556 127.95843468 332.64570618 126.91281128 C331.6884033 123.99476168 331.04788695 122.08899413 328.84458923 119.88569641 C326.0090065 119.44971698 323.24537834 119.13441926 320.39146423 118.89350891 C319.5124646 118.81271088 318.63346497 118.73191284 317.72782898 118.64866638 C314.76769845 118.38173995 311.80655029 118.13145426 308.84458923 117.88569641 C307.79746765 117.79848328 306.75034607 117.71127014 305.67149353 117.62141418 C297.81461058 116.97380404 289.9549406 116.36448348 282.09458923 115.76069641 C279.72868806 115.5773058 277.36280254 115.39371322 274.99693298 115.20991516 C269.27968716 114.76581839 263.56214637 114.32583721 257.84458923 113.88569641 C257.84458923 106.95569641 257.84458923 100.02569641 257.84458923 92.88569641 C257.18458923 92.88569641 256.52458923 92.88569641 255.84458923 92.88569641 C255.84458923 91.23569641 255.84458923 89.58569641 255.84458923 87.88569641 C255.1056815 87.8959547 254.36677377 87.90621299 253.60547489 87.91678214 C246.63448382 87.9715953 239.80451435 87.66888542 232.86828613 87.0014801 C231.83250567 86.90629711 230.79672521 86.81111412 229.72955745 86.71304679 C226.29545986 86.39603843 222.86216284 86.07109726 219.42881775 85.74604797 C216.95247325 85.51565772 214.47608761 85.28570931 211.99966431 85.0561676 C205.30135714 84.43356494 198.60377196 83.80356266 191.90638852 83.17112446 C187.72133248 82.77593388 183.5361242 82.38237262 179.35088921 81.98908234 C167.74951193 80.89856031 156.14834372 79.80586679 144.54791355 78.70531082 C143.43767539 78.59998619 143.43767539 78.59998619 142.30500817 78.49253379 C141.56317577 78.42215687 140.82134338 78.35177996 140.05703121 78.27927041 C138.55400729 78.13668209 137.05098301 77.99409753 135.54795837 77.85151672 C134.80242102 77.78079121 134.05688367 77.7100657 133.28875428 77.63719699 C121.18225862 76.48913454 109.07435207 75.35673862 96.96576429 74.2309778 C84.51702314 73.0733637 72.06956817 71.90267401 59.62329239 70.71884131 C52.64157635 70.0550823 45.65943009 69.39697002 38.67582893 68.75331879 C32.11691349 68.14874293 25.5598622 67.52635232 19.00377083 66.89176178 C16.59566511 66.6615614 14.18697787 66.43735532 11.77772141 66.2195282 C8.49403929 65.9217212 5.21312172 65.60255525 1.93200684 65.27784729 C0.97423751 65.1961159 0.01646818 65.1143845 -0.97032446 65.0301764 C-6.17088257 64.48927611 -9.38318177 63.82456005 -13.15541077 59.88569641 C-16.49899512 54.51485333 -16.79296984 48.04834191 -17.03041077 41.88569641 C-17.06722961 40.96796448 -17.10404846 40.05023254 -17.14198303 39.10469055 C-17.48706412 25.64652819 -15.32059734 12.20811896 -6.88387394 1.23133564 C-4.43586181 -0.67448521 -3.06578687 -0.31930655 0 0 Z M452.84458923 67.88569641 C452.84458923 68.21569641 452.84458923 68.54569641 452.84458923 68.88569641 C454.49458923 68.88569641 456.14458923 68.88569641 457.84458923 68.88569641 C457.84458923 68.55569641 457.84458923 68.22569641 457.84458923 67.88569641 C456.19458923 67.88569641 454.54458923 67.88569641 452.84458923 67.88569641 Z M349.84458923 121.88569641 C349.41397451 127.95492655 350.68749746 133.33246191 352.15708923 139.19819641 C352.37042908 140.08442688 352.58376892 140.97065735 352.80357361 141.88374329 C353.45718099 144.5586559 354.14645659 147.2220893 354.84458923 149.88569641 C355.07452576 150.818172 355.30446228 151.75064758 355.54136658 152.71138 C355.77935974 153.60808411 356.01735291 154.50478821 356.26255798 155.42866516 C356.47033875 156.23714905 356.67811951 157.04563293 356.89219666 157.87861633 C357.69577664 160.01336805 357.69577664 160.01336805 359.68663025 161.1230011 C366.55012237 163.54879015 373.96280889 162.96226408 381.09458923 162.32319641 C381.96599548 162.2735675 382.83740173 162.2239386 383.73521423 162.17280579 C388.05175425 161.78787043 390.91985194 161.42881377 393.82896423 158.04585266 C398.2375187 151.1339911 398.68453859 145.91074786 397.34458923 137.82319641 C395.91759105 132.67359427 392.01278566 129.03936955 387.84458923 125.88569641 C385.69694375 125.13552824 385.69694375 125.13552824 383.84458923 124.88569641 C384.00314392 125.58179016 384.16169861 126.27788391 384.32505798 126.99507141 C385.95645654 136.0720258 385.37024242 143.84192596 380.84458923 151.88569641 C380.56486267 152.61014954 380.28513611 153.33460266 379.99693298 154.08100891 C378.84458923 155.88569641 378.84458923 155.88569641 376.71568298 156.53022766 C375.91259705 156.58565735 375.10951111 156.64108704 374.28208923 156.69819641 C373.07359314 156.80067688 373.07359314 156.80067688 371.84068298 156.90522766 C369.84458923 156.88569641 369.84458923 156.88569641 368.84458923 155.88569641 C369.44271423 155.63819641 370.04083923 155.39069641 370.65708923 155.13569641 C373.67306507 153.41228165 375.36431259 151.41595717 376.41099548 148.08100891 C377.90630773 140.51014868 377.07125564 133.81705388 373.84458923 126.88569641 C373.51458923 125.91632141 373.18458923 124.94694641 372.84458923 123.94819641 C369.36074262 120.35547959 364.6332804 120.96847964 359.84458923 120.88569641 C358.95771423 120.8586261 358.07083923 120.83155579 357.15708923 120.80366516 C353.18827226 120.35691256 353.18827226 120.35691256 349.84458923 121.88569641 Z M382.84458923 122.88569641 C383.84458923 124.88569641 383.84458923 124.88569641 383.84458923 124.88569641 Z " fill="#1B1C1D" transform="translate(26.155410766601563,57.11430358886719)"/>
<path d="M0 0 C1.17196426 0.11995457 2.34392853 0.23990913 3.55140686 0.36349869 C4.98318532 0.53468837 6.41454733 0.7093807 7.84558105 0.88668823 C9.08275155 1.03764899 9.08275155 1.03764899 10.34491539 1.19165945 C17.69527661 2.09993689 25.03483244 3.0861145 32.37487793 4.07369995 C34.85137248 4.4042316 37.32790552 4.73447492 39.80447388 5.06445312 C46.49854766 5.95751139 53.19196287 6.85539569 59.8851757 7.75487661 C64.068067 8.3169985 68.2511006 8.87805626 72.43415833 9.43893814 C84.0312594 10.99414395 95.62816821 12.55076762 107.22438812 14.11253166 C107.96401178 14.21214064 108.70363543 14.31174961 109.46567193 14.41437704 C110.20695622 14.51421079 110.94824052 14.61404455 111.71198797 14.71690357 C113.21387544 14.91917149 114.71576324 15.12143695 116.21765137 15.32369995 C117.33510914 15.47419266 117.33510914 15.47419266 118.47514182 15.62772562 C130.57517477 17.257009 142.6765552 18.87604558 154.77854151 20.49074923 C167.22270076 22.15125806 179.66568868 23.82031774 192.10754824 25.49797261 C199.08592999 26.43873009 206.06476336 27.37579606 213.04490662 28.30340195 C219.59959453 29.17451173 226.15263834 30.05727114 232.70469284 30.94800949 C235.11122649 31.27326573 237.51829367 31.59460163 239.92590714 31.91176605 C243.20709434 32.3446173 246.48608118 32.79143896 249.76489258 33.24188232 C251.20052339 33.42618972 251.20052339 33.42618972 252.66515684 33.6142205 C257.37617946 34.27711777 260.93283707 34.96315334 264.84558105 37.88668823 C263.97058105 43.76168823 263.97058105 43.76168823 262.84558105 44.88668823 C256.16333425 45.0751101 249.56532997 44.69808659 242.90808105 44.13668823 C241.96384277 44.07481323 241.01960449 44.01293823 240.04675293 43.94918823 C239.14634277 43.87184448 238.24593262 43.79450073 237.3182373 43.71481323 C236.10019409 43.62055054 236.10019409 43.62055054 234.85754395 43.52438354 C232.84558105 42.88668823 232.84558105 42.88668823 231.56604004 40.83493042 C231.32828857 40.1920105 231.09053711 39.54909058 230.84558105 38.88668823 C230.51558105 39.87668823 230.18558105 40.86668823 229.84558105 41.88668823 C228.85558105 39.41168823 228.85558105 39.41168823 227.84558105 36.88668823 C226.52558105 36.88668823 225.20558105 36.88668823 223.84558105 36.88668823 C223.84558105 37.87668823 223.84558105 38.86668823 223.84558105 39.88668823 C220.82404251 39.77198447 217.80379704 39.64524974 214.78308105 39.51168823 C213.51174316 39.46528198 213.51174316 39.46528198 212.21472168 39.41793823 C207.10869837 39.18136572 202.76318432 38.372097 197.84558105 36.88668823 C195.0028615 36.39784546 192.15008502 36.07259888 189.28308105 35.76168823 C188.55411621 35.67532104 187.82515137 35.58895386 187.07409668 35.49996948 C182.97539842 35.03513062 178.97803862 34.79529107 174.84558105 34.88668823 C174.84558105 34.22668823 174.84558105 33.56668823 174.84558105 32.88668823 C173.70282715 32.92149292 173.70282715 32.92149292 172.5369873 32.95700073 C166.82310461 33.05686884 161.73787432 32.85172497 156.2166748 31.38278198 C152.30648193 30.56466914 148.33478212 30.53772581 144.3494873 30.42575073 C141.84558105 29.88668823 141.84558105 29.88668823 140.4979248 27.84762573 C140.28265137 27.20051636 140.06737793 26.55340698 139.84558105 25.88668823 C138.85558105 27.37168823 138.85558105 27.37168823 137.84558105 28.88668823 C137.51558105 28.22668823 137.18558105 27.56668823 136.84558105 26.88668823 C136.18558105 27.54668823 135.52558105 28.20668823 134.84558105 28.88668823 C132.96057129 28.85421753 132.96057129 28.85421753 130.6541748 28.46090698 C129.7996875 28.32418579 128.9452002 28.1874646 128.06481934 28.04660034 C127.1468457 27.89070435 126.22887207 27.73480835 125.28308105 27.57418823 C116.9976643 26.26061186 108.89069191 25.46803799 100.50964355 25.19528198 C96.71053496 24.87531441 93.49826659 23.95255385 89.84558105 22.88668823 C86.91955564 22.39178492 83.98438485 22.06607859 81.03308105 21.76168823 C80.24208008 21.67749634 79.4510791 21.59330444 78.6361084 21.50656128 C68.1692463 20.38594612 68.1692463 20.38594612 57.84558105 21.88668823 C57.35058105 20.89668823 57.35058105 20.89668823 56.84558105 19.88668823 C50.90558105 19.55668823 44.96558105 19.22668823 38.84558105 18.88668823 C38.84558105 18.22668823 38.84558105 17.56668823 38.84558105 16.88668823 C36.86558105 17.54668823 34.88558105 18.20668823 32.84558105 18.88668823 C32.35058105 17.89668823 32.35058105 17.89668823 31.84558105 16.88668823 C31.18558105 17.54668823 30.52558105 18.20668823 29.84558105 18.88668823 C29.84558105 18.22668823 29.84558105 17.56668823 29.84558105 16.88668823 C28.75245605 16.92793823 27.65933105 16.96918823 26.53308105 17.01168823 C21.18354723 17.03089661 16.0671587 15.96171893 10.84558105 14.88668823 C10.84558105 14.22668823 10.84558105 13.56668823 10.84558105 12.88668823 C9.52558105 13.21668823 8.20558105 13.54668823 6.84558105 13.88668823 C6.84558105 16.85668823 6.84558105 19.82668823 6.84558105 22.88668823 C8.16558105 22.88668823 9.48558105 22.88668823 10.84558105 22.88668823 C22.72832388 23.70470314 34.28981105 26.09093742 45.84558105 28.88668823 C45.84558105 29.54668823 45.84558105 30.20668823 45.84558105 30.88668823 C46.88899658 30.87883301 46.88899658 30.87883301 47.95349121 30.87081909 C51.12584519 30.84994487 54.29818467 30.83699491 57.47058105 30.82418823 C58.56499512 30.81580933 59.65940918 30.80743042 60.7869873 30.79879761 C62.38220215 30.79396362 62.38220215 30.79396362 64.00964355 30.78903198 C65.47071533 30.78117676 65.47071533 30.78117676 66.96130371 30.77316284 C69.99496108 30.89256784 72.8563852 31.37348754 75.84558105 31.88668823 C77.00058105 31.86606323 78.15558105 31.84543823 79.34558105 31.82418823 C82.99680229 31.88938861 85.41124167 32.71901284 88.84558105 33.88668823 C91.22514342 34.21243801 93.59661488 34.44414327 95.9901123 34.64059448 C97.84558105 34.88668823 97.84558105 34.88668823 98.84558105 35.88668823 C100.32392322 35.93606918 101.80435282 35.92269988 103.28308105 35.88668823 C116.13278547 35.80314009 128.42002155 36.39611586 140.84558105 39.88668823 C140.84558105 38.23668823 140.84558105 36.58668823 140.84558105 34.88668823 C141.17558105 34.88668823 141.50558105 34.88668823 141.84558105 34.88668823 C142.17558105 37.19668823 142.50558105 39.50668823 142.84558105 41.88668823 C143.70107544 41.92427246 143.70107544 41.92427246 144.57385254 41.96261597 C147.14384262 42.07825372 149.71343633 42.20112448 152.28308105 42.32418823 C153.18091309 42.36350464 154.07874512 42.40282104 155.00378418 42.44332886 C155.85778809 42.48522339 156.71179199 42.52711792 157.5916748 42.57028198 C158.38243408 42.6069397 159.17319336 42.64359741 159.98791504 42.68136597 C161.84558105 42.88668823 161.84558105 42.88668823 162.84558105 43.88668823 C166.31161785 43.91882367 169.76746956 43.81800057 173.2322998 43.72653198 C176.86275318 43.88744938 179.44812229 44.6733101 182.84558105 45.88668823 C189.77994707 46.90334494 196.7682118 46.98431042 203.7635498 46.82418823 C205.84558105 46.88668823 205.84558105 46.88668823 206.84558105 47.88668823 C209.97287056 47.94704605 213.08426401 47.90712243 216.21081543 47.84762573 C219.58035048 47.80810039 222.62557762 47.82714983 225.84558105 48.88668823 C225.84558105 47.23668823 225.84558105 45.58668823 225.84558105 43.88668823 C227.16558105 44.21668823 228.48558105 44.54668823 229.84558105 44.88668823 C229.65995605 45.52606323 229.47433105 46.16543823 229.28308105 46.82418823 C229.13870605 47.50481323 228.99433105 48.18543823 228.84558105 48.88668823 C232.41072778 52.45183496 240.06494836 52.23395669 244.65808105 52.44918823 C251.64667395 52.78723468 251.64667395 52.78723468 253.84558105 53.88668823 C256.04994505 54.11619143 258.25950278 54.29744757 260.47058105 54.44918823 C261.65909668 54.53297729 262.8476123 54.61676636 264.07214355 54.70309448 C265.44499512 54.79397339 265.44499512 54.79397339 266.84558105 54.88668823 C266.95772949 54.09907104 267.06987793 53.31145386 267.1854248 52.49996948 C267.84558105 49.88668823 267.84558105 49.88668823 270.40808105 48.07418823 C271.21245605 47.68231323 272.01683105 47.29043823 272.84558105 46.88668823 C276.70665563 49.46073795 276.78877798 51.49689083 277.84558105 55.88668823 C279.11176773 56.00251251 280.37795441 56.11833679 281.68251038 56.2376709 C300.67943705 57.99771131 319.6114485 60.24177471 338.55236816 62.51754761 C342.73205207 63.01880743 346.91267818 63.51078468 351.09436035 63.99508667 C356.19722623 64.58614715 361.2979907 65.19292315 366.39764595 65.81105423 C368.32625139 66.04218101 370.25552274 66.26782289 372.18543816 66.48774338 C374.87100883 66.79492244 377.55339675 67.12228605 380.23596191 67.45455933 C381.02296478 67.53989426 381.80996765 67.62522919 382.62081909 67.71315002 C388.04748275 68.41560081 391.884575 69.92568218 395.84558105 73.88668823 C395.98904751 77.88653301 395.88770421 81.88498806 395.84558105 85.88668823 C383.44475502 85.26344495 371.1229893 84.09480931 358.77770996 82.78488159 C355.56023762 82.44545974 352.3416668 82.11812076 349.1229248 81.79098511 C347.06685802 81.57492158 345.01086537 81.35815119 342.95495605 81.14059448 C341.99772644 81.04468521 341.04049683 80.94877594 340.05426025 80.84996033 C339.1652301 80.75323532 338.27619995 80.65651031 337.36022949 80.55685425 C336.58242126 80.47548721 335.80461304 80.39412018 335.00323486 80.31028748 C332.67615898 79.85342661 330.90891907 79.03750594 328.84558105 77.88668823 C330.33058105 76.89668823 330.33058105 76.89668823 331.84558105 75.88668823 C331.18558105 74.89668823 330.52558105 73.90668823 329.84558105 72.88668823 C329.51558105 71.89668823 329.18558105 70.90668823 328.84558105 69.88668823 C328.18558105 69.88668823 327.52558105 69.88668823 326.84558105 69.88668823 C326.51558105 71.53668823 326.18558105 73.18668823 325.84558105 74.88668823 C324.85558105 74.55668823 323.86558105 74.22668823 322.84558105 73.88668823 C322.84558105 73.22668823 322.84558105 72.56668823 322.84558105 71.88668823 C323.50558105 71.55668823 324.16558105 71.22668823 324.84558105 70.88668823 C320.85665674 69.5570468 317.00539919 69.82065937 312.84558105 69.88668823 C311.85558105 69.88668823 310.86558105 69.88668823 309.84558105 69.88668823 C309.51558105 69.55668823 309.18558105 69.22668823 308.84558105 68.88668823 C308.62197426 71.81215263 308.62197426 71.81215263 309.84558105 73.88668823 C311.16558105 73.88668823 312.48558105 73.88668823 313.84558105 73.88668823 C313.51558105 72.89668823 313.18558105 71.90668823 312.84558105 70.88668823 C315.85589849 69.95245179 316.71208373 69.84218912 319.84558105 70.88668823 C319.84558105 72.20668823 319.84558105 73.52668823 319.84558105 74.88668823 C322.15558105 75.21668823 324.46558105 75.54668823 326.84558105 75.88668823 C326.51558105 76.87668823 326.18558105 77.86668823 325.84558105 78.88668823 C324.67052002 78.76551636 323.49545898 78.64434448 322.28479004 78.51950073 C317.90364029 78.06866635 313.52202539 77.6224995 309.14025879 77.17770386 C307.24787708 76.98495678 305.35562191 76.79096295 303.46350098 76.59567261 C300.73571989 76.31435448 298.00750744 76.03759952 295.2791748 75.76168823 C294.44035263 75.67419312 293.60153046 75.586698 292.73728943 75.49655151 C291.93698807 75.41646851 291.13668671 75.3363855 290.31213379 75.25387573 C289.61708237 75.18281616 288.92203094 75.11175659 288.20591736 75.0385437 C285.09183289 74.83819481 281.96610373 74.88668823 278.84558105 74.88668823 C278.84558105 79.50668823 278.84558105 84.12668823 278.84558105 88.88668823 C277.36058105 89.38168823 277.36058105 89.38168823 275.84558105 89.88668823 C276.48366699 90.08004761 277.12175293 90.27340698 277.7791748 90.47262573 C279.0186084 90.86321167 279.0186084 90.86321167 280.28308105 91.26168823 C281.10679199 91.51692261 281.93050293 91.77215698 282.7791748 92.03512573 C284.84558105 92.88668823 284.84558105 92.88668823 285.84558105 94.88668823 C285.14433105 94.74231323 284.44308105 94.59793823 283.72058105 94.44918823 C278.32209194 93.31600625 278.32209194 93.31600625 272.84558105 92.88668823 C272.51558105 93.87668823 272.18558105 94.86668823 271.84558105 95.88668823 C271.84558105 94.89668823 271.84558105 93.90668823 271.84558105 92.88668823 C270.36058105 93.38168823 270.36058105 93.38168823 268.84558105 93.88668823 C268.18558105 93.22668823 267.52558105 92.56668823 266.84558105 91.88668823 C264.91880155 91.90163571 264.91880155 91.90163571 262.84558105 92.32418823 C259.04721593 92.98750567 259.04721593 92.98750567 256.84558105 91.88668823 C256.51558105 90.89668823 256.18558105 89.90668823 255.84558105 88.88668823 C255.18368114 88.8246757 254.52178122 88.76266317 253.83982372 88.69877148 C245.73835198 87.93971646 237.6369062 87.18038454 229.53547072 86.42094254 C227.28939411 86.21040026 225.04331497 85.99988508 222.79723549 85.7893734 C205.4529748 84.16371707 188.10896948 82.53540245 170.76567531 80.89946413 C163.91873671 80.25362581 157.07176775 79.60810941 150.22480059 78.96257401 C148.49668416 78.79963195 146.76857004 78.63666543 145.0404582 78.47367477 C124.04739459 76.49368433 103.05301014 74.53031967 82.05421728 72.61198777 C81.34758855 72.54743278 80.64095981 72.48287778 79.91291809 72.41636658 C78.86202337 72.32036752 78.86202337 72.32036752 77.78989846 72.2224291 C69.06929472 71.42517367 60.34979359 70.6160314 51.63044643 69.80515575 C44.15932456 69.11123682 36.68704023 68.4322258 29.21358776 67.76390171 C24.62509317 67.34987739 20.03803271 66.92144507 15.45126915 66.48870277 C13.34675533 66.29312816 11.24167091 66.10358355 9.13602638 65.92058372 C6.29070239 65.67255723 3.44818545 65.40324227 0.60534668 65.12838745 C-0.63007102 65.02861619 -0.63007102 65.02861619 -1.89044666 64.92682934 C-6.77736395 64.42585645 -9.56131385 63.50126704 -13.15441895 59.88668823 C-16.4980033 54.51584515 -16.79197802 48.04933373 -17.02941895 41.88668823 C-17.06623779 40.9689563 -17.10305664 40.05122437 -17.14099121 39.10568237 C-17.48606506 25.6478021 -15.31989412 12.20868248 -6.88282013 1.23238945 C-4.4351186 -0.67334572 -3.06559466 -0.31887276 0 0 Z " fill="#111313" transform="translate(26.1544189453125,57.113311767578125)"/>
<path d="M0 0 C15.74487472 0.77904328 15.74487472 0.77904328 23 3 C23.50377768 5.26999825 24.00290019 7.54103003 24.5 9.8125 C24.7784375 11.07707031 25.056875 12.34164062 25.34375 13.64453125 C26 17 26 17 26 20 C27.65 20.33 29.3 20.66 31 21 C31.99 23.97 31.99 23.97 33 27 C31.8125 28.5 31.8125 28.5 30 30 C28.35 30 26.7 30 25 30 C25.99 35.28 26.98 40.56 28 46 C23.07405819 50.10495151 20.53888189 51.84874597 14.953125 53.91015625 C12.47726603 55.29168555 11.93511217 56.34733486 11 59 C9.75870386 65.7197089 11.31323551 71.54394315 13.6875 77.8125 C24.31280714 105.93515637 29.76026134 140.95081437 28 171 C24.41539789 174.58460211 12.68236177 173.06851116 7.75073242 173.11352539 C5.61897131 173.11337058 3.48720509 173.1079357 1.35546875 173.09765625 C0.21966873 173.0962413 -0.91613129 173.09482635 -2.08634949 173.09336853 C-5.66176148 173.08783677 -9.2371074 173.07529772 -12.8125 173.0625 C-15.25846263 173.05747616 -17.70442625 173.05291481 -20.15039062 173.04882812 C-26.1002824 173.03788983 -32.05013648 173.0212215 -38 173 C-37 171 -36 169 -35 167 C-35.12667908 164.40869608 -35.33585255 161.8809267 -35.6171875 159.3046875 C-35.75034866 158.06729324 -35.75034866 158.06729324 -35.88619995 156.80490112 C-37.33978203 144.18923024 -39.62184356 131.68465927 -41.77294922 119.1730957 C-42.59502992 114.39054717 -43.41344476 109.60738521 -44.22457886 104.82296753 C-44.65449927 102.29030596 -45.08834808 99.75830724 -45.52664185 97.2270813 C-45.72039398 96.08753998 -45.91414612 94.94799866 -46.11376953 93.77392578 C-46.28538605 92.77644318 -46.45700256 91.77896057 -46.63381958 90.75125122 C-46.98292187 88.1283144 -47.06841183 85.64205347 -47 83 C-47.52134521 83.29165039 -48.04269043 83.58330078 -48.57983398 83.88378906 C-54.98620495 87.13715042 -59.99235203 87.36992947 -67.0625 86.75 C-68.02349609 86.68425781 -68.98449219 86.61851562 -69.97460938 86.55078125 C-72.31869667 86.38751149 -74.65913407 86.20363709 -77 86 C-76.505 85.01 -76.505 85.01 -76 84 C-73.5234375 83.18359375 -73.5234375 83.18359375 -70.375 82.4375 C-69.28960937 82.17582031 -68.20421875 81.91414063 -67.0859375 81.64453125 C-64.68219284 81.14248331 -62.43751641 80.81127309 -60 80.625 C-56.82753998 80.24997689 -56.82753998 80.24997689 -54.6875 77.6875 C-50.49757815 71.0146615 -50.19315711 65.60953016 -51.5625 57.875 C-52.89194501 53.0928237 -56.16500186 49.99356395 -60 47 C-61.31341566 46.29490317 -62.64249648 45.61595975 -64 45 C-64 44.34 -64 43.68 -64 43 C-59.94691667 41.89210465 -55.92888626 41.66268733 -51.75 41.4375 C-51.00492187 41.39431641 -50.25984375 41.35113281 -49.4921875 41.30664062 C-47.661651 41.20103275 -45.83084824 41.10005799 -44 41 C-47.00778521 39.99740493 -49.53820647 39.69685358 -52.6875 39.4375 C-53.68136719 39.35371094 -54.67523438 39.26992187 -55.69921875 39.18359375 C-56.83810547 39.09271484 -56.83810547 39.09271484 -58 39 C-58.33 37.68 -58.66 36.36 -59 35 C-57.02 34.505 -57.02 34.505 -55 34 C-55 32.02 -55 30.04 -55 28 C-48.04958914 27.73381405 -41.76485645 28.3879491 -35 30 C-35.66 29.01 -36.32 28.02 -37 27 C-36.01 26.67 -35.02 26.34 -34 26 C-33.26676204 23.98491642 -33.26676204 23.98491642 -33 22 C-23.897872 22.51856202 -14.98717886 23.46232654 -6 25 C-5.731875 24.03449219 -5.46375 23.06898438 -5.1875 22.07421875 C-4.795625 21.05972656 -4.40375 20.04523438 -4 19 C-1 17.8125 -1 17.8125 2 17 C4.26092426 14.27395835 4.26092426 14.27395835 3.828125 11.66015625 C3.63734375 10.80292969 3.4465625 9.94570312 3.25 9.0625 C3.06953125 8.20785156 2.8890625 7.35320312 2.703125 6.47265625 C2.03380796 4.11889131 1.17232542 2.14098413 0 0 Z " fill="#17191A" transform="translate(474,137)"/>
<path d="M0 0 C1.32 0 2.64 0 4 0 C4 0.66 4 1.32 4 2 C5.66289063 2.09087891 5.66289063 2.09087891 7.359375 2.18359375 C8.8229282 2.26802951 10.28646925 2.35267599 11.75 2.4375 C12.47960938 2.47681641 13.20921875 2.51613281 13.9609375 2.55664062 C19.59914951 2.8898077 19.59914951 2.8898077 22.11816406 3.58227539 C24.07646653 4.22443813 24.07646653 4.22443813 26 3 C26.33 3.66 26.66 4.32 27 5 C28.175625 4.7215625 28.175625 4.7215625 29.375 4.4375 C32 4 32 4 34 5 C36.71262116 5.2322646 39.40773126 5.41936235 42.125 5.5625 C42.87910156 5.60568359 43.63320312 5.64886719 44.41015625 5.69335938 C46.27321888 5.7994832 48.13658524 5.90025001 50 6 C50.495 7.485 50.495 7.485 51 9 C51.78375 8.67 52.5675 8.34 53.375 8 C61.45972289 5.76973162 69.83001529 7.19172219 78 8.4375 C78.93972656 8.57220703 79.87945312 8.70691406 80.84765625 8.84570312 C87.71787309 9.85893654 87.71787309 9.85893654 90 11 C92.8148109 11.16118747 95.62038273 11.2799909 98.4375 11.375 C106.43788952 11.69347334 114.16790248 12.6556385 122.03100586 14.15966797 C124.00802978 14.51828207 126.00400436 14.76928576 128 15 C128.66 14.34 129.32 13.68 130 13 C130.33 13.33 130.66 13.66 131 14 C131.66 13.34 132.32 12.68 133 12 C133.99 14.475 133.99 14.475 135 17 C135.76183594 16.97679688 136.52367187 16.95359375 137.30859375 16.9296875 C143.01992142 16.82986405 148.09692369 17.05382825 153.62109375 18.48828125 C158.34256023 19.50390048 163.188891 19.69065627 168 20 C168 20.66 168 21.32 168 22 C168.99 21.81824219 169.98 21.63648437 171 21.44921875 C175.08100743 20.86929692 178.93775777 21.24051762 183 21.8125 C183.67289063 21.89564453 184.34578125 21.97878906 185.0390625 22.06445312 C188.25313959 22.48948069 191.26936879 23.08003211 194.37890625 24.00390625 C198.88323664 25.24296153 203.29681007 25.6944569 207.9375 26.125 C208.81212891 26.21136719 209.68675781 26.29773438 210.58789062 26.38671875 C212.72470254 26.59689697 214.86228122 26.79925518 217 27 C217 26.01 217 25.02 217 24 C218.32 24 219.64 24 221 24 C221.99 24.99 221.99 24.99 223 26 C223.33 25.34 223.66 24.68 224 24 C226 26 226 26 226 30 C227.01320313 29.98839844 228.02640625 29.97679688 229.0703125 29.96484375 C230.42187314 29.95545791 231.7734358 29.94635857 233.125 29.9375 C233.79015625 29.92912109 234.4553125 29.92074219 235.140625 29.91210938 C239.21805637 29.89212197 242.99426626 30.28786956 247 31 C248.62394748 31.0620775 250.25005297 31.08712041 251.875 31.0625 C252.65617188 31.05347656 253.43734375 31.04445313 254.2421875 31.03515625 C254.82226562 31.02355469 255.40234375 31.01195313 256 31 C256.12375 30.360625 256.2475 29.72125 256.375 29.0625 C256.684375 28.0415625 256.684375 28.0415625 257 27 C257.66 26.67 258.32 26.34 259 26 C259.66 27.32 260.32 28.64 261 30 C261.66 28.02 262.32 26.04 263 24 C265.08326131 23.97290556 267.16662441 23.95356127 269.25 23.9375 C270.41015625 23.92589844 271.5703125 23.91429688 272.765625 23.90234375 C276 24 276 24 280 25 C280 27.97 280 30.94 280 34 C280.69303223 34.03085693 281.38606445 34.06171387 282.10009766 34.09350586 C295.27208873 34.85284664 308.30843234 36.79766263 321.375 38.5625 C323.86453122 38.89557205 326.35411417 39.22825764 328.84375 39.56054688 C334.8964374 40.3692404 340.94846726 41.18271328 347 42 C347 42.66 347 43.32 347 44 C347.825 44.04898438 348.65 44.09796875 349.5 44.1484375 C357.40510643 44.66015198 365.17560938 45.48346316 373.015625 46.59765625 C375.83031184 46.94404682 378.51089556 46.98680681 381.34375 46.90234375 C388.55322909 46.83035865 395.62606831 48.10111997 402.74142456 49.13787842 C419.81776957 51.60290816 436.82103626 53.7907238 454 51 C454.185625 51.928125 454.37125 52.85625 454.5625 53.8125 C456.13580352 59.47639266 459.74253224 64.18347681 463 69 C459.82793042 70.01419912 457.78938039 69.92401293 454.5625 69.1875 C445.47176911 67.39105583 436.21988846 66.80721322 427 66 C420.51721298 65.43086643 414.03531932 64.85560962 407.55664062 64.24121094 C405.89165696 64.08412501 404.22630006 63.93093071 402.56054688 63.78222656 C400.35065844 63.58090591 398.14437833 63.35673128 395.9375 63.125 C394.09478516 62.94324219 394.09478516 62.94324219 392.21484375 62.7578125 C389 62 389 62 386.62890625 60.0546875 C380.80592937 55.50359413 372.01973794 55.51324377 364.86206055 54.68725586 C363.89181442 54.57152725 362.9215683 54.45579865 361.92192078 54.33656311 C358.74399962 53.95848013 355.56537108 53.58672457 352.38671875 53.21484375 C350.1670836 52.95152727 347.94750532 52.68773097 345.72798157 52.42347717 C339.90542899 51.7312085 334.08229714 51.04395304 328.25897217 50.35821533 C318.92113932 49.25822931 309.58397261 48.15266067 300.24726295 47.04318428 C296.98808911 46.65695015 293.72852765 46.27412136 290.46891785 45.8915863 C288.47625263 45.6556329 286.48360151 45.41956049 284.4909668 45.18334961 C283.58441345 45.07787811 282.67786011 44.97240662 281.74383545 44.86373901 C280.90992783 44.76428482 280.0760202 44.66483063 279.21684265 44.56236267 C278.4947848 44.47738997 277.77272696 44.39241728 277.02878857 44.30486965 C274.95320252 43.99296766 273.00075107 43.63952977 271 43 C269.734375 41.15234375 269.734375 41.15234375 268.75 38.9375 C268.41484375 38.20402344 268.0796875 37.47054687 267.734375 36.71484375 C267.49203125 36.14894531 267.2496875 35.58304688 267 35 C265.68 35 264.36 35 263 35 C262.11064623 38.303314 261.53725895 41.62294375 261 45 C260.67 44.01 260.34 43.02 260 42 C259.08476562 42.01160156 258.16953125 42.02320313 257.2265625 42.03515625 C255.44378906 42.04869141 255.44378906 42.04869141 253.625 42.0625 C252.44164062 42.07410156 251.25828125 42.08570313 250.0390625 42.09765625 C247 42 247 42 245 41 C242.64775141 40.84298959 240.29290221 40.72402592 237.9375 40.625 C231.8232352 40.30921233 226.68412575 39.2935946 221 37 C221.33 35.35 221.66 33.7 222 32 C221.01 31.67 220.02 31.34 219 31 C219.33 32.65 219.66 34.3 220 36 C218 37 218 37 216.30859375 36.5625 C212.09299165 35.53534822 207.72512694 35.98866093 203.41015625 36.0625 C200.4147744 36.00760182 197.9135302 35.60053441 195 35 C193.04213177 34.95732167 191.08291069 34.95931614 189.125 35 C183.60300122 35.04060293 178.48434924 34.93916198 173.26171875 32.96484375 C169.56673082 31.87183535 166.53062507 31.83604474 162.6875 31.9375 C160.45887952 31.99106141 158.22916821 32.02066778 156 32 C155.67 31.67 155.34 31.34 155 31 C153.608877 30.8798415 152.21235332 30.82057503 150.81640625 30.7890625 C149.97142578 30.76070312 149.12644531 30.73234375 148.25585938 30.703125 C146.46439933 30.65116097 144.67270035 30.60685405 142.88085938 30.5703125 C142.03458984 30.539375 141.18832031 30.5084375 140.31640625 30.4765625 C139.53724854 30.45674316 138.75809082 30.43692383 137.95532227 30.41650391 C136 30 136 30 134 27 C131.87803513 26.48865169 131.87803513 26.48865169 129.4375 26.4375 C124.45049333 26.08906285 119.85648671 25.17495646 115 24 C114.67 24.66 114.34 25.32 114 26 C114 25.34 114 24.68 114 24 C113.3387915 24.00523682 112.67758301 24.01047363 111.99633789 24.01586914 C109.01840149 24.03657656 106.04048018 24.04964012 103.0625 24.0625 C102.02158203 24.07087891 100.98066406 24.07925781 99.90820312 24.08789062 C98.91884766 24.09111328 97.92949219 24.09433594 96.91015625 24.09765625 C95.53549194 24.10551147 95.53549194 24.10551147 94.13305664 24.11352539 C92 24 92 24 91 23 C88.67258011 22.62761282 86.33764285 22.30163134 84 22 C77.11111111 21.11111111 77.11111111 21.11111111 76 20 C73.76925356 19.92760255 71.55507809 20.00350207 69.32421875 20.0625 C67 20 67 20 65.20727539 19.51586914 C62.56422608 18.89815393 60.07185492 18.78459034 57.359375 18.68359375 C55.75449219 18.62075195 55.75449219 18.62075195 54.1171875 18.55664062 C53.00601563 18.51732422 51.89484375 18.47800781 50.75 18.4375 C49.62335938 18.39431641 48.49671875 18.35113281 47.3359375 18.30664062 C44.55741046 18.20067985 41.77879609 18.09860858 39 18 C39 17.34 39 16.68 39 16 C37.845 15.87625 36.69 15.7525 35.5 15.625 C32.04142965 15.19719774 28.78118995 14.43431563 25.41015625 13.54296875 C13.58071223 10.44856146 13.58071223 10.44856146 2 12 C2 11.34 2 10.68 2 10 C1.34 10 0.68 10 0 10 C-0.19412181 8.52168779 -0.38012131 7.04230684 -0.5625 5.5625 C-0.66691406 4.73878906 -0.77132812 3.91507812 -0.87890625 3.06640625 C-0.91886719 2.38449219 -0.95882812 1.70257813 -1 1 C-0.67 0.67 -0.34 0.34 0 0 Z M446 55 C446 55.33 446 55.66 446 56 C447.65 56 449.3 56 451 56 C451 55.67 451 55.34 451 55 C449.35 55 447.7 55 446 55 Z " fill="#3C3D3F" transform="translate(33,70)"/>
<path d="M0 0 C0.33 0.66 0.66 1.32 1 2 C4.08818156 2.42877671 7.1124306 2.73520429 10.21704102 2.97119141 C12.15323906 3.13667078 14.08928145 3.30398005 16.025177 3.47296143 C17.51887251 3.60127728 17.51887251 3.60127728 19.04274368 3.73218536 C23.55388786 4.14072298 28.05158664 4.64897949 32.55053711 5.17333984 C33.87523435 5.32695197 33.87523435 5.32695197 35.22669315 5.48366737 C44.0556087 6.51387377 52.88145167 7.57048535 61.70678711 8.63085938 C65.88647102 9.13211919 70.06709713 9.62409644 74.2487793 10.10839844 C79.35164518 10.69945891 84.45240965 11.30623492 89.5520649 11.924366 C91.48067034 12.15549278 93.40994169 12.38113466 95.3398571 12.60105515 C98.02542777 12.9082342 100.7078157 13.23559782 103.39038086 13.56787109 C104.17738373 13.65320602 104.9643866 13.73854095 105.77523804 13.82646179 C111.20190169 14.52891257 115.03899395 16.03899395 119 20 C119.14346646 23.99984478 119.04212316 27.99829982 119 32 C106.59917397 31.37675671 94.27740825 30.20812108 81.93212891 28.89819336 C78.71465657 28.5587715 75.49608574 28.23143253 72.27734375 27.90429688 C70.22127697 27.68823335 68.16528432 27.47146296 66.109375 27.25390625 C65.15214539 27.15799698 64.19491577 27.06208771 63.2086792 26.96327209 C62.31964905 26.86654709 61.4306189 26.76982208 60.51464844 26.67016602 C59.73684021 26.58879898 58.95903198 26.50743195 58.15765381 26.42359924 C55.83057792 25.96673838 54.06333801 25.15081771 52 24 C52.99 23.34 53.98 22.68 55 22 C54.34 21.01 53.68 20.02 53 19 C52.505 17.515 52.505 17.515 52 16 C51.34 16 50.68 16 50 16 C49.505 18.475 49.505 18.475 49 21 C48.01 20.67 47.02 20.34 46 20 C46 19.34 46 18.68 46 18 C46.66 17.67 47.32 17.34 48 17 C44.01107569 15.67035856 40.15981813 15.93397114 36 16 C35.01 16 34.02 16 33 16 C32.505 15.505 32.505 15.505 32 15 C31.7763932 17.9254644 31.7763932 17.9254644 33 20 C34.32 20 35.64 20 37 20 C36.505 18.515 36.505 18.515 36 17 C39.01031744 16.06576355 39.86650268 15.95550089 43 17 C43 18.32 43 19.64 43 21 C45.31 21.33 47.62 21.66 50 22 C49.505 23.485 49.505 23.485 49 25 C33.16 23.35 17.32 21.7 1 20 C0.67 13.4 0.34 6.8 0 0 Z " fill="#181819" transform="translate(303,111)"/>
<path d="M0 0 C0.6717627 0.0021048 1.34352539 0.00420959 2.03564453 0.00637817 C15.63188317 0.05608027 29.24501095 0.69593708 42.6953125 2.78515625 C47.49817599 3.41322301 52.2872907 3.57277049 57.125 3.75 C63.87809826 3.99943044 70.54416774 4.40144371 77.25 5.25 C78.11753906 5.35441406 78.98507812 5.45882812 79.87890625 5.56640625 C82.56445312 5.90820312 82.56445312 5.90820312 85.25 6.25 C85.25 6.91 85.25 7.57 85.25 8.25 C85.78447754 8.08322754 86.31895508 7.91645508 86.86962891 7.74462891 C89.77343066 7.14123379 92.37152137 7.22320681 95.3359375 7.3359375 C96.51414062 7.37976563 97.69234375 7.42359375 98.90625 7.46875 C100.1334375 7.5203125 101.360625 7.571875 102.625 7.625 C103.84445312 7.66882813 105.06390625 7.71265625 106.3203125 7.7578125 C111.72339368 7.97016067 116.92345098 8.27181739 122.25 9.25 C119.06579155 11.37280563 118.04462745 11.53019537 114.36328125 11.6640625 C112.9565918 11.72207031 112.9565918 11.72207031 111.52148438 11.78125 C110.54501953 11.8121875 109.56855469 11.843125 108.5625 11.875 C107.57443359 11.91367188 106.58636719 11.95234375 105.56835938 11.9921875 C103.12909293 12.08645867 100.68983405 12.17206218 98.25 12.25 C98.97896484 13.78527344 98.97896484 13.78527344 99.72265625 15.3515625 C102.36715951 21.55063967 102.28798564 28.44405267 100.5234375 34.9140625 C98.62103837 39.53859373 96.31633362 43.22389126 92.25 46.25 C87.93645102 47.32838724 84.53598387 47.41890469 80.25 46.25 C82.58214148 45.04371992 84.74642139 44.0845262 87.25 43.25 C91.6092875 38.38771779 91.52681184 33.35148039 91.4765625 27.0703125 C91.14763005 22.97567058 89.929516 19.99661262 88.25 16.25 C87.26 13.775 87.26 13.775 86.25 11.25 C79.65 11.25 73.05 11.25 66.25 11.25 C66.22119199 17.42129873 66.22119199 17.42129873 67.23828125 23.17578125 C67.45033203 24.05556641 67.66238281 24.93535156 67.88085938 25.84179688 C68.10580078 26.73962891 68.33074219 27.63746094 68.5625 28.5625 C68.77583984 29.44873047 68.98917969 30.33496094 69.20898438 31.24804688 C70.69074277 37.31219841 72.40139819 43.28803825 74.25 49.25 C80.99153283 50.50841946 87.38484138 51.51404456 94.25 51.25 C93.755 52.24 93.755 52.24 93.25 53.25 C91.27 53.58 89.29 53.91 87.25 54.25 C92.53 54.58 97.81 54.91 103.25 55.25 C103.25 55.58 103.25 55.91 103.25 56.25 C94.24554374 57.28789683 85.65045635 57.24983595 76.625 56.4375 C75.67737793 56.35516113 74.72975586 56.27282227 73.75341797 56.18798828 C64.0423411 55.22747576 64.0423411 55.22747576 61.25 53.25 C56.02617627 45.09554897 53.83749924 34.17139282 50.88085938 25.00561523 C50.16256283 22.78462905 49.43707754 20.56608803 48.7109375 18.34765625 C48.49319672 17.66437759 48.27545593 16.98109894 48.05111694 16.27711487 C47.09381406 13.35906526 46.45329772 11.45329772 44.25 9.25 C41.40417755 8.81455488 38.62960703 8.49902516 35.765625 8.2578125 C34.88569885 8.17701447 34.00577271 8.09621643 33.09918213 8.01296997 C30.15036078 7.74679821 27.20052668 7.49652257 24.25 7.25 C23.21641357 7.16278687 22.18282715 7.07557373 21.11791992 6.98571777 C13.41390701 6.34023688 5.70729716 5.7297778 -2 5.125 C-4.31772326 4.94159473 -6.63543169 4.75800204 -8.953125 4.57421875 C-14.55191492 4.13065967 -20.15088096 3.68938406 -25.75 3.25 C-25.75 2.92 -25.75 2.59 -25.75 2.25 C-17.12486881 0.29116265 -8.82379004 -0.06200798 0 0 Z " fill="#2B3331" transform="translate(310.75,167.75)"/>
<path d="M0 0 C11.85181443 -0.60377168 23.31419925 1.22518066 35 3 C35 3.66 35 4.32 35 5 C35.825 5.04898438 36.65 5.09796875 37.5 5.1484375 C45.40510643 5.66015198 53.17560938 6.48346316 61.015625 7.59765625 C63.83031184 7.94404682 66.51089556 7.98680681 69.34375 7.90234375 C76.55322909 7.83035865 83.62606831 9.10111997 90.74142456 10.13787842 C107.81776957 12.60290816 124.82103626 14.7907238 142 12 C142.185625 12.928125 142.37125 13.85625 142.5625 14.8125 C144.13580352 20.47639266 147.74253224 25.18347681 151 30 C147.82793042 31.01419912 145.78938039 30.92401293 142.5625 30.1875 C133.47176911 28.39105583 124.21988846 27.80721322 115 27 C108.51721298 26.43086643 102.03531932 25.85560962 95.55664062 25.24121094 C93.89165696 25.08412501 92.22630006 24.93093071 90.56054688 24.78222656 C88.35065844 24.58090591 86.14437833 24.35673128 83.9375 24.125 C82.70902344 24.00382812 81.48054688 23.88265625 80.21484375 23.7578125 C77 23 77 23 74.62890625 21.0546875 C68.13390046 15.97835311 57.48655849 16.25295329 49.5390625 15.37890625 C46.93874648 15.08056234 44.33848765 14.78171965 41.73828125 14.48242188 C37.66365573 14.01729838 33.58848203 13.55762294 29.51220703 13.10717773 C25.56119969 12.6699387 21.61270695 12.21200397 17.6640625 11.75390625 C16.43910065 11.62254776 15.21413879 11.49118927 13.95205688 11.35585022 C12.25416519 11.15565529 12.25416519 11.15565529 10.52197266 10.95141602 C9.52541656 10.83975601 8.52886047 10.72809601 7.50210571 10.61305237 C4.76096053 9.94143185 3.74163448 9.17242933 2 7 C2.66 5.35 3.32 3.7 4 2 C2.68 2 1.36 2 0 2 C0 1.34 0 0.68 0 0 Z M134 16 C134 16.33 134 16.66 134 17 C135.65 17 137.3 17 139 17 C139 16.67 139 16.34 139 16 C137.35 16 135.7 16 134 16 Z " fill="#353638" transform="translate(345,109)"/>
<path d="M0 0 C1.32 0 2.64 0 4 0 C4 0.66 4 1.32 4 2 C5.66289063 2.09087891 5.66289063 2.09087891 7.359375 2.18359375 C8.8229282 2.26802951 10.28646925 2.35267599 11.75 2.4375 C12.47960938 2.47681641 13.20921875 2.51613281 13.9609375 2.55664062 C19.59914951 2.8898077 19.59914951 2.8898077 22.11816406 3.58227539 C24.07646653 4.22443813 24.07646653 4.22443813 26 3 C26.33 3.66 26.66 4.32 27 5 C28.175625 4.7215625 28.175625 4.7215625 29.375 4.4375 C32 4 32 4 34 5 C36.71262116 5.2322646 39.40773126 5.41936235 42.125 5.5625 C42.87910156 5.60568359 43.63320312 5.64886719 44.41015625 5.69335938 C46.27321888 5.7994832 48.13658524 5.90025001 50 6 C50.495 7.485 50.495 7.485 51 9 C51.78375 8.67 52.5675 8.34 53.375 8 C61.43678242 5.77606002 69.8429503 7.17169054 78 8.375 C79.40958984 8.56449219 79.40958984 8.56449219 80.84765625 8.7578125 C81.74355469 8.88671875 82.63945313 9.015625 83.5625 9.1484375 C84.36816406 9.26364746 85.17382812 9.37885742 86.00390625 9.49755859 C88 10 88 10 90 12 C89.34 12.66 88.68 13.32 88 14 C87.01 13.34 86.02 12.68 85 12 C84.67 12.66 84.34 13.32 84 14 C83.46375 13.835 82.9275 13.67 82.375 13.5 C79.52272492 12.89952104 76.90709356 12.87079584 74 13 C73.67 13.33 73.34 13.66 73 14 C77.1205746 15.99785435 80.45194365 16.17835515 85 16 C85 16.66 85 17.32 85 18 C90.95585636 18.95073697 96.8366291 19.30172797 102.859375 19.51757812 C107.033251 19.71579983 110.18387452 20.37676846 114 22 C116.42792152 22.43269889 118.86716505 22.80504963 121.3125 23.125 C122.56675781 23.29257813 123.82101563 23.46015625 125.11328125 23.6328125 C126.06589844 23.75398438 127.01851562 23.87515625 128 24 C128 24.66 128 25.32 128 26 C123.65535464 25.39174965 119.32448133 24.73832608 115 24 C114.67 24.66 114.34 25.32 114 26 C114 25.34 114 24.68 114 24 C113.3387915 24.00523682 112.67758301 24.01047363 111.99633789 24.01586914 C109.01840149 24.03657656 106.04048018 24.04964012 103.0625 24.0625 C102.02158203 24.07087891 100.98066406 24.07925781 99.90820312 24.08789062 C98.91884766 24.09111328 97.92949219 24.09433594 96.91015625 24.09765625 C95.53549194 24.10551147 95.53549194 24.10551147 94.13305664 24.11352539 C92 24 92 24 91 23 C88.67258011 22.62761282 86.33764285 22.30163134 84 22 C77.11111111 21.11111111 77.11111111 21.11111111 76 20 C73.76925356 19.92760255 71.55507809 20.00350207 69.32421875 20.0625 C67 20 67 20 65.20727539 19.51586914 C62.56422608 18.89815393 60.07185492 18.78459034 57.359375 18.68359375 C55.75449219 18.62075195 55.75449219 18.62075195 54.1171875 18.55664062 C53.00601563 18.51732422 51.89484375 18.47800781 50.75 18.4375 C49.62335938 18.39431641 48.49671875 18.35113281 47.3359375 18.30664062 C44.55741046 18.20067985 41.77879609 18.09860858 39 18 C39 17.34 39 16.68 39 16 C37.845 15.87625 36.69 15.7525 35.5 15.625 C32.04142965 15.19719774 28.78118995 14.43431563 25.41015625 13.54296875 C13.58071223 10.44856146 13.58071223 10.44856146 2 12 C2 11.34 2 10.68 2 10 C1.34 10 0.68 10 0 10 C-0.19412181 8.52168779 -0.38012131 7.04230684 -0.5625 5.5625 C-0.66691406 4.73878906 -0.77132812 3.91507812 -0.87890625 3.06640625 C-0.91886719 2.38449219 -0.95882812 1.70257813 -1 1 C-0.67 0.67 -0.34 0.34 0 0 Z " fill="#353739" transform="translate(33,70)"/>
<path d="M0 0 C1.15628906 0.02707031 2.31257813 0.05414063 3.50390625 0.08203125 C4.47199219 0.11683594 5.44007812 0.15164062 6.4375 0.1875 C8.40526199 0.1875 10.37280005 0.13519459 12.33984375 0.08203125 C22.31227485 -0.10893447 31.71465549 0.36600492 41.51928711 2.29614258 C43.4793437 2.6678302 45.45824617 2.93744438 47.4375 3.1875 C48.0975 2.5275 48.7575 1.8675 49.4375 1.1875 C49.9325 1.6825 49.9325 1.6825 50.4375 2.1875 C51.0975 1.5275 51.7575 0.8675 52.4375 0.1875 C52.788125 0.991875 53.13875 1.79625 53.5 2.625 C55.26485043 5.54853791 55.26485043 5.54853791 58.875 5.875 C60.050625 5.978125 61.22625 6.08125 62.4375 6.1875 C63.33662109 6.67476563 63.33662109 6.67476563 64.25390625 7.171875 C67.16851461 8.5275068 69.73748174 8.57752195 72.9375 8.75 C76.56665605 8.95393193 79.94407324 9.15145922 83.4375 10.1875 C83.9325 12.6625 83.9325 12.6625 84.4375 15.1875 C82.04602832 16.38323584 80.76858096 16.23983374 78.11328125 16.1015625 C76.81680664 16.03582031 76.81680664 16.03582031 75.49414062 15.96875 C74.58857422 15.9171875 73.68300781 15.865625 72.75 15.8125 C71.86376953 15.76867187 70.97753906 15.72484375 70.06445312 15.6796875 C60.26879191 15.15763894 60.26879191 15.15763894 55.4375 14.1875 C54.9425 13.1975 54.9425 13.1975 54.4375 12.1875 C54.1075 13.1775 53.7775 14.1675 53.4375 15.1875 C51.4575 15.1875 49.4775 15.1875 47.4375 15.1875 C47.4375 14.1975 47.4375 13.2075 47.4375 12.1875 C46.48488281 12.13851562 45.53226563 12.08953125 44.55078125 12.0390625 C43.29652344 11.96429688 42.04226562 11.88953125 40.75 11.8125 C39.50863281 11.74289063 38.26726562 11.67328125 36.98828125 11.6015625 C33.4375 11.1875 33.4375 11.1875 31.00390625 10.1796875 C27.41716614 8.79303303 23.85992265 8.80036046 20.0625 8.6875 C14.50477861 8.52057197 9.73848101 7.9218579 4.4375 6.1875 C4.4375 5.5275 4.4375 4.8675 4.4375 4.1875 C2.643125 4.496875 2.643125 4.496875 0.8125 4.8125 C-3.1201018 5.32331838 -5.8746243 4.75484717 -9.5625 3.1875 C-6.87929237 -0.47666525 -4.32765608 -0.13055499 0 0 Z " fill="#383A3B" transform="translate(113.5625,81.8125)"/>
<path d="M0 0 C11.85181443 -0.60377168 23.31419925 1.22518066 35 3 C35 3.66 35 4.32 35 5 C35.825 5.04898438 36.65 5.09796875 37.5 5.1484375 C44.12909248 5.57755286 50.66929272 6.17397893 57.25 7.0625 C63.19503628 7.85993516 69.00183938 8.2595358 75 8 C71.25 11 71.25 11 69 11 C69.350625 11.61875 69.70125 12.2375 70.0625 12.875 C70.371875 13.57625 70.68125 14.2775 71 15 C70.67 15.66 70.34 16.32 70 17 C57.49845589 16.38083187 45.09742729 14.99446868 32.67089844 13.52587891 C29.21676723 13.12110561 25.76087342 12.73444082 22.3046875 12.34765625 C20.10403604 12.08965339 17.90350993 11.83057865 15.703125 11.5703125 C14.67197571 11.45769073 13.64082642 11.34506897 12.57843018 11.22903442 C11.62603455 11.1123642 10.67363892 10.99569397 9.69238281 10.87548828 C8.85604309 10.77857697 8.01970337 10.68166565 7.15802002 10.58181763 C4.65519807 9.90703894 3.64135314 8.96582984 2 7 C2.66 5.35 3.32 3.7 4 2 C2.68 2 1.36 2 0 2 C0 1.34 0 0.68 0 0 Z " fill="#3A3B3C" transform="translate(345,109)"/>
<path d="M0 0 C1.485 0.99 1.485 0.99 3 2 C3.33 1.67 3.66 1.34 4 1 C8.52642225 0.84911926 12.58300512 0.89575128 17 2 C16.67 2.66 16.34 3.32 16 4 C15.34 4 14.68 4 14 4 C14.99 4.99 15.98 5.98 17 7 C17.33 5.35 17.66 3.7 18 2 C18.66 2 19.32 2 20 2 C20.495 2.99 20.495 2.99 21 4 C21.66 3.67 22.32 3.34 23 3 C23 4.65 23 6.3 23 8 C23.66 8.33 24.32 8.66 25 9 C23.68 9.33 22.36 9.66 21 10 C28.71783897 11.51292887 36.45903303 12.41905456 44.27734375 13.21875 C45.29752594 13.32324463 46.31770813 13.42773926 47.36880493 13.53540039 C51.64579044 13.97014994 55.92325687 14.39970608 60.20141602 14.82275391 C63.35240634 15.13588105 66.50237776 15.45800382 69.65234375 15.78125 C71.09926857 15.92040833 71.09926857 15.92040833 72.57542419 16.06237793 C77.02650558 16.52382613 80.93579716 16.97405565 85 19 C84.01 20.485 84.01 20.485 83 22 C80.23646145 22.10891457 77.73981121 22.03463054 75 21.80078125 C74.19546387 21.74336258 73.39092773 21.68594391 72.56201172 21.62678528 C70.03912391 21.43878162 67.51988003 21.22457606 65 21 C64.24493164 20.93294861 63.48986328 20.86589722 62.71191406 20.79681396 C57.46828708 20.31720331 52.23426068 19.7592115 47 19.1875 C45.35304874 19.01103066 43.70607561 18.83476531 42.05908203 18.65869141 C29.57392102 17.31556669 17.10225946 15.8620828 4.63452148 14.36669922 C-4.01975493 13.33133183 -12.67649394 12.37456328 -21.35791016 11.59521484 C-24.41263922 11.31263694 -27.07647629 10.9745079 -30 10 C-30.6875 7.9375 -30.6875 7.9375 -31 6 C-14.93380583 6.63132741 1.01695373 8.31948782 17 10 C17.33 9.34 17.66 8.68 18 8 C15.69 7.67 13.38 7.34 11 7 C11 5.68 11 4.36 11 3 C10.34 3 9.68 3 9 3 C8.67 4.32 8.34 5.64 8 7 C8 5.35 8 3.7 8 2 C6.68 2.33 5.36 2.66 4 3 C4.99 4.32 5.98 5.64 7 7 C6.071875 6.835 5.14375 6.67 4.1875 6.5 C1.04378647 5.92251612 1.04378647 5.92251612 -2 6 C-1.34 4.02 -0.68 2.04 0 0 Z " fill="#303032" transform="translate(335,125)"/>
<path d="M0 0 C6.12789826 -0.20617228 11.64255634 -0.03538556 17.5859375 1.48828125 C22.32277432 2.49236802 27.17595229 2.68982434 32 3 C32 3.66 32 4.32 32 5 C32.99 4.81824219 33.98 4.63648437 35 4.44921875 C39.08100743 3.86929692 42.93775777 4.24051762 47 4.8125 C48.00933594 4.9372168 48.00933594 4.9372168 49.0390625 5.06445312 C53.52919594 5.6582256 57.68813063 6.66938406 62 8 C58.61981469 9.04005702 55.5219721 9.08004482 52 9 C52 10.32 52 11.64 52 13 C52.59949463 13.05534912 53.19898926 13.11069824 53.81665039 13.16772461 C56.56543572 13.42253147 59.31396606 13.67999616 62.0625 13.9375 C63.47692383 14.06801758 63.47692383 14.06801758 64.91992188 14.20117188 C78.60079531 15.48822269 78.60079531 15.48822269 84 17 C83.505 18.485 83.505 18.485 83 20 C82.319375 19.835 81.63875 19.67 80.9375 19.5 C77.56540621 18.92602659 74.41890558 18.94105335 71 19 C66.78766878 19.0726264 63.11087056 18.84596693 59 18 C57.04213177 17.95732167 55.08291069 17.95931614 53.125 18 C47.60300122 18.04060293 42.48434924 17.93916198 37.26171875 15.96484375 C33.56673082 14.87183535 30.53062507 14.83604474 26.6875 14.9375 C24.45887952 14.99106141 22.22916821 15.02066778 20 15 C19.67 14.67 19.34 14.34 19 14 C17.59802598 13.85578846 16.18957169 13.77313876 14.78125 13.71875 C13.93175781 13.68136719 13.08226562 13.64398438 12.20703125 13.60546875 C11.31371094 13.57066406 10.42039063 13.53585938 9.5 13.5 C7.73940962 13.43140557 5.97897259 13.35871048 4.21875 13.28125 C3.43435547 13.25095703 2.64996094 13.22066406 1.84179688 13.18945312 C0 13 0 13 -1 12 C-1.04063832 10.33382885 -1.042721 8.66611905 -1 7 C-0.67 7.66 -0.34 8.32 0 9 C0.99 8.67 1.98 8.34 3 8 C4.34151332 8.29871542 5.67453473 8.63663969 7 9 C8.6586512 9.14298131 10.3210869 9.24541225 11.984375 9.31640625 C13.38623047 9.37924805 13.38623047 9.37924805 14.81640625 9.44335938 C15.78449219 9.48267578 16.75257813 9.52199219 17.75 9.5625 C18.73355469 9.60568359 19.71710938 9.64886719 20.73046875 9.69335938 C23.15351275 9.79922052 25.5766554 9.90130171 28 10 C28 8.35 28 6.7 28 5 C26.96552734 5.03480469 26.96552734 5.03480469 25.91015625 5.0703125 C19.70558858 5.18946743 13.94766489 4.8949537 8 3 C7.67 2.67 7.34 2.34 7 2 C4.67182036 1.63239269 2.3381615 1.29758419 0 1 C0 0.67 0 0.34 0 0 Z " fill="#393A3C" transform="translate(169,87)"/>
<path d="M0 0 C0.67442139 0.00243713 1.34884277 0.00487427 2.04370117 0.00738525 C19.5825443 0.08128197 36.90915335 1.67489797 54.25 4.25 C53.775625 4.8275 53.30125 5.405 52.8125 6 C51.24392942 8.25874164 50.47435176 9.52647395 50.25 12.25 C51.15189464 14.55499575 51.15189464 14.55499575 52.5625 16.875 C55.10212299 21.67680818 57.3311823 26.71945591 57.25 32.25 C55.74804688 33.88305664 55.74804688 33.88305664 54.25 35.25 C53.90219482 34.17516357 53.90219482 34.17516357 53.54736328 33.07861328 C52.49616181 29.84200544 51.43570693 26.6085045 50.375 23.375 C49.82779297 21.68310547 49.82779297 21.68310547 49.26953125 19.95703125 C48.73779297 18.34248047 48.73779297 18.34248047 48.1953125 16.6953125 C47.87062988 15.70031738 47.54594727 14.70532227 47.21142578 13.68017578 C46.38457863 11.11965037 46.38457863 11.11965037 44.25 9.25 C41.40417755 8.81455488 38.62960703 8.49902516 35.765625 8.2578125 C34.88569885 8.17701447 34.00577271 8.09621643 33.09918213 8.01296997 C30.15036078 7.74679821 27.20052668 7.49652257 24.25 7.25 C23.21641357 7.16278687 22.18282715 7.07557373 21.11791992 6.98571777 C13.41390701 6.34023688 5.70729716 5.7297778 -2 5.125 C-4.31772326 4.94159473 -6.63543169 4.75800204 -8.953125 4.57421875 C-14.55191492 4.13065967 -20.15088096 3.68938406 -25.75 3.25 C-25.75 2.92 -25.75 2.59 -25.75 2.25 C-17.12500218 0.29119294 -8.82369199 -0.06252492 0 0 Z " fill="#2E3837" transform="translate(310.75,167.75)"/>
<path d="M0 0 C2.97923003 -0.02727678 5.95820379 -0.04697128 8.9375 -0.0625 C9.76830078 -0.07087891 10.59910156 -0.07925781 11.45507812 -0.08789062 C17.05226441 -0.10966956 22.44733582 0.28840732 28 1 C28 1.66 28 2.32 28 3 C34.27 3.33 40.54 3.66 47 4 C47 4.66 47 5.32 47 6 C47.66 5.67 48.32 5.34 49 5 C51.3329866 4.95977609 53.66706666 4.95679753 56 5 C56 5.66 56 6.32 56 7 C57.0621875 6.98839844 58.124375 6.97679688 59.21875 6.96484375 C68.03540532 6.89709548 76.33722527 7.10501803 85 9 C85 10.98 85 12.96 85 15 C83.5 13.625 83.5 13.625 82 12 C82 11.34 82 10.68 82 10 C80.68 10 79.36 10 78 10 C78 10.99 78 11.98 78 13 C74.97846145 12.88529624 71.95821599 12.7585615 68.9375 12.625 C67.66616211 12.57859375 67.66616211 12.57859375 66.36914062 12.53125 C61.26311731 12.29467749 56.91760327 11.48540877 52 10 C49.15728045 9.51115723 46.30450397 9.18591065 43.4375 8.875 C42.34405273 8.74544922 42.34405273 8.74544922 41.22851562 8.61328125 C37.12981736 8.14844238 33.13245757 7.90860283 29 8 C29 7.34 29 6.68 29 6 C27.85724609 6.03480469 27.85724609 6.03480469 26.69140625 6.0703125 C20.09254606 6.18564838 14.37740498 5.70064133 8 4 C8 3.34 8 2.68 8 2 C7.05125 2.04125 6.1025 2.0825 5.125 2.125 C2 2 2 2 0 0 Z " fill="#212325" transform="translate(172,84)"/>
<path d="M0 0 C2.40417704 0.23132444 4.41236272 0.0137802 6.7980957 -0.33544922 C12.82241275 -1.00049648 18.43771408 -0.23510322 24.40356445 0.65673828 C25.45543945 0.80433594 26.50731445 0.95193359 27.59106445 1.10400391 C30.15524772 1.46532064 32.71739986 1.8372091 35.27856445 2.21923828 C35.27856445 2.54923828 35.27856445 2.87923828 35.27856445 3.21923828 C33.62856445 3.21923828 31.97856445 3.21923828 30.27856445 3.21923828 C30.27856445 3.87923828 30.27856445 4.53923828 30.27856445 5.21923828 C31.59856445 5.21923828 32.91856445 5.21923828 34.27856445 5.21923828 C33.94856445 7.52923828 33.61856445 9.83923828 33.27856445 12.21923828 C30.88107062 12.13178253 28.48708225 12.02486753 26.09106445 11.90673828 C25.4175293 11.88417969 24.74399414 11.86162109 24.05004883 11.83837891 C19.58011277 11.59852868 17.00079213 10.59081094 13.27856445 8.21923828 C11.05131156 7.93249683 11.05131156 7.93249683 8.77856445 8.15673828 C2.47807717 8.37563739 -3.53226167 7.30573903 -9.72143555 6.21923828 C-9.40893555 3.84423828 -9.40893555 3.84423828 -8.72143555 1.21923828 C-5.18510466 -1.13831565 -4.01379899 -0.63817725 0 0 Z " fill="#3A3B3D" transform="translate(314.721435546875,105.78076171875)"/>
<path d="M0 0 C11.49520875 -0.28189885 22.60029192 0.52226006 34 2 C34 2.66 34 3.32 34 4 C35.03898437 3.97679688 36.07796875 3.95359375 37.1484375 3.9296875 C45.01091905 3.80895842 52.34268797 3.93841599 60 6 C60 6.66 60 7.32 60 8 C61.24136719 7.98839844 62.48273438 7.97679688 63.76171875 7.96484375 C65.40364432 7.95546132 67.04557153 7.9463616 68.6875 7.9375 C69.91243164 7.92493164 69.91243164 7.92493164 71.16210938 7.91210938 C75.28517282 7.89541681 78.95924818 8.13642625 83 9 C86.58127401 9.27256369 90.17268865 9.39050538 93.76171875 9.51757812 C97.98647882 9.71573059 101.07841483 10.32653773 105 12 C107.42792152 12.43269889 109.86716505 12.80504963 112.3125 13.125 C113.56675781 13.29257813 114.82101563 13.46015625 116.11328125 13.6328125 C117.06589844 13.75398438 118.01851563 13.87515625 119 14 C119 14.66 119 15.32 119 16 C114.65535464 15.39174965 110.32448133 14.73832608 106 14 C105.67 14.66 105.34 15.32 105 16 C105 15.34 105 14.68 105 14 C104.3387915 14.00523682 103.67758301 14.01047363 102.99633789 14.01586914 C100.01840149 14.03657656 97.04048018 14.04964012 94.0625 14.0625 C93.02158203 14.07087891 91.98066406 14.07925781 90.90820312 14.08789062 C89.91884766 14.09111328 88.92949219 14.09433594 87.91015625 14.09765625 C86.99371338 14.10289307 86.07727051 14.10812988 85.13305664 14.11352539 C83 14 83 14 82 13 C79.67258011 12.62761282 77.33764285 12.30163134 75 12 C68.11111111 11.11111111 68.11111111 11.11111111 67 10 C64.76925356 9.92760255 62.55507809 10.00350207 60.32421875 10.0625 C58 10 58 10 56.20727539 9.51586914 C53.56422608 8.89815393 51.07185492 8.78459034 48.359375 8.68359375 C47.28945312 8.64169922 46.21953125 8.59980469 45.1171875 8.55664062 C44.00601563 8.51732422 42.89484375 8.47800781 41.75 8.4375 C40.62335938 8.39431641 39.49671875 8.35113281 38.3359375 8.30664062 C35.55741046 8.20067985 32.77879609 8.09860858 30 8 C30 7.34 30 6.68 30 6 C28.845 5.87625 27.69 5.7525 26.5 5.625 C23.04735396 5.19793054 19.79318641 4.44125259 16.4296875 3.54296875 C11.0215746 2.33440333 5.49021834 1.7248322 0 1 C0 0.67 0 0.34 0 0 Z " fill="#262829" transform="translate(42,80)"/>
<path d="M0 0 C2.64 0 5.28 0 8 0 C12.17883161 8.26438573 13.77369133 16.55969832 11.26953125 25.65234375 C9.38063993 30.2859098 7.06795283 33.97268627 3 37 C-1.31354898 38.07838724 -4.71401613 38.16890469 -9 37 C-6.66785852 35.79371992 -4.50357861 34.8345262 -2 34 C0.58871229 31.1626183 1.63623437 28.49049082 2.625 24.8125 C3.91146881 20.08853119 3.91146881 20.08853119 5 19 C5.06332488 13.21210581 3.67612469 8.62520186 0.83984375 3.62890625 C0 2 0 2 0 0 Z " fill="#0D100F" transform="translate(400,177)"/>
<path d="M0 0 C0.33 0.66 0.66 1.32 1 2 C1.99 1.67 2.98 1.34 4 1 C5.96118164 1.14599609 5.96118164 1.14599609 8.16015625 1.5234375 C8.95357422 1.6575 9.74699219 1.7915625 10.56445312 1.9296875 C11.38880859 2.07664062 12.21316406 2.22359375 13.0625 2.375 C14.30483398 2.58382812 14.30483398 2.58382812 15.57226562 2.796875 C21.71189829 3.85594915 21.71189829 3.85594915 24 5 C25.56430519 5.17008502 27.13472182 5.28552625 28.70581055 5.37304688 C30.17324959 5.45818542 30.17324959 5.45818542 31.67033386 5.54504395 C32.73174088 5.60236694 33.79314789 5.65968994 34.88671875 5.71875 C36.5222747 5.81295227 36.5222747 5.81295227 38.19087219 5.90905762 C41.68952629 6.11018878 45.18846759 6.3055693 48.6875 6.5 C52.16864721 6.69490767 55.64970028 6.89112813 59.13056946 7.09094238 C61.29852179 7.2152634 63.46664041 7.3367265 65.63493347 7.45495605 C72.1837418 7.82888365 78.65274739 8.22276927 85 10 C84.67 10.99 84.34 11.98 84 13 C83.319375 12.835 82.63875 12.67 81.9375 12.5 C78.56540621 11.92602659 75.41890558 11.94105335 72 12 C67.78766878 12.0726264 64.11087056 11.84596693 60 11 C58.04213177 10.95732167 56.08291069 10.95931614 54.125 11 C48.60300122 11.04060293 43.48434924 10.93916198 38.26171875 8.96484375 C34.56673082 7.87183535 31.53062507 7.83604474 27.6875 7.9375 C25.45887952 7.99106141 23.22916821 8.02066778 21 8 C20.67 7.67 20.34 7.34 20 7 C18.59802598 6.85578846 17.18957169 6.77313876 15.78125 6.71875 C14.50701172 6.66267578 14.50701172 6.66267578 13.20703125 6.60546875 C11.86705078 6.55326172 11.86705078 6.55326172 10.5 6.5 C8.73940962 6.43140557 6.97897259 6.35871048 5.21875 6.28125 C4.43435547 6.25095703 3.64996094 6.22066406 2.84179688 6.18945312 C1 6 1 6 0 5 C-0.04063832 3.33382885 -0.042721 1.66611905 0 0 Z " fill="#232526" transform="translate(168,94)"/>
<path d="M0 0 C0.66 0 1.32 0 2 0 C3.32 4.62 4.64 9.24 6 14 C12.79307008 15.23510365 19.10151834 16.26532622 26 16 C25.67 16.66 25.34 17.32 25 18 C22.03 18.495 22.03 18.495 19 19 C24.28 19.33 29.56 19.66 35 20 C35 20.33 35 20.66 35 21 C25.99554374 22.03789683 17.40045635 21.99983595 8.375 21.1875 C7.42737793 21.10516113 6.47975586 21.02282227 5.50341797 20.93798828 C-3.51069448 20.04641179 -3.51069448 20.04641179 -7 18 C-8.48714633 15.75659155 -9.09614558 13.56884939 -10 11 C-7.36 11.33 -4.72 11.66 -2 12 C0.05486175 7.89027649 -0.09042894 5.44679185 -1 1 C-0.67 0.67 -0.34 0.34 0 0 Z " fill="#2B3031" transform="translate(379,203)"/>
<path d="M0 0 C4.91308386 0.11050189 9.68461567 0.58589752 14.375 2.0625 C19.87851755 3.4858235 25.34624165 3.15303406 31 3 C31.38218767 4.65614657 31.71395102 6.32457024 32 8 C31 9 31 9 27.12890625 9.125 C21.69934897 9.06475526 16.33538986 8.55594134 10.9375 8 C9.97650391 7.90460938 9.01550781 7.80921875 8.02539062 7.7109375 C5.68317077 7.4778808 3.34143045 7.24083651 1 7 C0.34 5.02 -0.32 3.04 -1 1 C-0.67 0.67 -0.34 0.34 0 0 Z " fill="#2A2C2C" transform="translate(258,93)"/>
<path d="M0 0 C0 1.32 0 2.64 0 4 C1.01320313 3.91298828 1.01320313 3.91298828 2.046875 3.82421875 C4.77230706 3.68637175 7.29184729 3.64768546 10 4 C12.625 6.375 12.625 6.375 14 9 C14 9.66 14 10.32 14 11 C12.4176994 11.33820166 10.83410625 11.67035939 9.25 12 C8.36828125 12.185625 7.4865625 12.37125 6.578125 12.5625 C4 13 4 13 0 13 C-1.81640625 11.390625 -1.81640625 11.390625 -3.5625 9.25 C-4.14128906 8.55390625 -4.72007812 7.8578125 -5.31640625 7.140625 C-6.90900862 5.11569206 -8.46629012 3.06980907 -10 1 C-2.25 0 -2.25 0 0 0 Z " fill="#384644" transform="translate(422,180)"/>
<path d="M0 0 C2.475 0.495 2.475 0.495 5 1 C6.57312496 4.67062491 7.14440048 6.44302674 6.125 10.375 C5.75375 11.24125 5.3825 12.1075 5 13 C-1.94170563 12.66944259 -7.79081025 12.24571282 -14 9 C-13.38125 8.87625 -12.7625 8.7525 -12.125 8.625 C-9.80879168 8.12802644 -9.80879168 8.12802644 -8 6 C-10.31 5.67 -12.62 5.34 -15 5 C-15 5.66 -15 6.32 -15 7 C-15.66 6.67 -16.32 6.34 -17 6 C-16.34 4.68 -15.68 3.36 -15 2 C-14.01 2.33 -13.02 2.66 -12 3 C-9.77425665 3.22451458 -7.54418481 3.40782878 -5.3125 3.5625 C-4.13300781 3.64628906 -2.95351563 3.73007813 -1.73828125 3.81640625 C-0.38283203 3.90728516 -0.38283203 3.90728516 1 4 C0.67 2.68 0.34 1.36 0 0 Z " fill="#343232" transform="translate(488,167)"/>
<path d="M0 0 C3.64787623 0.59222002 7.29281439 1.20097557 10.9375 1.8125 C11.95908203 1.97814453 12.98066406 2.14378906 14.03320312 2.31445312 C20.27979149 3.37218214 26.04478755 4.83277461 32 7 C32 7.33 32 7.66 32 8 C26.25 8.125 26.25 8.125 24 7 C22.29636178 6.77377919 20.58671299 6.59111527 18.875 6.4375 C17.96492188 6.35371094 17.05484375 6.26992187 16.1171875 6.18359375 C15.41851562 6.12300781 14.71984375 6.06242188 14 6 C14 7.32 14 8.64 14 10 C8.6797101 9.36156521 3.81941041 8.4097052 -1 6 C-0.67 4.02 -0.34 2.04 0 0 Z " fill="#696B6C" transform="translate(405,159)"/>
<path d="M0 0 C3.63 0 7.26 0 11 0 C11 0.66 11 1.32 11 2 C11.66 1.67 12.32 1.34 13 1 C15.3329866 0.95977609 17.66706666 0.95679753 20 1 C20 1.66 20 2.32 20 3 C21.0621875 2.98839844 22.124375 2.97679688 23.21875 2.96484375 C32.03540532 2.89709548 40.33722527 3.10501803 49 5 C49 6.98 49 8.96 49 11 C47.5 9.625 47.5 9.625 46 8 C46 7.34 46 6.68 46 6 C44.68 6 43.36 6 42 6 C41.67 6.66 41.34 7.32 41 8 C26.969284 6.2138452 12.98739183 4.09422212 -1 2 C-0.67 1.34 -0.34 0.68 0 0 Z " fill="#242525" transform="translate(208,88)"/>
<path d="M0 0 C1.32 0 2.64 0 4 0 C4 0.66 4 1.32 4 2 C8.95 1.67 13.9 1.34 19 1 C19 1.99 19 2.98 19 4 C25.6 4.33 32.2 4.66 39 5 C39.495 7.97 39.495 7.97 40 11 C39.505 9.515 39.505 9.515 39 8 C37.62714844 8.01740234 37.62714844 8.01740234 36.2265625 8.03515625 C34.44378906 8.04869141 34.44378906 8.04869141 32.625 8.0625 C31.44164062 8.07410156 30.25828125 8.08570312 29.0390625 8.09765625 C26 8 26 8 24 7 C21.64775141 6.84298959 19.29290221 6.72402592 16.9375 6.625 C10.8232352 6.30921233 5.68412575 5.2935946 0 3 C0 2.01 0 1.02 0 0 Z " fill="#27282A" transform="translate(254,104)"/>
<path d="M0 0 C1.58323688 -0.027193 3.16661062 -0.04648306 4.75 -0.0625 C6.07257813 -0.07990234 6.07257813 -0.07990234 7.421875 -0.09765625 C10 0 10 0 14 1 C14 3.97 14 6.94 14 10 C9.71 9.34 5.42 8.68 1 8 C0.67 5.36 0.34 2.72 0 0 Z " fill="#171717" transform="translate(299,94)"/>
<path d="M0 0 C6.12789826 -0.20617228 11.64255634 -0.03538556 17.5859375 1.48828125 C22.32277432 2.49236802 27.17595229 2.68982434 32 3 C32 3.66 32 4.32 32 5 C32.99 4.81824219 33.98 4.63648437 35 4.44921875 C39.08100743 3.86929692 42.93775777 4.24051762 47 4.8125 C48.00933594 4.9372168 48.00933594 4.9372168 49.0390625 5.06445312 C53.52919594 5.6582256 57.68813063 6.66938406 62 8 C57.85529486 9.32630565 52.96769422 9.98384711 49 8 C47.63939241 7.79465218 46.27181118 7.63408839 44.90234375 7.5 C44.10119141 7.4175 43.30003906 7.335 42.47460938 7.25 C40.7793344 7.08295212 39.08402164 6.91628718 37.38867188 6.75 C31.1015274 6.1015274 31.1015274 6.1015274 30 5 C28 4.97916667 25.9994002 5.00927523 24 5.0625 C18.29720319 5.11274491 13.47875231 4.55231316 8 3 C7.67 2.67 7.34 2.34 7 2 C4.67182036 1.63239269 2.3381615 1.29758419 0 1 C0 0.67 0 0.34 0 0 Z " fill="#2A2B2D" transform="translate(169,87)"/>
<path d="M0 0 C1.81242052 -0.02687279 3.62495233 -0.04633715 5.4375 -0.0625 C6.44683594 -0.07410156 7.45617187 -0.08570313 8.49609375 -0.09765625 C11 0 11 0 12 1 C13.37149254 1.15892832 14.74781491 1.2769631 16.125 1.375 C20.61890122 1.81360476 23.95924122 3.0226074 28 5 C27.360625 5.144375 26.72125 5.28875 26.0625 5.4375 C24.02454854 5.81007181 24.02454854 5.81007181 23 7 C15.17743974 6.93314051 7.54142245 4.87944541 0 3 C0 2.01 0 1.02 0 0 Z " fill="#121313" transform="translate(405,156)"/>
<path d="M0 0 C31.29183199 -0.27828704 31.29183199 -0.27828704 43 3 C42.67 3.99 42.34 4.98 42 6 C41.31679687 5.83242187 40.63359375 5.66484375 39.9296875 5.4921875 C35.47089025 4.74310956 31.07552347 5.08948594 26.5703125 5.2578125 C22.48863766 4.96307449 19.7446693 3.60485827 16 2 C13.19078844 1.53291337 10.40607266 1.40355676 7.5625 1.3125 C6.46518555 1.26125977 6.46518555 1.26125977 5.34570312 1.20898438 C3.56430438 1.12748247 1.78218251 1.06204477 0 1 C0 0.67 0 0.34 0 0 Z " fill="#2E2F31" transform="translate(210,101)"/>
<path d="M0 0 C10.00024893 -0.47873532 18.69139899 0.26644718 28.3359375 2.9765625 C32.85008754 4.2374445 37.39250526 5.15824615 42 6 C42 6.66 42 7.32 42 8 C38.04 8 34.08 8 30 8 C30 7.34 30 6.68 30 6 C28.845 5.87625 27.69 5.7525 26.5 5.625 C23.04735396 5.19793054 19.79318641 4.44125259 16.4296875 3.54296875 C11.0215746 2.33440333 5.49021834 1.7248322 0 1 C0 0.67 0 0.34 0 0 Z " fill="#242527" transform="translate(42,80)"/>
<path d="M0 0 C1.4540625 0.0309375 1.4540625 0.0309375 2.9375 0.0625 C2.72480469 0.79082031 2.51210938 1.51914063 2.29296875 2.26953125 C1.85987048 5.67244619 2.53612383 6.82916878 4.25 9.75 C6.8051266 14.5310212 9.01852175 19.54289337 8.9375 25.0625 C7.43554688 26.69555664 7.43554688 26.69555664 5.9375 28.0625 C5.70562988 27.3511792 5.47375977 26.6398584 5.23486328 25.90698242 C4.1821251 22.6864243 3.12239982 19.46820793 2.0625 16.25 C1.69769531 15.13044922 1.33289063 14.01089844 0.95703125 12.85742188 C0.60253906 11.78427734 0.24804688 10.71113281 -0.1171875 9.60546875 C-0.44187012 8.61571045 -0.76655273 7.62595215 -1.10107422 6.60620117 C-2.02355645 3.87748893 -2.02355645 3.87748893 -4.0625 1.0625 C-3.0625 0.0625 -3.0625 0.0625 0 0 Z " fill="#3C4544" transform="translate(359.0625,174.9375)"/>
<path d="M0 0 C2.10478604 0.11409682 4.20884577 0.24165361 6.3125 0.375 C7.48425781 0.44460937 8.65601563 0.51421875 9.86328125 0.5859375 C13.65218774 1.08609203 15.31823235 2.14147778 17.6875 5.125 C18.120625 5.74375 18.55375 6.3625 19 7 C15.52674819 8.1577506 12.63932552 8.06866652 9 8 C9 7.67 9 7.34 9 7 C6.36 6.34 3.72 5.68 1 5 C0.67 3.35 0.34 1.7 0 0 Z " fill="#5C5E5F" transform="translate(381,114)"/>
<path d="M0 0 C0.75023437 0.0721875 1.50046875 0.144375 2.2734375 0.21875 C8.87288627 0.81718868 15.37457568 1.13192217 22 1 C18.25 4 18.25 4 16 4 C16.66 5.32 17.32 6.64 18 8 C14.98968256 8.93423645 14.13349732 9.04449911 11 8 C11 7.34 11 6.68 11 6 C8.69 6 6.38 6 4 6 C4 5.34 4 4.68 4 4 C2.70766393 2.62689293 1.37562854 1.28965176 0 0 Z " fill="#454646" transform="translate(398,116)"/>
<path d="M0 0 C0.350625 0.474375 0.70125 0.94875 1.0625 1.4375 C3.00642246 3.28021024 3.00642246 3.28021024 6.1875 3.4375 C10.72875216 4.10752081 14.03386872 5.78514747 18 8 C18 8.66 18 9.32 18 10 C13.31917738 11.56027421 8.86791016 11.44667417 4.125 10.3125 C1.31759229 8.57851288 0.82612526 7.15429646 0 4 C0 2.68 0 1.36 0 0 Z " fill="#3F4142" transform="translate(166,84)"/>
<path d="M0 0 C0.33 0.99 0.66 1.98 1 3 C1.99 3.33 2.98 3.66 4 4 C4.33 6.97 4.66 9.94 5 13 C8.86763446 14.87543354 8.86763446 14.87543354 13 14 C13 14.66 13 15.32 13 16 C12.030625 16.12375 11.06125 16.2475 10.0625 16.375 C9.051875 16.58125 8.04125 16.7875 7 17 C6.67 17.66 6.34 18.32 6 19 C6.66 19 7.32 19 8 19 C8 20.65 8 22.3 8 24 C6.02 24.33 4.04 24.66 2 25 C2 18.07 2 11.14 2 4 C1.34 4 0.68 4 0 4 C0 2.68 0 1.36 0 0 Z " fill="#212825" transform="translate(282,146)"/>
<path d="M0 0 C0.99 0.66 1.98 1.32 3 2 C3.33 1.67 3.66 1.34 4 1 C8.52642225 0.84911926 12.58300512 0.89575128 17 2 C16.67 2.66 16.34 3.32 16 4 C15.34 4 14.68 4 14 4 C14.99 4.99 15.98 5.98 17 7 C17.33 5.35 17.66 3.7 18 2 C18.66 2 19.32 2 20 2 C20.33 3.98 20.66 5.96 21 8 C14.375 8.125 14.375 8.125 11 7 C11 5.68 11 4.36 11 3 C10.34 3 9.68 3 9 3 C8.67 4.32 8.34 5.64 8 7 C8 5.35 8 3.7 8 2 C6.68 2.33 5.36 2.66 4 3 C4.99 4.32 5.98 5.64 7 7 C6.071875 6.835 5.14375 6.67 4.1875 6.5 C1.04378647 5.92251612 1.04378647 5.92251612 -2 6 C-1.34 4.02 -0.68 2.04 0 0 Z " fill="#3D3F40" transform="translate(335,125)"/>
<path d="M0 0 C3.63 0 7.26 0 11 0 C9.68 0.33 8.36 0.66 7 1 C7 1.66 7 2.32 7 3 C19.87 3.495 19.87 3.495 33 4 C33 4.66 33 5.32 33 6 C34.65 6 36.3 6 38 6 C38 6.33 38 6.66 38 7 C22.89647075 6.47228633 7.99248556 4.86594218 -7 3 C-7 2.67 -7 2.34 -7 2 C-3.535 1.505 -3.535 1.505 0 1 C0 0.67 0 0.34 0 0 Z " fill="#171A19" transform="translate(345,159)"/>
<path d="M0 0 C7.1949011 -0.23185232 13.80606226 0.64614538 20.875 1.9375 C27.90021823 3.20382915 34.78846134 4.25417153 41.92236328 4.65844727 C42.95079346 4.82751587 42.95079346 4.82751587 44 5 C44.495 5.99 44.495 5.99 45 7 C41.97846145 6.88529624 38.95821599 6.7585615 35.9375 6.625 C35.08994141 6.5940625 34.24238281 6.563125 33.36914062 6.53125 C28.25651071 6.29437139 23.93018407 5.45264352 19 4 C15.6985386 3.50181041 12.38643086 3.1833799 9.0625 2.875 C7.75055664 2.74544922 7.75055664 2.74544922 6.41210938 2.61328125 C4.27529746 2.40310303 2.13771878 2.20074482 0 2 C0 1.34 0 0.68 0 0 Z " fill="#121213" transform="translate(205,90)"/>
<path d="M0 0 C0.33 1.65 0.66 3.3 1 5 C-4.44700547 5.11116338 -9.63562868 5.00581962 -15 4 C-15.33 3.67 -15.66 3.34 -16 3 C-17.99958364 2.95919217 -20.00045254 2.95745644 -22 3 C-21.67 2.34 -21.34 1.68 -21 1 C-14.00609057 -0.14654253 -7.07251199 -0.10770323 0 0 Z " fill="#292A2A" transform="translate(496,304)"/>
<path d="M0 0 C2 4 2 4 2 7 C3.65 7.33 5.3 7.66 7 8 C7.66 9.98 8.32 11.96 9 14 C7.8125 15.5 7.8125 15.5 6 17 C4.35 17 2.7 17 1 17 C0.67 11.39 0.34 5.78 0 0 Z " fill="#2A2C2B" transform="translate(498,150)"/>
<path d="M0 0 C1.37194501 0.03313877 2.74345655 0.0926453 4.11328125 0.17578125 C4.81517578 0.19833984 5.51707031 0.22089844 6.24023438 0.24414062 C7.96966455 0.30296478 9.69799563 0.39264736 11.42578125 0.48828125 C11.09578125 1.14828125 10.76578125 1.80828125 10.42578125 2.48828125 C8.44578125 2.81828125 6.46578125 3.14828125 4.42578125 3.48828125 C9.70578125 3.81828125 14.98578125 4.14828125 20.42578125 4.48828125 C20.42578125 4.81828125 20.42578125 5.14828125 20.42578125 5.48828125 C11.24820855 6.30322965 2.60758492 6.59967276 -6.57421875 5.48828125 C-4.94255491 1.51852441 -4.37528478 0.5977165 0 0 Z " fill="#424946" transform="translate(393.57421875,218.51171875)"/>
<path d="M0 0 C3.79342979 0.44445209 7.58429779 0.90789925 11.375 1.375 C12.99535156 1.56449219 12.99535156 1.56449219 14.6484375 1.7578125 C16.1953125 1.95117188 16.1953125 1.95117188 17.7734375 2.1484375 C18.72653809 2.26364746 19.67963867 2.37885742 20.66162109 2.49755859 C23 3 23 3 25 5 C24.34 5.66 23.68 6.32 23 7 C22.01 6.34 21.02 5.68 20 5 C19.67 5.66 19.34 6.32 19 7 C18.443125 6.835 17.88625 6.67 17.3125 6.5 C14.96647117 5.89812972 14.96647117 5.89812972 12.375 6.0625 C10 6 10 6 8 4 C5.80295489 3.32348793 5.80295489 3.32348793 3.375 2.875 C2.14910156 2.62363281 2.14910156 2.62363281 0.8984375 2.3671875 C0.27195312 2.24601562 -0.35453125 2.12484375 -1 2 C-0.67 1.34 -0.34 0.68 0 0 Z " fill="#2C2E2F" transform="translate(98,77)"/>
<path d="M0 0 C1.6752357 0.28718326 3.34080104 0.63128912 5 1 C6.99897128 1.33944795 8.99875639 1.67421616 11 2 C11 1.34 11 0.68 11 0 C13.475 0.495 13.475 0.495 16 1 C15.34 2.65 14.68 4.3 14 6 C7.05829437 5.66944259 1.20918975 5.24571282 -5 2 C-4.360625 1.855625 -3.72125 1.71125 -3.0625 1.5625 C-1.02454854 1.18992819 -1.02454854 1.18992819 0 0 Z " fill="#292827" transform="translate(479,174)"/>
<path d="M0 0 C0.33 0.33 0.66 0.66 1 1 C2.69141656 0.91036938 4.37959602 0.75422324 6.0625 0.5625 C6.98160156 0.46066406 7.90070313 0.35882813 8.84765625 0.25390625 C9.91306641 0.12822266 9.91306641 0.12822266 11 0 C7.05791583 3.62671744 3.09377054 4.03293482 -2.15576172 3.97705078 C-4.42074684 3.87810229 -6.6766738 3.73104488 -8.9375 3.5625 C-10.10635742 3.48418945 -10.10635742 3.48418945 -11.29882812 3.40429688 C-13.19966772 3.27601936 -15.09990904 3.13892679 -17 3 C-16 1 -16 1 -13 -0.1875 C-8.61609511 -1.35169051 -4.40440472 -0.93569972 0 0 Z " fill="#272B2A" transform="translate(414,220)"/>
<path d="M0 0 C5.59516031 1.06668546 11.15255451 1.97118976 16.8125 2.625 C16.8125 3.285 16.8125 3.945 16.8125 4.625 C10.57166215 4.74165117 4.51507811 4.29213776 -1.6875 3.625 C-3.06421875 3.48191406 -3.06421875 3.48191406 -4.46875 3.3359375 C-6.70874265 3.10260493 -8.94827368 2.86555688 -11.1875 2.625 C-11.1875 1.635 -11.1875 0.645 -11.1875 -0.375 C-7.20778925 -1.70157025 -4.00540569 -0.78523861 0 0 Z " fill="#151719" transform="translate(271.1875,97.375)"/>
<path d="M0 0 C0.33 0.66 0.66 1.32 1 2 C1.79664063 1.80535156 2.59328125 1.61070313 3.4140625 1.41015625 C7.97436109 0.88855347 11.89268829 1.59751336 16.375 2.4375 C17.20644531 2.58509766 18.03789063 2.73269531 18.89453125 2.88476562 C20.93128851 3.24763617 22.96588463 3.62260124 25 4 C23 5 21 6 19 7 C18.67 6.34 18.34 5.68 18 5 C17.34 5.66 16.68 6.32 16 7 C16 6.34 16 5.68 16 5 C14.906875 5.04125 13.81375 5.0825 12.6875 5.125 C7.33796618 5.14420838 2.22157765 4.07503069 -3 3 C-3 2.34 -3 1.68 -3 1 C-2.01 0.67 -1.02 0.34 0 0 Z " fill="#252728" transform="translate(40,69)"/>
<path d="M0 0 C1.39538254 -0.05472088 2.79140897 -0.09311538 4.1875 -0.125 C4.96480469 -0.14820312 5.74210938 -0.17140625 6.54296875 -0.1953125 C9.3652966 0.02903789 11.37549442 0.95019777 14 2 C16.42792152 2.43269889 18.86716505 2.80504963 21.3125 3.125 C22.56675781 3.29257813 23.82101563 3.46015625 25.11328125 3.6328125 C26.06589844 3.75398438 27.01851562 3.87515625 28 4 C28 4.66 28 5.32 28 6 C23.65535464 5.39174965 19.32448133 4.73832608 15 4 C14.67 4.66 14.34 5.32 14 6 C14 5.34 14 4.68 14 4 C10.37 4 6.74 4 3 4 C3 3.34 3 2.68 3 2 C2.01 2 1.02 2 0 2 C0 1.34 0 0.68 0 0 Z " fill="#242628" transform="translate(133,90)"/>
<path d="M0 0 C4.95 0 9.9 0 15 0 C15.33 0.99 15.66 1.98 16 3 C14.4176994 3.33820166 12.83410625 3.67035939 11.25 4 C9.92742187 4.2784375 9.92742187 4.2784375 8.578125 4.5625 C6 5 6 5 2 5 C1.34 3.35 0.68 1.7 0 0 Z " fill="#667F7C" transform="translate(420,188)"/>
<path d="M0 0 C5.94 0.33 11.88 0.66 18 1 C17.01 1.66 16.02 2.32 15 3 C14.34 3.66 13.68 4.32 13 5 C10.94140625 5.23046875 10.94140625 5.23046875 8.5625 5.1875 C7.78003906 5.18105469 6.99757813 5.17460937 6.19140625 5.16796875 C4 5 4 5 1 4 C0.67 2.68 0.34 1.36 0 0 Z " fill="#383737" transform="translate(304,131)"/>
<path d="M0 0 C1.6254308 0.14095064 3.25034051 0.28792087 4.875 0.4375 C5.77992188 0.51871094 6.68484375 0.59992188 7.6171875 0.68359375 C10 1 10 1 12 2 C12.625 4.0625 12.625 4.0625 13 6 C10.36 6 7.72 6 5 6 C4.67 6.66 4.34 7.32 4 8 C1.81715496 5.34262343 0.72366315 3.34430737 0 0 Z " fill="#485553" transform="translate(369,214)"/>
<path d="M0 0 C7.49946928 -0.23476599 14.7996806 0.04306477 22.25 0.875 C23.37619751 0.99270752 23.37619751 0.99270752 24.52514648 1.11279297 C26.36068036 1.33352307 28.18319476 1.65776459 30 2 C30.33 2.66 30.66 3.32 31 4 C29.14375 3.9690625 29.14375 3.9690625 27.25 3.9375 C24.3359175 3.93233319 21.79046673 4.06984442 19 5 C18.67 4.34 18.34 3.68 18 3 C12.06 2.67 6.12 2.34 0 2 C0 1.34 0 0.68 0 0 Z " fill="#252727" transform="translate(65,74)"/>
<path d="M0 0 C0.66 1.32 1.32 2.64 2 4 C2.33 2.68 2.66 1.36 3 0 C4.65 0 6.3 0 8 0 C8 0.99 8 1.98 8 3 C8.33 2.34 8.66 1.68 9 1 C10.32 1.33 11.64 1.66 13 2 C12 5 12 5 10.125 6.1875 C8 7 8 7 5 7 C5 6.01 5 5.02 5 4 C4.67 4.66 4.34 5.32 4 6 C2.68 5.67 1.36 5.34 0 5 C0 3.35 0 1.7 0 0 Z " fill="#3E3E3E" transform="translate(315,123)"/>
<path d="M0 0 C0.66 0 1.32 0 2 0 C4.16848358 4.51767413 5.6823277 7.88254225 5 13 C4.04406493 14.36527137 3.04858391 15.70452728 2 17 C1.66151348 15.10507994 1.32943089 13.20901534 1 11.3125 C0.814375 10.25675781 0.62875 9.20101562 0.4375 8.11328125 C0.04931926 5.35095938 -0.08259976 2.78257957 0 0 Z " fill="#141917" transform="translate(401,183)"/>
<path d="M0 0 C1.77049689 -0.05410687 3.54146849 -0.09284119 5.3125 -0.125 C6.29863281 -0.14820313 7.28476562 -0.17140625 8.30078125 -0.1953125 C11 0 11 0 14 2 C10.09971775 4.60018816 6.52565431 4.15085514 2 4 C1.67 4.66 1.34 5.32 1 6 C0.34 6 -0.32 6 -1 6 C-0.67 4.02 -0.34 2.04 0 0 Z " fill="#262927" transform="translate(376,150)"/>
<path d="M0 0 C1.65 0.33 3.3 0.66 5 1 C4.67 3.31 4.34 5.62 4 8 C2.125 8.625 2.125 8.625 0 9 C-0.66 8.34 -1.32 7.68 -2 7 C-1.6730244 4.38419521 -1.17960932 2.35921863 0 0 Z " fill="#232827" transform="translate(290,148)"/>
<path d="M0 0 C0 0.66 0 1.32 0 2 C-2.31 2.33 -4.62 2.66 -7 3 C-7 4.32 -7 5.64 -7 7 C-4.69 7.33 -2.38 7.66 0 8 C-3.47512718 9.15837573 -5.13670286 8.77265943 -8.6875 8.0625 C-9.68136719 7.86785156 -10.67523438 7.67320313 -11.69921875 7.47265625 C-12.83810547 7.23869141 -12.83810547 7.23869141 -14 7 C-12.68 6.34 -11.36 5.68 -10 5 C-10.33 3.68 -10.66 2.36 -11 1 C-9.54182203 0.83197949 -8.0834516 0.66562857 -6.625 0.5 C-5.81289063 0.4071875 -5.00078125 0.314375 -4.1640625 0.21875 C-2 0 -2 0 0 0 Z " fill="#313435" transform="translate(291,101)"/>
<path d="M0 0 C1.08667969 0.02707031 2.17335938 0.05414063 3.29296875 0.08203125 C4.54013672 0.13423828 4.54013672 0.13423828 5.8125 0.1875 C6.1425 1.1775 6.4725 2.1675 6.8125 3.1875 C4.527669 5.472331 -0.11327657 5.11647834 -3.1875 5.1875 C-6.75 4.25 -6.75 4.25 -9.1875 3.1875 C-6.54246503 -0.34849411 -4.24021315 -0.13678107 0 0 Z " fill="#3F4143" transform="translate(113.1875,81.8125)"/>
<path d="M0 0 C2.18742014 3.2811302 2.54442806 5.33084356 3.125 9.1875 C3.29257812 10.27417969 3.46015625 11.36085938 3.6328125 12.48046875 C3.75398438 13.31191406 3.87515625 14.14335938 4 15 C3.01 15.66 2.02 16.32 1 17 C0.34 16.67 -0.32 16.34 -1 16 C-0.835 14.845 -0.67 13.69 -0.5 12.5 C0.03238311 8.30092197 0.07552446 4.22936959 0 0 Z " fill="#2F2F2F" transform="translate(296,109)"/>
<path d="M0 0 C7.75286257 -0.27470773 15.46794798 -0.04045556 23 2 C23.33 2.66 23.66 3.32 24 4 C20.37372376 3.72297423 16.74936645 3.42590775 13.125 3.125 C11.57619141 3.00705078 11.57619141 3.00705078 9.99609375 2.88671875 C9.00996094 2.80292969 8.02382812 2.71914062 7.0078125 2.6328125 C6.09660645 2.55949707 5.18540039 2.48618164 4.24658203 2.41064453 C2 2 2 2 0 0 Z " fill="#121416" transform="translate(180,87)"/>
<path d="M0 0 C1.98 0 3.96 0 6 0 C5.773125 0.66 5.54625 1.32 5.3125 2 C4.87669944 6.18368542 6.33630342 9.21203546 8 13 C6.140625 12.7734375 6.140625 12.7734375 4 12 C2.734375 10.0390625 2.734375 10.0390625 1.75 7.625 C1.41484375 6.83351562 1.0796875 6.04203125 0.734375 5.2265625 C0 3 0 3 0 0 Z " fill="#3E4847" transform="translate(356,175)"/>
<path d="M0 0 C-0.33 0.99 -0.66 1.98 -1 3 C-1.67417969 2.83628906 -2.34835938 2.67257813 -3.04296875 2.50390625 C-6.51367906 1.9124642 -9.79322124 1.90460954 -13.3125 1.9375 C-14.56675781 1.94652344 -15.82101563 1.95554687 -17.11328125 1.96484375 C-18.06589844 1.97644531 -19.01851562 1.98804687 -20 2 C-20.33 1.34 -20.66 0.68 -21 0 C-18.62543835 -0.1963696 -16.25079981 -0.38231294 -13.875 -0.5625 C-13.20984375 -0.61857422 -12.5446875 -0.67464844 -11.859375 -0.73242188 C-7.7271959 -1.03625857 -4.05304259 -0.85227531 0 0 Z " fill="#272729" transform="translate(253,104)"/>
<path d="M0 0 C-3.36603171 2.82746664 -6.94732725 4.3489111 -11 6 C-11.99 6.495 -11.99 6.495 -13 7 C-13 5.02 -13 3.04 -13 1 C-11.39796533 0.63631108 -9.79325797 0.28438048 -8.1875 -0.0625 C-7.29417969 -0.25972656 -6.40085937 -0.45695313 -5.48046875 -0.66015625 C-3 -1 -3 -1 0 0 Z " fill="#2B3436" transform="translate(436,192)"/>
<path d="M0 0 C2.64 0 5.28 0 8 0 C8 0.66 8 1.32 8 2 C8.66 2 9.32 2 10 2 C10.33 2.99 10.66 3.98 11 5 C6.71 4.67 2.42 4.34 -2 4 C-1.34 2.68 -0.68 1.36 0 0 Z " fill="#2A2A2C" transform="translate(374,139)"/>
<path d="M0 0 C0.33 1.98 0.66 3.96 1 6 C-2.20062687 7.60031344 -4.72271806 6.03173691 -8 5 C-8 3.68 -8 2.36 -8 1 C-5.07175348 0.02391783 -3.04386724 -0.08226668 0 0 Z " fill="#3E4143" transform="translate(292,103)"/>
<path d="M0 0 C1.32 0.66 2.64 1.32 4 2 C3.49396008 4.16874252 3.00016187 5.99967627 2 8 C-0.64 8 -3.28 8 -6 8 C-5.01 7.67 -4.02 7.34 -3 7 C-3.061875 6.21625 -3.12375 5.4325 -3.1875 4.625 C-3.125625 3.75875 -3.06375 2.8925 -3 2 C-2.01 1.34 -1.02 0.68 0 0 Z " fill="#202121" transform="translate(466,154)"/>
<path d="M0 0 C2.20826378 -0.02722517 4.41662638 -0.04649729 6.625 -0.0625 C7.85476563 -0.07410156 9.08453125 -0.08570313 10.3515625 -0.09765625 C13.67723791 -0.00863924 16.74047588 0.36313913 20 1 C16.87656337 3.08229108 16.46147078 3.23770457 12.98828125 2.9765625 C12.23095703 2.925 11.47363281 2.8734375 10.69335938 2.8203125 C9.51483398 2.72363281 9.51483398 2.72363281 8.3125 2.625 C7.51521484 2.56828125 6.71792969 2.5115625 5.89648438 2.453125 C3.93026419 2.31183972 1.96501176 2.15720094 0 2 C0 1.34 0 0.68 0 0 Z " fill="#2B2F2D" transform="translate(413,176)"/>
<path d="M0 0 C3.63 0.33 7.26 0.66 11 1 C11 2.66666667 11 4.33333333 11 6 C8.69 6 6.38 6 4 6 C4 5.34 4 4.68 4 4 C2.70766393 2.62689293 1.37562854 1.28965176 0 0 Z " fill="#676768" transform="translate(398,116)"/>
<path d="M0 0 C2 1 2 1 2.625 2.625 C3.12095645 5.7660575 3.06103811 8.82601831 3 12 C1 11 1 11 0 8 C-1.65 8.33 -3.3 8.66 -5 9 C-4.67 7.68 -4.34 6.36 -4 5 C-3.01 5 -2.02 5 -1 5 C-0.67 3.35 -0.34 1.7 0 0 Z " fill="#515355" transform="translate(162,83)"/>
<path d="M0 0 C3.3 0.66 6.6 1.32 10 2 C8.68 2.33 7.36 2.66 6 3 C6.33 3.33 6.66 3.66 7 4 C6.67 4.99 6.34 5.98 6 7 C5.01 7 4.02 7 3 7 C3 6.34 3 5.68 3 5 C1.68 5.33 0.36 5.66 -1 6 C-0.67 4.02 -0.34 2.04 0 0 Z " fill="#818385" transform="translate(405,159)"/>
<path d="M0 0 C1.98 0.99 3.96 1.98 6 3 C5 6 5 6 2 8 C-0.04296875 8.1953125 -0.04296875 8.1953125 -2.1875 8.125 C-4.0746875 8.063125 -4.0746875 8.063125 -6 8 C-5.67 7.34 -5.34 6.68 -5 6 C-2.6859378 5.26924352 -0.35171131 4.59861742 2 4 C-0.475 3.01 -0.475 3.01 -3 2 C-2.01 1.34 -1.02 0.68 0 0 Z " fill="#434345" transform="translate(397,116)"/>
<path d="M0 0 C1.95825873 -0.02694851 3.91662226 -0.04637218 5.875 -0.0625 C6.96554688 -0.07410156 8.05609375 -0.08570312 9.1796875 -0.09765625 C12 0 12 0 14 1 C14 1.66 14 2.32 14 3 C10.04 3 6.08 3 2 3 C2 2.34 2 1.68 2 1 C1.34 0.67 0.68 0.34 0 0 Z " fill="#1B1D1F" transform="translate(70,85)"/>
<path d="M0 0 C2.475 0.99 2.475 0.99 5 2 C5 3.32 5 4.64 5 6 C2.36 6 -0.28 6 -3 6 C-2.42655063 3.13275314 -2.1385485 2.1385485 0 0 Z " fill="#444749" transform="translate(428,214)"/>
<path d="M0 0 C4.95 0 9.9 0 15 0 C14.01 0.33 13.02 0.66 12 1 C12 1.66 12 2.32 12 3 C3.42857143 3.14285714 3.42857143 3.14285714 0 2 C0 1.34 0 0.68 0 0 Z " fill="#1F2120" transform="translate(352,160)"/>
<path d="M0 0 C-2 2 -2 2 -5.9375 2.1875 C-8.67636155 2.16190316 -10.34007532 1.88664156 -13 1 C-13 0.34 -13 -0.32 -13 -1 C-4.57142857 -2.42857143 -4.57142857 -2.42857143 0 0 Z " fill="#34413F" transform="translate(387,221)"/>
<path d="M0 0 C2.475 0.495 2.475 0.495 5 1 C5.66 2.98 6.32 4.96 7 7 C4.03 6.505 4.03 6.505 1 6 C0.67 4.02 0.34 2.04 0 0 Z " fill="#382728" transform="translate(488,167)"/>
<path d="M0 0 C6.43681228 0.51085812 11.95942424 1.72942897 18 4 C18 4.33 18 4.66 18 5 C13.40907294 5.22058508 9.94544748 4.5361591 5.625 3 C4.56539063 2.62875 3.50578125 2.2575 2.4140625 1.875 C1.61742187 1.58625 0.82078125 1.2975 0 1 C0 0.67 0 0.34 0 0 Z " fill="#808080" transform="translate(419,162)"/>
<path d="M0 0 C5.53846154 -0.36923077 5.53846154 -0.36923077 7.875 1.5 C8.24625 1.995 8.6175 2.49 9 3 C5.52674819 4.1577506 2.63932552 4.06866652 -1 4 C-0.67 2.68 -0.34 1.36 0 0 Z " fill="#58585A" transform="translate(391,118)"/>
<path d="M0 0 C0.66 0.33 1.32 0.66 2 1 C3.20255163 5.07657438 3.10196591 9.08964742 3.0625 13.3125 C3.05347656 14.56675781 3.04445313 15.82101563 3.03515625 17.11328125 C3.01775391 18.54220703 3.01775391 18.54220703 3 20 C2.67 20 2.34 20 2 20 C1.67 15.05 1.34 10.1 1 5 C0.01 4.67 -0.98 4.34 -2 4 C-2 3.34 -2 2.68 -2 2 C-1.34 2 -0.68 2 0 2 C0 1.34 0 0.68 0 0 Z " fill="#0A090A" transform="translate(301,108)"/>
<path d="M0 0 C0.66 0 1.32 0 2 0 C2.33 2.64 2.66 5.28 3 8 C1.68 8.33 0.36 8.66 -1 9 C-1.09765625 2.84765625 -1.09765625 2.84765625 -1 1 C-0.67 0.67 -0.34 0.34 0 0 Z " fill="#1C1C1C" transform="translate(296,94)"/>
<path d="M0 0 C9.41002278 -0.3690205 9.41002278 -0.3690205 14 2 C14 2.33 14 2.66 14 3 C12.22925083 3.02705729 10.45838289 3.04642195 8.6875 3.0625 C7.70136719 3.07410156 6.71523437 3.08570312 5.69921875 3.09765625 C3 3 3 3 0 2 C0 1.34 0 0.68 0 0 Z " fill="#2A2C2D" transform="translate(133,90)"/>
<path d="M0 0 C0.66 0 1.32 0 2 0 C1.98259766 0.90492188 1.98259766 0.90492188 1.96484375 1.828125 C1.95582031 2.62734375 1.94679688 3.4265625 1.9375 4.25 C1.92589844 5.03890625 1.91429687 5.8278125 1.90234375 6.640625 C1.99614694 8.90691002 2.36758937 10.8288895 3 13 C-0.44725363 10.33621311 -1.1815435 7.16668765 -2 3 C-1.34 2.01 -0.68 1.02 0 0 Z " fill="#303B39" transform="translate(362,175)"/>
<path d="M0 0 C0.99 0 1.98 0 3 0 C3 0.66 3 1.32 3 2 C6.63 2 10.26 2 14 2 C14 2.99 14 3.98 14 5 C9.44360141 4.45323217 5.2668631 3.72706364 1 2 C0.67 1.34 0.34 0.68 0 0 Z " fill="#505253" transform="translate(405,164)"/>
<path d="M0 0 C2.9375 0.25 2.9375 0.25 4.9375 1.25 C4.6075 2.24 4.2775 3.23 3.9375 4.25 C0.6375 3.92 -2.6625 3.59 -6.0625 3.25 C-3.0625 0.25 -3.0625 0.25 0 0 Z " fill="#232527" transform="translate(158.0625,79.75)"/>
<path d="M0 0 C4.95 0 9.9 0 15 0 C15.33 0.99 15.66 1.98 16 3 C10.72 2.67 5.44 2.34 0 2 C0 1.34 0 0.68 0 0 Z " fill="#586D6B" transform="translate(420,188)"/>
<path d="M0 0 C1.65 0.33 3.3 0.66 5 1 C4.34 2.65 3.68 4.3 3 6 C2.67 5.34 2.34 4.68 2 4 C-0.97 4 -3.94 4 -7 4 C-7 3.67 -7 3.34 -7 3 C-3.535 2.505 -3.535 2.505 0 2 C0 1.34 0 0.68 0 0 Z " fill="#25211F" transform="translate(490,174)"/>
<path d="M0 0 C2.97 0 5.94 0 9 0 C8.34 0.66 7.68 1.32 7 2 C6.2884375 2.804375 6.2884375 2.804375 5.5625 3.625 C4 5 4 5 1 5 C0.67 3.35 0.34 1.7 0 0 Z " fill="#3E4041" transform="translate(152,87)"/>
<path d="M0 0 C0 1.65 0 3.3 0 5 C-2.97 4.67 -5.94 4.34 -9 4 C-4.5 0 -4.5 0 0 0 Z " fill="#1B1D1D" transform="translate(487,121)"/>
<path d="M0 0 C0.66 0.99 1.32 1.98 2 3 C1.67 3.99 1.34 4.98 1 6 C0.67 5.34 0.34 4.68 0 4 C-2.64 4 -5.28 4 -8 4 C-6 1 -6 1 -2.875 0.3125 C-1.92625 0.209375 -0.9775 0.10625 0 0 Z " fill="#222325" transform="translate(288,96)"/>
<path d="M0 0 C2.31 0 4.62 0 7 0 C7 0.66 7 1.32 7 2 C8.65 2 10.3 2 12 2 C12 2.33 12 2.66 12 3 C7.38 3 2.76 3 -2 3 C-1.34 2.67 -0.68 2.34 0 2 C0 1.34 0 0.68 0 0 Z " fill="#252628" transform="translate(324,134)"/>
<path d="M0 0 C0.66 0 1.32 0 2 0 C3.125 2.8125 3.125 2.8125 4 6 C3.01 7.485 3.01 7.485 2 9 C-1.07692308 4.56923077 -1.07692308 4.56923077 -0.6875 1.6875 C-0.460625 1.130625 -0.23375 0.57375 0 0 Z " fill="#48514E" transform="translate(398,177)"/>
<path d="M0 0 C0.33 0.99 0.66 1.98 1 3 C-1.65381366 7.3522544 -4.10842202 8.7771055 -9 10 C-6.22237877 6.39937989 -3.26008643 3.16952847 0 0 Z " fill="#1A211E" transform="translate(253,131)"/>
<path d="M0 0 C5.61 0.66 11.22 1.32 17 2 C17 2.33 17 2.66 17 3 C11.555 3.495 11.555 3.495 6 4 C6 3.34 6 2.68 6 2 C4.35 2.33 2.7 2.66 1 3 C0.67 2.01 0.34 1.02 0 0 Z " fill="#474A49" transform="translate(326,105)"/>
<path d="M0 0 C3.96 0 7.92 0 12 0 C12 0.66 12 1.32 12 2 C12.99 2.33 13.98 2.66 15 3 C9.5814234 3.22577402 5.22512279 2.46670113 0 1 C0 0.67 0 0.34 0 0 Z " fill="#2F3132" transform="translate(184,97)"/>
<path d="M0 0 C5.94 0 11.88 0 18 0 C18 0.66 18 1.32 18 2 C14.7 2 11.4 2 8 2 C7.67 2.66 7.34 3.32 7 4 C6.67 3.34 6.34 2.68 6 2 C2.97065509 1.34227572 2.97065509 1.34227572 0 1 C0 0.67 0 0.34 0 0 Z " fill="#262628" transform="translate(233,96)"/>
<path d="M0 0 C4.54805635 -0.17835515 7.8794254 0.00214565 12 2 C12 2.33 12 2.66 12 3 C8.7 3 5.4 3 2 3 C2 2.34 2 1.68 2 1 C1.34 0.67 0.68 0.34 0 0 Z " fill="#222425" transform="translate(82,85)"/>
<path d="M0 0 C0.99386719 0.10183594 1.98773438 0.20367187 3.01171875 0.30859375 C3.77097656 0.39238281 4.53023438 0.47617188 5.3125 0.5625 C5.3125 0.8925 5.3125 1.2225 5.3125 1.5625 C4.03375 1.706875 2.755 1.85125 1.4375 2 C-0.94442894 2.26892746 -2.53202691 2.48476346 -4.6875 3.5625 C-6.8125 3.125 -6.8125 3.125 -8.6875 2.5625 C-8.6875 1.9025 -8.6875 1.2425 -8.6875 0.5625 C-5.3763987 -0.54120043 -3.44001051 -0.36423641 0 0 Z " fill="#1E201F" transform="translate(482.6875,172.4375)"/>
<path d="M0 0 C1.4370809 -0.05422947 2.87475462 -0.09289723 4.3125 -0.125 C5.11300781 -0.14820313 5.91351563 -0.17140625 6.73828125 -0.1953125 C9 0 9 0 12 2 C11 3 11 3 7.4375 3.0625 C6.303125 3.041875 5.16875 3.02125 4 3 C4 2.34 4 1.68 4 1 C2.68 0.67 1.36 0.34 0 0 Z " fill="#262726" transform="translate(476,165)"/>
<path d="M0 0 C2.475 0.495 2.475 0.495 5 1 C5 2.32 5 3.64 5 5 C5.99 5.33 6.98 5.66 8 6 C6.02 6 4.04 6 2 6 C1.34 4.02 0.68 2.04 0 0 Z " fill="#0E1110" transform="translate(314,151)"/>
<path d="M0 0 C0.99 0.99 1.98 1.98 3 3 C3.86625 3.7115625 3.86625 3.7115625 4.75 4.4375 C6 6 6 6 5.8125 8.0625 C5 10 5 10 3 12 C2.01 8.04 1.02 4.08 0 0 Z " fill="#828385" transform="translate(290,99)"/>
<path d="M0 0 C-3.42346555 3.14958831 -6.44262737 3.56179109 -11 4 C-10.67 3.01 -10.34 2.02 -10 1 C-6.59437148 0.22157062 -3.49234244 -0.09978121 0 0 Z " fill="#2F3131" transform="translate(425,220)"/>
<path d="M0 0 C3.3 0 6.6 0 10 0 C9.67 0.66 9.34 1.32 9 2 C3.55072464 3.27536232 3.55072464 3.27536232 1 2 C0.67 2.66 0.34 3.32 0 4 C0 2.68 0 1.36 0 0 Z " fill="#2B2B2B" transform="translate(419,165)"/>
<path d="M0 0 C6.625 -0.25 6.625 -0.25 10 2 C8.02 2.33 6.04 2.66 4 3 C4 3.66 4 4.32 4 5 C2.35 5 0.7 5 -1 5 C-0.01 4.01 0.98 3.02 2 2 C1.34 1.34 0.68 0.68 0 0 Z " fill="#787A7B" transform="translate(387,115)"/>
<path d="M0 0 C0.66 0 1.32 0 2 0 C3.4606285 2.64738916 4 3.89448334 4 7 C3.34 7 2.68 7 2 7 C1.67 7.66 1.34 8.32 1 9 C0.67 6.03 0.34 3.06 0 0 Z " fill="#2E3130" transform="translate(401,183)"/>
<path d="M0 0 C3.67230705 3.07999946 4.56802365 5.2482602 5 10 C2 9 2 9 0.8125 6.6875 C0 4 0 4 0 0 Z " fill="#4E5052" transform="translate(166,84)"/>
<path d="M0 0 C0.99 0 1.98 0 3 0 C2.67 2.31 2.34 4.62 2 7 C0.68 7 -0.64 7 -2 7 C-1.34 4.69 -0.68 2.38 0 0 Z " fill="#414143" transform="translate(346,111)"/>
<path d="M0 0 C2.64 0 5.28 0 8 0 C8.33 0.99 8.66 1.98 9 3 C5.7 2.67 2.4 2.34 -1 2 C-0.67 1.34 -0.34 0.68 0 0 Z " fill="#232826" transform="translate(475,305)"/>
<path d="M0 0 C5.28 0.33 10.56 0.66 16 1 C16 1.33 16 1.66 16 2 C11.05 2.33 6.1 2.66 1 3 C0.67 2.01 0.34 1.02 0 0 Z " fill="#445553" transform="translate(418,186)"/>
<path d="M0 0 C1.32 0 2.64 0 4 0 C4.33 1.65 4.66 3.3 5 5 C4.01 5 3.02 5 2 5 C1.34 3.35 0.68 1.7 0 0 Z " fill="#3E3F40" transform="translate(250,94)"/>
<path d="M0 0 C4.29 0.33 8.58 0.66 13 1 C13 1.33 13 1.66 13 2 C11.58696762 2.2506019 10.16920526 2.47461921 8.75 2.6875 C7.96109375 2.81511719 7.1721875 2.94273438 6.359375 3.07421875 C4 3 4 3 0 0 Z " fill="#505354" transform="translate(312,104)"/>
<path d="M0 0 C3.96 0.33 7.92 0.66 12 1 C12 1.33 12 1.66 12 2 C5.25 3.125 5.25 3.125 3 2 C2.34 2.66 1.68 3.32 1 4 C0.67 2.68 0.34 1.36 0 0 Z " fill="#656566" transform="translate(300,102)"/>
<path d="M0 0 C0.33 0.66 0.66 1.32 1 2 C2.65 2 4.3 2 6 2 C6 2.66 6 3.32 6 4 C4.35 4.66 2.7 5.32 1 6 C1 5.34 1 4.68 1 4 C0.34 4 -0.32 4 -1 4 C-0.67 2.68 -0.34 1.36 0 0 Z " fill="#2A2C2E" transform="translate(34,76)"/>
<path d="M0 0 C1.98 0 3.96 0 6 0 C5.67 0.99 5.34 1.98 5 3 C3.35 3 1.7 3 0 3 C0 2.01 0 1.02 0 0 Z " fill="#586966" transform="translate(356,175)"/>
<path d="M0 0 C4.95 0.99 4.95 0.99 10 2 C6.66203244 2.83449189 3.39305036 3.46019653 0 4 C0 2.68 0 1.36 0 0 Z " fill="#909294" transform="translate(405,159)"/>
<path d="M0 0 C0.99 0 1.98 0 3 0 C2 3 2 3 0.125 4.1875 C-2 5 -2 5 -5 5 C-5 4.34 -5 3.68 -5 3 C-4.360625 2.87625 -3.72125 2.7525 -3.0625 2.625 C-2.0415625 2.315625 -2.0415625 2.315625 -1 2 C-0.67 1.34 -0.34 0.68 0 0 Z " fill="#373739" transform="translate(325,125)"/>
<path d="M0 0 C2.97 0.495 2.97 0.495 6 1 C6 1.66 6 2.32 6 3 C3.69 3 1.38 3 -1 3 C-0.67 2.01 -0.34 1.02 0 0 Z " fill="#5A5A5A" transform="translate(403,119)"/>
<path d="M0 0 C3.3 0 6.6 0 10 0 C7.60543557 2.39456443 6.34192692 2.75546876 3 3 C2.01 2.01 1.02 1.02 0 0 Z " fill="#333536" transform="translate(140,84)"/>
</svg>
